<svg id="Layer_1" data-name="Layer 1" xmlns="http://www.w3.org/2000/svg" viewBox="0 0 1280 1280"><defs><style>.cls-1{fill:#dbdad9;}.cls-2{fill:#e92a47;}.cls-3{fill:#ededed;}.cls-4{fill:#098db9;}.cls-5{fill:#2c444f;}.cls-6{fill:#6b111a;}.cls-7{fill:#01a8dc;}.cls-8{fill:#14b2e8;}.cls-9{fill:#16bdef;}.cls-10{fill:#2c303f;}.cls-11{fill:#0477ac;}.cls-12{fill:#11a3d7;}.cls-13{fill:#16567a;}.cls-14{fill:#019acf;}.cls-15{fill:#e92965;}.cls-16{fill:#19181e;}.cls-17{fill:#026fa1;}.cls-18{fill:#02537d;}.cls-19{fill:#1a1b20;}.cls-20{fill:#00a1d6;}.cls-21{fill:#9f9ea4;}.cls-22{fill:#020203;}.cls-23{fill:#09496d;}.cls-24{fill:none;}.cls-25{fill:#d9d9d7;}.cls-26{fill:#e3e3e3;}.cls-27{fill:#191919;}.cls-28{fill:#e0e0df;}.cls-29{fill:#ab1f24;}.cls-30{fill:#f5f5f6;}.cls-31{fill:#e5e5e5;}.cls-32{fill:#fdfefe;}.cls-33{fill:#eae9ea;}.cls-34{fill:#7e141f;}.cls-35{fill:#231f20;}</style></defs><path class="cls-1" d="M643.18,1118.85a6.13,6.13,0,0,1-6.36,0l.9-.12Z"/><path class="cls-1" d="M641.8,1118.77h-3.6A2.3,2.3,0,0,1,641.8,1118.77Z"/><polygon class="cls-2" points="603.39 1004.23 603.39 1004.24 603.38 1004.24 603.39 1004.23"/><path class="cls-2" d="M608.6,1005.74c-1.84,2-3.53,5.57-6.39,4.15s.69-3.68,1.18-5.65C605,1004.56,606.84,1004.18,608.6,1005.74Z"/><polygon class="cls-2" points="603.39 1004.23 603.39 1004.24 603.38 1004.24 603.39 1004.23"/><path class="cls-2" d="M987.42,850.2l-11,4.51-.37.15c-.73.19-1.49.35-2.19.6q-67.27,24.35-134.51,48.73C815.21,913,791.24,922,767.22,931a304.61,304.61,0,0,0-28.72,10.86c-13.32,4.86-26.65,9.65-39.6,15.43C686,962.19,673,967,660.4,972.83a33.66,33.66,0,0,0-3.3.78c-7.48,2.67-7.55,2.68-7.81-5.14-.11-3.2-1.43-3-3.56-1.76q-15.62,8.92-31.24,17.81c-4.3,1.23-7.33,4.68-11.16,6.59-22,10.92-42.86,23.74-64.24,35.69q-21.33,11.6-42.67,23.15c-27.12,13.87-53.36,29.33-79.86,44.42a11.86,11.86,0,0,0,5-.91q18.75-7.73,37.47-15.54c12.1-5.05,24.53-9.34,36.31-15.19,16.56-6.28,33-12.93,49-20.45,17.56-6.37,34.74-13.7,51.8-21.3,3.52-1.37,7.08-2.69,10.57-4.13,20.15-8.35,40.33-16.62,60.12-25.8,11.21-4.31,22.42-8.62,33.16-14,12.48-4.55,24.47-10.21,36.47-15.89,10.5-3.83,20.72-8.33,30.85-13.06L978,856a38.5,38.5,0,0,0,10.05-4.47C987.85,851.09,987.63,850.65,987.42,850.2ZM602.21,1009.89c-2.94-1.46.69-3.68,1.18-5.65,1.64.32,3.45-.06,5.21,1.5C606.76,1007.77,605.07,1011.31,602.21,1009.89Z"/><path class="cls-2" d="M612.13,1003.24c-1.84,2-3.53,5.57-6.39,4.15s.7-3.68,1.18-5.65C608.56,1002.06,610.37,1001.68,612.13,1003.24Z"/><path class="cls-3" d="M652.86,822.06c-2.18,0-4.88.13-4.87-2.31s2.7-2.32,4.68-2.27c1.74,0,4.15-.43,4.3,2.08C657.14,822.53,654.49,821.87,652.86,822.06Z"/><path class="cls-2" d="M686.71,714.11a7,7,0,0,0-3.37,2.62c-1.14,1.72-3.12,2.78-4.48,4.38-1.65,1.94-3.62,3.68-5.45,5.5a2.66,2.66,0,0,1-1.4,1.3c-.83,1.42-2.39,2-3.9,2.62.46.28.43.56,0,.83,0,.15,0,.29-.07.45a5.23,5.23,0,0,0-.42.39l-.05,0c-.16.14-.3.26-.44.4l-.05,0-.44.38-1,.5a.94.94,0,0,1-.92.37,2.13,2.13,0,0,0-1.07.93l-.4.37-.08.07-.42.37c-1.52,2.16-3.88,3.56-5.94,5.25-.31.41-.62.41-.93,0,0-.16,0-.3,0-.46-.17-.13-.33-.28-.5-.42a1.79,1.79,0,0,1-1.59-1c-.18-.3-.47-.62-.91-.47s-.39.68-.44,1.07a1.36,1.36,0,0,1-.46.19c-.78.2-1.24-.45-1.76-.88a63.44,63.44,0,0,1-9.44-9.61c-4.77-6.16-10.58-11.52-16.18-17-6.16-6.06-11.82-12.5-17.71-18.76-9.13-9.69-18.13-19.47-27.44-29-3.25-3.36-5.64-7.19-8.56-10.72a43.42,43.42,0,0,0-7.41-7.16,9.1,9.1,0,0,1-2.17-2.6,57.18,57.18,0,0,0-7.06-8.39l.22.49c.11.34-2.25,0-2.08.37.59,1.19-1.47.72-.43,1.67,1.38,1.24,8,4.72,8.78,6.36,0,.09.08.18.13.27.51.68,1,1.34,1.58,2,.31.26,4.89,6.18,5.26,6.41,1.48.91-1.72-3.6-1.39-2.11-.09-.16-.17-.32-.25-.49a3.22,3.22,0,0,0-.89-1.3,16.81,16.81,0,0,1-2.73-2.51,6.34,6.34,0,0,1-1.58-2,34.43,34.43,0,0,0-4.78-5.63,8,8,0,0,1-2.15-3.09c-.91-1.27,2.71.16,1.11-.57-.58-.26-3.71-3.88-3.77-4.51-.15-1.67-2.93-2.48-4.32-3.53a6.64,6.64,0,0,1-1.5-1.8h0a3.76,3.76,0,0,0-.48-.13c-1-.92-3.24-.86-2.79-2.86-1.13.6-2,0-2.92-.48-5.8-2.85-11.29-6.14-17-9.12a83.22,83.22,0,0,0-7.51-3.89,2.45,2.45,0,0,0-1.26-1,80.06,80.06,0,0,1-7.65-4.11,5.59,5.59,0,0,0-2.38-1l-.49-.41,0,0a1.08,1.08,0,0,1-1-.42h0c-.16-.15-.32-.28-.49-.42h0a1.08,1.08,0,0,1-1-.43h0c-.16-.13-.32-.28-.49-.41h0a1.06,1.06,0,0,1-1-.44h0l-.49-.4-.49,0-.48-.41h0l0,0-.48-.41-.49,0a3,3,0,0,1-2.44-1.28h0a1.54,1.54,0,0,1-1.47-.87,1.07,1.07,0,0,1-1-.43h0a1.51,1.51,0,0,1-1.46-.87h0l-.49-.41-.48,0-.5-.41h0l-.49-.43-.47,0-.26-.2a2.4,2.4,0,0,0-.24-.22c-.17-.15-.34-.28-.5-.43l-.49-.42-1,0a4.11,4.11,0,0,1-.5-.42c-.16-.15-.33-.28-.5-.42l-.48,0-.5-.42h0a1.07,1.07,0,0,1-1-.44h0c-.51.05-.9.1-1.19.16a22.38,22.38,0,0,1,3.08,4.16,16.9,16.9,0,0,1,3.74,6c.35.41.7.82,1,1.25a30.11,30.11,0,0,1,3.87,7.13c1.52,2,2.75,4.19,4.17,6.27a10.43,10.43,0,0,1,1.39,1.77c.28.49.67.92.95,1.4a13.6,13.6,0,0,1,.75,1.33,13.14,13.14,0,0,1,2,3.59c.17.28.35.56.5.85a16.37,16.37,0,0,1,2.32,3.54,2.06,2.06,0,0,1,.34,1,46.42,46.42,0,0,1,3,5.71,13,13,0,0,1,2.68,4.32,40.28,40.28,0,0,1,5.21,7.19l.57,1.09c.19.28.37.56.54.85,1,1.6,1.87,3.25,2.85,4.86.32.54.69,1.06,1,1.58a12.34,12.34,0,0,1,2,2.38l.11.12.17.2.75.8c1.81,1.92,3.62,3.84,5.38,5.8l.54.61c.19.2.37.41.56.62l.33.38.36.41c.87,1,1.67,2,2.37,3.07a50.81,50.81,0,0,1,6.55,7.05,14.46,14.46,0,0,1,1.88,3.24,13.32,13.32,0,0,1,2.36,3.47c5.14,6.18,10.3,12.35,15.22,18.66,4.1,5.27,8.23,10.5,12.7,15.53a46.76,46.76,0,0,1,4.48,5.64c.18.28.35.56.52.84a9.28,9.28,0,0,1,1.31,2.2,13.58,13.58,0,0,1,4.5,5.67c.49.51,1,1,1.47,1.55.73.79,1.49,1.56,2.23,2.34l0,0a5.59,5.59,0,0,1,2.47,2.53v0c.06.06.14.12.21.2l.91.91c4.72,4.73,9.63,9.33,14.83,13.68a20.06,20.06,0,0,1,3.3,3.5,14.65,14.65,0,0,1,2.29,1.63l2.23,2.56a9.21,9.21,0,0,1,.91,1.53l2.19,2c4.66,4.24,9,8.8,13.79,12.88a2.15,2.15,0,0,1,.73,1.11,59.89,59.89,0,0,1,6.26,5.48c.42.32.85.65,1.27,1a33.37,33.37,0,0,1,4.2,4.12l.07.07c1.73,1.6,3.45,3.21,5.16,4.81h0a19.42,19.42,0,0,1,4.71,4.54l-.3-.41,1.69,1.58a4.68,4.68,0,0,0,.8.47c.92-.58.47-1.37.47-2q0-25.77,0-51.56a18.17,18.17,0,0,1,.11-1.94c0-.49.41-.76,1-.78h0c1.47-1.3,2.66-2.84,4.4-3.91,3-3.5,6.67-6.49,10-9.76,5.2-5.16,10.47-10.27,15.69-15.4a2.26,2.26,0,0,0,.38-.7ZM535.9,670.39c-.55-.66-1.07-1.32-1.6-2,1,1,1.89,2,2.78,3A4.89,4.89,0,0,1,535.9,670.39Z"/><path class="cls-4" d="M589.5,738.54c-.83-.84-1.65-1.68-2.47-2.53A5.59,5.59,0,0,1,589.5,738.54Z"/><path class="cls-4" d="M637.16,784.05l-1.06-.76-.74-.49c-.2-.15-.41-.28-.62-.42s-.46-.53-.7-.78-.22-.25-.34-.37-.5-.51-.76-.75-.65-.6-1-.89l-.13-.11c-.25-.21-.48-.4-.74-.59a2,2,0,0,1-.18-.32A59.89,59.89,0,0,1,637.16,784.05Z"/><path class="cls-4" d="M642.7,789.24c1.73,1.6,3.45,3.21,5.16,4.81-.35-.24-.7-.47-1.06-.67s-.81-.47-1.23-.69c-.54-.68-1.09-1.35-1.64-2C643.52,790.19,643.12,789.71,642.7,789.24Z"/><path class="cls-4" d="M652.38,739.6a1.36,1.36,0,0,1-.46.19s0,0,0-.06a1.41,1.41,0,0,1,0-.21c0-.61.05-1.23.85-1.36,1.12-.18,1.67.73,2.4,1.27l.36.28s.09.08.13.13l.17.16.18.14,0,0,.19.15a.9.9,0,0,0,.73-.14c1.68-1.6,3.71-2.87,5.17-4.64l.45-.42.22-.19a3.18,3.18,0,0,1,.41-.41,3.48,3.48,0,0,1,1.14-.85c.34-.14.68-.26,1-.42l.91-.48.42-.25.19-.13c.11-.11.24-.21.35-.31l.15-.18c.07-.13.17-.25.24-.38s.11-.3.15-.44a2.51,2.51,0,0,1,.26-1,14.45,14.45,0,0,0,3.58-2.39l.46-.39c.22-.2.45-.41.66-.63a4.06,4.06,0,0,0,.44-.49c3.28-3.92,7.31-7.25,10.81-11a2.78,2.78,0,0,1,2.71-1.1s0,0,0,.06a7,7,0,0,0-3.37,2.62c-1.14,1.72-3.12,2.78-4.48,4.38-1.65,1.94-3.62,3.68-5.45,5.5a2.66,2.66,0,0,1-1.4,1.3c-.83,1.42-2.39,2-3.9,2.62.46.28.43.56,0,.83,0,.15,0,.29-.07.45a5.23,5.23,0,0,0-.42.39l-.05,0c-.16.14-.3.26-.44.4l-.05,0-.44.38-1,.5a.94.94,0,0,1-.92.37,2.13,2.13,0,0,0-1.07.93l-.4.37-.08.07-.42.37c-1.52,2.16-3.88,3.56-5.94,5.25-.31.41-.62.41-.93,0,0-.16,0-.3,0-.46-.17-.13-.33-.28-.5-.42a1.79,1.79,0,0,1-1.59-1c-.18-.3-.47-.62-.91-.47S652.43,739.21,652.38,739.6Z"/><path class="cls-4" d="M680.64,721.36l-1.13,1.11A4.12,4.12,0,0,1,680.64,721.36Z"/><path class="cls-5" d="M656.5,765.42v5.87a14.81,14.81,0,0,1,0-5.63Z"/><path class="cls-5" d="M656.53,787.57a14.43,14.43,0,0,1-.25-4.05c.24-2.57-.13-5.16.22-7.73Q656.5,781.69,656.53,787.57Z"/><path class="cls-5" d="M659.25,798.11a1.55,1.55,0,0,1-.18.64l-.58.5h0a2,2,0,0,1-.7.14A2.72,2.72,0,0,1,659.25,798.11Z"/><path class="cls-5" d="M728.86,731.35h0Z"/><path class="cls-6" d="M657.48,666c-1,.81-.94,2.09-1,4.92,0,6.69,0,13.36,0,20v8.92q0,3,0,6,0,9.87,0,19.71h0v0c0,.49,0,1,0,1.46,0,1.05,0,2.1,0,3.15v0h0c0,.93.88,2.3.87,3.22s-.55,1.12-.41,1.91h0l0,.18a4.32,4.32,0,0,1-.55,3.48h0c-.21.26-.78,5.35-1.11,5.56-.1.07.64-.06.52,0-.81,0,.82-.21.46-.78-.18-.3,0,1.67-.46,1.82s-1.49-2.72-1.54-2.33c-.16.1,2.15,2.3,2,2.34-.79.2-5.63-6.42-6.15-6.85a63.44,63.44,0,0,1-9.44-9.61c-4.77-6.16-10.58-11.52-16.18-17-6.16-6.06-11.82-12.5-17.71-18.76-9.13-9.69-18.13-19.47-27.44-29-3.25-3.36-5.64-7.19-8.56-10.72a43.42,43.42,0,0,0-7.41-7.16,9.1,9.1,0,0,1-2.17-2.6c-1.93-3.08-4.42-4.78-6.93-7.47,0,0-1.37-1-.15-.95-.68-.73-1.18-2.79-2-2.23s-.18-.21-.26-.32c-.56-.71-3.34-1.79-2.63-2.62.54-.64.78.4,0,0-1.86-1-2-1.48-3.19-3.33-.13-.21-.43-1.37-.69-1.44h0a3.76,3.76,0,0,0-.48-.13c-1-.92-3.24-.86-2.79-2.86l0,0c.57.26,1.13.52,1.71.75a1.57,1.57,0,0,0,.19.12c.71.36,1.37.79,2.12,1.09,8.38,3.37,16.73,6.79,25.17,10.06s17.08,6.42,25.6,9.69c9.32,3.58,18.87,6.67,28.25,10.14,5.47,2,11,3.89,16.54,5.8,4,1.38,7.91,3,12,4.14a6.38,6.38,0,0,0,3.82-.06"/><path class="cls-7" d="M534.3,668.41c1,1,1.89,2,2.78,3a4.89,4.89,0,0,1-1.18-1.06C535.35,669.73,534.83,669.07,534.3,668.41Z"/><path class="cls-8" d="M482.33,591.4c.24.28.71.18,1,.44A1.07,1.07,0,0,1,482.33,591.4Z"/><path class="cls-8" d="M490.17,595.73c.45.34,1,.55,1.46.87A1.51,1.51,0,0,1,490.17,595.73Z"/><path class="cls-8" d="M491.64,596.6c.26.26.71.18,1,.43A1.07,1.07,0,0,1,491.64,596.6Z"/><path class="cls-8" d="M492.61,597c.47.33,1,.56,1.47.87A1.54,1.54,0,0,1,492.61,597Z"/><path class="cls-8" d="M494.09,597.9c.74.54,1.69.78,2.44,1.28A3,3,0,0,1,494.09,597.9Z"/><path class="cls-8" d="M499,600.5c.26.27.71.18,1,.44A1.06,1.06,0,0,1,499,600.5Z"/><path class="cls-8" d="M500.46,601.37c.26.26.71.17,1,.43A1.08,1.08,0,0,1,500.46,601.37Z"/><path class="cls-8" d="M502.89,602.66a1.08,1.08,0,0,1-1-.42C502.19,602.5,502.64,602.41,502.89,602.66Z"/><path class="cls-9" d="M496.53,599.18a3,3,0,0,1-2.44-1.28A3.2,3.2,0,0,1,496.53,599.18Z"/><path class="cls-9" d="M491.63,596.6a1.51,1.51,0,0,1-1.46-.87A1.51,1.51,0,0,1,491.63,596.6Z"/><path class="cls-9" d="M494.08,597.9a1.54,1.54,0,0,1-1.47-.87A1.51,1.51,0,0,1,494.08,597.9Z"/><path class="cls-9" d="M502.89,602.66a1.08,1.08,0,0,1-1-.42A1.06,1.06,0,0,1,502.89,602.66Z"/><path class="cls-9" d="M501.42,601.8a1.08,1.08,0,0,1-1-.43A1,1,0,0,1,501.42,601.8Z"/><path class="cls-9" d="M500,600.94a1.06,1.06,0,0,1-1-.44A1,1,0,0,1,500,600.94Z"/><path class="cls-9" d="M492.61,597a1.07,1.07,0,0,1-1-.43A1.08,1.08,0,0,1,492.61,597Z"/><path class="cls-9" d="M483.29,591.84a1.07,1.07,0,0,1-1-.44A1.07,1.07,0,0,1,483.29,591.84Z"/><path class="cls-9" d="M485.28,593.12l-.5-.42Z"/><path class="cls-9" d="M498,600.06l-.49-.41Z"/><path class="cls-9" d="M499,600.5l-.48-.42Z"/><path class="cls-10" d="M772.35,625.13a.45.45,0,0,1-.13.15l0,.06c-.28.34-.57.71-.84,1-.51.67-1.05,1.33-1.6,2a14.51,14.51,0,0,1-1.07,1.17l0,0c-5.84,5.9-11.29,12.09-17,18.08Q739,661,726.36,674.27a7,7,0,0,1-1.89,1.68c-.19,1.22-1.79,1.67-2,2.88a1.4,1.4,0,0,1-.13-.79c.1-.62.71-1,1.2-1.54a2.14,2.14,0,0,0,.57-.76c15.68-16.27,31.06-32.76,46.83-49.69l.33-.35-.12,0c-2,.61-3.31,1.15-4.71,1.6-.89.29-1.83.75-2.76,0,.15,0,.3,0,.48-.08a31.38,31.38,0,0,0,5.28-1.65,10.57,10.57,0,0,1,2.08-.48C771.76,625.15,772.05,625.13,772.35,625.13Z"/><path class="cls-10" d="M812.68,603.11c-.15.09-.32.17-.49.25s-.54.26-.82.4l-1,.38-.24.09a.82.82,0,0,1-.19.06l0,0s-.06,0-.1,0a3.88,3.88,0,0,1-.44.13s0,0-.05,0l-1.6,1,0,0c-.29.17-.57.36-.88.56a.47.47,0,0,0-.17.09.35.35,0,0,0-.1.08h0c-.42.24-.84.49-1.27.72a5,5,0,0,1-.52.25l-.61.29-.11,0-1.7.73-.57.21-.76.3c-.69.35-1.4.71-2.08,1.07l-.25.17c-.36.27-.73.52-1.11.76s-.66.44-1,.65l-.13.08c-.36.21-.73.42-1.09.61a29.22,29.22,0,0,1-3.09,1.47,3,3,0,0,0-.32.19,2.86,2.86,0,0,1,.44-.15c.51-.18.86-.29,1-.37h0s0,0,0,0l-.2.08-.28.09c-.15.06-.33.14-.5.19l-.95.39c-3.91,2.26-7.78,4.59-11.69,6.88a17.1,17.1,0,0,1-6.2,2.61l-1.31.52.19.11a2.67,2.67,0,0,1,.48.29c.62.45,1.39.11,2.09-.14a20.26,20.26,0,0,0,3.19-1.94q9.43-5.49,18.93-10.93c2.18-1.26,4.43-2.38,6.64-3.58a19.19,19.19,0,0,0,5.91-2.86c1.09-.71,2.19-1.38,3.34-2Z"/><path class="cls-10" d="M815,614.26l-.11.21a1.07,1.07,0,0,1-.16.25,1.06,1.06,0,0,0,0-.25l-.09,0a.3.3,0,0,1-.12-.36,1,1,0,0,1,.12-.19c0,.19.06.36.09.53A1.46,1.46,0,0,0,815,614.26Z"/><path class="cls-10" d="M823.51,599.68a2.27,2.27,0,0,1-.53,1.46,5,5,0,0,0-.4.58C822.88,601,823.19,600.36,823.51,599.68Z"/><path class="cls-11" d="M821.87,603.78c0,.09-.11.17-.15.26s0-.07,0-.11A.93.93,0,0,1,821.87,603.78Z"/><path class="cls-11" d="M823.51,599.68a2.27,2.27,0,0,1-.53,1.46,5,5,0,0,0-.4.58C822.88,601,823.19,600.36,823.51,599.68Z"/><path class="cls-11" d="M825.88,597.27c-.06.14-.12.29-.17.44-.21.38-.42.75-.54.92-.67,1-1.33,2-2,3A17.58,17.58,0,0,1,825.88,597.27Z"/><path class="cls-11" d="M818.23,611.17a.1.1,0,0,1,.06-.07s0,0,0,0Z"/><path class="cls-11" d="M819.72,608.52c-.21.5-.42,1-.61,1.38a.36.36,0,0,0-.08.09,7.32,7.32,0,0,0-.49.69c.26-.48.61-1.18.8-1.57A4.89,4.89,0,0,1,819.72,608.52Z"/><path class="cls-12" d="M810.13,604.23c-2.12,1.22-4.22,2.42-6.35,3.59s-4.46,2.32-6.64,3.58q-9.5,5.45-18.93,10.93a20.26,20.26,0,0,1-3.19,1.94c-.7.25-1.47.59-2.09.14a2.67,2.67,0,0,0-.48-.29l-.19-.11,0,0a59.09,59.09,0,0,0,7.26-3.3c2.45-1.32,4.79-2.8,7.17-4.18,1.19-.68,2.39-1.37,3.63-2a12.12,12.12,0,0,1,1.18-.51l.95-.39c.17-.05.35-.13.5-.19l.28-.09.2-.08s0,0,0,0h0c-.19.08-.54.19-1,.37a2.86,2.86,0,0,0-.44.15,6,6,0,0,1-.67.21l1-.4a29.22,29.22,0,0,0,3.09-1.47c.36-.19.73-.4,1.09-.61l.13-.08c.35-.21.69-.42,1-.65s.75-.49,1.11-.76l.25-.17.8-.63c.42-.13.84-.29,1.28-.44l.76-.3.57-.21,1.7-.73.11,0,.61-.29a5,5,0,0,0,.52-.25c.43-.23.85-.48,1.27-.72h0a.35.35,0,0,1,.1-.08.47.47,0,0,1,.17-.09c.31-.2.59-.39.88-.56l0,0a3.6,3.6,0,0,1,.4-.28l.68-.48a1,1,0,0,1,.19-.08l.33-.11s0,0,.05,0a3.88,3.88,0,0,0,.44-.13s.08,0,.1,0l0,0A.82.82,0,0,0,810.13,604.23Z"/><path class="cls-13" d="M813,602.94c-1.15.64-2.25,1.31-3.34,2a19.19,19.19,0,0,1-5.91,2.86,2.4,2.4,0,0,1,.21-.31l.11,0,.61-.29a5,5,0,0,0,.52-.25c.43-.23.85-.48,1.27-.72h0a.35.35,0,0,1,.1-.08.47.47,0,0,1,.17-.09c.31-.2.59-.39.88-.56l0,0a3.6,3.6,0,0,1,.4-.28l.68-.48a1,1,0,0,1,.19-.08l.33-.11s0,0,.05,0a3.88,3.88,0,0,0,.44-.13s.08,0,.1,0l0,0a.82.82,0,0,0,.19-.06l.24-.09,1-.38c.28-.14.57-.25.82-.4s.34-.16.49-.25Z"/><path class="cls-13" d="M815,614.26l-.11.21h-.18l-.09,0a.3.3,0,0,1-.12-.36,1,1,0,0,1,.12-.19c0,.19.06.36.09.53A1.46,1.46,0,0,0,815,614.26Z"/><path class="cls-13" d="M821.87,603.78c0,.09-.11.17-.15.26s0-.07,0-.11A.93.93,0,0,1,821.87,603.78Z"/><path class="cls-13" d="M823.51,599.68a2.27,2.27,0,0,1-.53,1.46,5,5,0,0,0-.4.58C822.88,601,823.19,600.36,823.51,599.68Z"/><path class="cls-14" d="M529.62,664.71l.54.61q-.3-.32-.57-.63Z"/><path class="cls-14" d="M534.3,668.41c1,1,1.89,2,2.78,3a4.89,4.89,0,0,1-1.18-1.06C535.35,669.73,534.83,669.07,534.3,668.41Z"/><path class="cls-14" d="M589.72,738.76l.91.91h0C590.3,739.36,590,739.05,589.72,738.76Z"/><path class="cls-15" d="M656,736.6c0-1.72-.36-3.44-.48-5.13v0a16.1,16.1,0,0,1,0-1.7c0-.49,0-1,0-1.45s0-1,0-1.47h0c0-1.53,0-3.07,0-4.6,0-4.82,0-9.67-.28-14.47-.18-3,.17-5.91.09-8.85-.25-9.36-.21-18.72-.23-28.11a17.24,17.24,0,0,1,.21-2.57c.14-.82.46-3.46,1.39-3.65a39.51,39.51,0,0,0,5.05-1.19,28.59,28.59,0,0,0,5.95-1.41c3.24-1.1,6.09-1,9.31-2.23,5.36-2,10.77-3.91,16.32-5.4,2.82-.74,5.28-2.12,8.07-2.86a73.08,73.08,0,0,0,7.91-2.59c5.05-2,10.16-3.78,15.24-5.69a2.31,2.31,0,0,0,1.37-.85c3.6-1.32,7.21-2.64,10.79-4,8.39-3.15,16.76-6.27,25.15-9.44a5.07,5.07,0,0,0,.84-.42l.48-.07c2.21-.48,6.33-2.73,8.12-3.3.27-.08.27,0,.19.11-.19.31-.89,1-.09,1a.66.66,0,0,1-.14.15l0,.06c-.28.34-.57.71-.83,1-.52.67-1.05,1.33-1.61,2a14.36,14.36,0,0,1-1.06,1.17l0,0c-5.84,5.89-11.29,12.08-17,18.07Q738,662.09,725.37,675.39a6.93,6.93,0,0,1-1.88,1.68c-.71.7-1.43,1.41-2.16,2.09a44.14,44.14,0,0,0-6,6.77c-.39.56-1.49,2.15-2.16,2.42-1,.4-1.12-.22-1.43.6a3,3,0,0,0-.17.53s0,0,0,.08a1.92,1.92,0,0,0-.17.13s0,0,0,0a1.75,1.75,0,0,0-.27.23,37.36,37.36,0,0,0-5.26,5.49l-.46.57a.45.45,0,0,1-.13.15,7.38,7.38,0,0,1-.65.73l-.17.15a14,14,0,0,1-1.18,1c-.23.15-.46.31-.73.46a7,7,0,0,1-.82.32c-.3.08-.19,1.74-.34,2-2.08,3.2-8.33,9.45-11.17,12.1-2.5,2.33-2-.51-4.06,2.14h0l-.27.13h0l0,0a6.93,6.93,0,0,0-3.37,2.63c-1.15,1.72-3.13,2.79-4.48,4.39-1.66,1.94-3.63,3.66-5.46,5.49A3.13,3.13,0,0,0,671,729c-.82,1.43-2.38,2-3.89,2.61a.55.55,0,0,1,0,.84,4,4,0,0,1-.07.46,3.7,3.7,0,0,0-.42.38l-.06,0-.44.4,0,0c-.15.14-.3.25-.43.38l-1,.52c-.25.23-.67.11-.92.36a2.05,2.05,0,0,0-1.07.94l-.4.36-.07.07a4.83,4.83,0,0,0-.42.37c-1.53,2.15-3.89,3.56-6,5.26"/><path class="cls-16" d="M656.5,765.42v5.87a14.81,14.81,0,0,1,0-5.63Z"/><path class="cls-16" d="M656.53,787.57a14.43,14.43,0,0,1-.25-4.05c.24-2.57-.13-5.16.22-7.73Q656.5,781.69,656.53,787.57Z"/><path class="cls-16" d="M656.75,774.47a11.39,11.39,0,0,0-.25,1.32v-4.5a3.24,3.24,0,0,0,.09.4A5.74,5.74,0,0,1,656.75,774.47Z"/><path class="cls-16" d="M680.64,721.36l-1.13,1.11A4.12,4.12,0,0,1,680.64,721.36Z"/><path class="cls-16" d="M728.86,731.35h0Z"/><path class="cls-16" d="M769.19,631a.18.18,0,0,0-.1.11c-.24.23-.51.48-.76.74H768l-.36-.08a2.66,2.66,0,0,0,.55-.23A4.78,4.78,0,0,0,769.19,631Z"/><path class="cls-14" d="M673.41,726.61a2.66,2.66,0,0,1-1.4,1.3,1.37,1.37,0,0,1,0-.62.79.79,0,0,1,.66-.63A1.92,1.92,0,0,1,673.41,726.61Z"/><path class="cls-14" d="M656.77,740.92c-.31.41-.62.41-.93,0Z"/><path class="cls-14" d="M665.6,733.56a.94.94,0,0,1-.92.37A1,1,0,0,1,665.6,733.56Z"/><path class="cls-14" d="M668.09,731.36c0-.27,0-.55,0-.83C668.57,730.81,668.54,731.09,668.09,731.36Z"/><path class="cls-17" d="M802.39,635.6c-.27.38-.54.76-.79,1.14a11.11,11.11,0,0,0,.35-1.16A1.13,1.13,0,0,1,802.39,635.6Z"/><path class="cls-17" d="M815,614.26l-.11.21a1.07,1.07,0,0,1-.16.25,1.06,1.06,0,0,0,0-.25v0A1.46,1.46,0,0,0,815,614.26Z"/><path class="cls-17" d="M820.35,607a.77.77,0,0,0-.06.15c-.06.13-.11.27-.17.4.06-.17.13-.32.19-.5Z"/><path class="cls-17" d="M821.87,603.78c0,.09-.11.17-.15.26s0-.07,0-.11A.93.93,0,0,1,821.87,603.78Z"/><path class="cls-17" d="M742.18,716.66c-.36.49-.71,1-1,1.47.33-.49.67-1,1-1.45Z"/><path class="cls-18" d="M728.86,731.35h0Z"/><path class="cls-18" d="M729.52,731.15c-.12.21-.22.41-.32.63a.82.82,0,0,0-.34-.43A1.12,1.12,0,0,0,729.52,731.15Z"/><path class="cls-18" d="M802.39,635.6c-.27.38-.54.76-.79,1.14a11.11,11.11,0,0,0,.35-1.16A1.13,1.13,0,0,1,802.39,635.6Z"/><path class="cls-19" d="M659.25,798.11a1.55,1.55,0,0,1-.18.64,1.06,1.06,0,0,1-.58.5h0a2,2,0,0,1-.7.14A2.72,2.72,0,0,1,659.25,798.11Z"/><path class="cls-19" d="M660.23,797.24l-.47.43Z"/><path class="cls-19" d="M659.74,797.68l-.48.42Z"/><path class="cls-19" d="M657.78,799.41l-.48.42Z"/><path class="cls-20" d="M531.05,666.32l.36.41,0,0Z"/><path class="cls-20" d="M534.3,668.41c1,1,1.89,2,2.78,3a4.89,4.89,0,0,1-1.18-1.06C535.35,669.73,534.83,669.07,534.3,668.41Z"/><path class="cls-20" d="M560.81,644.76c.51.68,1,1.34,1.58,2A6.34,6.34,0,0,1,560.81,644.76Z"/><path class="cls-21" d="M661.05,797a5.7,5.7,0,0,1-.82.23c-.07.32.48,0,.31.23a1.54,1.54,0,0,0,.13-.12,2.6,2.6,0,0,0,.31-.25l.15-.13Zm-.82.23a7.08,7.08,0,0,1,2.45-2.18l.49-.44c.15-.15.33-.28.48-.43l1-.86a.18.18,0,0,0,0-.1C664.64,792.43,659.19,797.87,660.23,797.24ZM772.45,624.12l-.19-.11-.76,1.16-.37.57-.21.31-2.25,3.47a14.51,14.51,0,0,0,1.07-1.17c.55-.63,1.09-1.29,1.6-2,.27-.34.56-.71.84-1l0-.06a.45.45,0,0,0,.13-.15C771.55,625.13,772.26,624.43,772.45,624.12Zm-4.84,7.59.36.08h.36c.25-.26.52-.51.76-.74a.18.18,0,0,1,.1-.11,4.78,4.78,0,0,1-1,.53A2.66,2.66,0,0,1,767.61,631.71Zm0,0,.36.08.19-.31A2.66,2.66,0,0,1,767.61,631.71Zm-64.13,65.67c.27-.15.5-.31.73-.46.41-.3.8-.65,1.18-1l.17-.15a7.38,7.38,0,0,0,.65-.73.93.93,0,0,0,.13-.15l.46-.57a37.36,37.36,0,0,1,5.26-5.49,1.38,1.38,0,0,1,.27-.23s0,0,0,0a1.09,1.09,0,0,1,.17-.13s0-.06,0-.08a2.34,2.34,0,0,1,.17-.53C709.56,690.82,706.63,694.35,703.48,697.38Z"/><path class="cls-6" d="M825.42,594.39v0c-2.29,1.51-4.41,3.26-7.07,4.27a18.69,18.69,0,0,1-1.64,1.55s0,0,0,0a19.52,19.52,0,0,1-3.32,2.48l-.1,0a2.5,2.5,0,0,0-.24.16c-1.15.64-2.25,1.31-3.34,2a19.19,19.19,0,0,1-5.91,2.86c-2.21,1.2-4.46,2.32-6.64,3.58q-9.5,5.45-18.93,10.93a20.26,20.26,0,0,1-3.19,1.94c-.7.25-1.47.59-2.09.14a2.67,2.67,0,0,0-.48-.29c-.19.31-.9,1-.1,1a.45.45,0,0,1-.13.15l0,.06c-.28.34-.57.71-.84,1-.51.67-1.05,1.33-1.6,2a14.51,14.51,0,0,1-1.07,1.17l0,0c-5.84,5.9-11.29,12.09-17,18.08Q739,661,726.36,674.27a7,7,0,0,1-1.89,1.68c-.19,1.22-1.79,1.67-2,2.88,0,0,0,0,0,0s.17,0,.19.06l-.15,0s0,0,0,0l0,0c0,.25.18-.87-.11-.86-3.66,1.36-3.3,4-5.59,5.49.1.48-2.36,2.77-2.7,3.08s-.88.78-1.3,1.22a2.34,2.34,0,0,0-.17.53s0,0,0,.08a1.09,1.09,0,0,0-.17.13s0,0,0,0a1.38,1.38,0,0,0-.27.23,37.36,37.36,0,0,0-5.26,5.49l-.46.57a.93.93,0,0,1-.13.15,7.38,7.38,0,0,1-.65.73l-.17.15c-.38.34-.77.69-1.18,1-.23.15-.46.31-.73.46-.57.55-1.14,1.07-1.72,1.58-.3.27-.15.38.08.48a36.66,36.66,0,0,0-3.41,3.89c-1,1.09-2,1.64-3.51,3.3-2.44,1.77-4.2,4.12-6.41,6.06a6.09,6.09,0,0,0-.66.69,2.24,2.24,0,0,1-1.05.7h0s0,0,0,.06a2.12,2.12,0,0,1-.38.71c-5.23,5.12-10.49,10.23-15.69,15.4-3.3,3.26-6.95,6.26-10,9.76a7.89,7.89,0,0,1-.59,1,2.42,2.42,0,0,1-.38,0c-.61.92,2-1.62,1-1-.3.31-3.64,3.91-4,4.22l-.2.28c10.21-8.5.39-2.41.31-2.31-.5.89-2,.86-2,1.79,0,16.17,0,40.06-.06,56.24,0,.73.08,1.84.06,2.62s1.12-2.91.23-2.56a2,2,0,0,1-1.36,0c.18.28.33.57.48.85a4.18,4.18,0,0,0,.65.37c1-.33,1.47-1.32,2.46-1.7a1.18,1.18,0,0,1,.27,0c.19-.06,2.38,1.82,2.53,1.72l-1.18-3.26a1.11,1.11,0,0,1,.34-.18,1.8,1.8,0,0,1-.19.63c.08,0,.15-.13.23-.19s1.77,1.34,1.83,1.28-1.35-1.7-1.22-1.81a1,1,0,0,1,.21-.19c.13-.12.29-.23.42-.36s-.38.09-.31-.23c-1,.63,4.41-4.81,4.41-4a.18.18,0,0,1,0,.1l-1,.86c-.15.15-.33.28-.48.43l-.49.44a7.08,7.08,0,0,0-2.45,2.18,5.7,5.7,0,0,0,.82-.23c1.59-1.49,6.26-5.89,6.51-6.08,10.06-9.54,20-19.17,30.54-28.3,3.09-2.67,6.12-5.4,9.06-8.18,4.86-4.63,9.82-9.15,15.14-13.35.19-.38.4-.74.61-1.1a12.48,12.48,0,0,1,1.68-2.06,13.61,13.61,0,0,1,1.92-2c.6-.44,1.22-.88,1.85-1.32,0,0,0,0,0,0a1.84,1.84,0,0,1,.58-.65c.64-.72,1.29-1.45,2-2.17a75.08,75.08,0,0,1,5.38-6.41c.4-.67.8-1.3,1.16-1.85.67-1,1.33-2,2-3,0,0,0,0,0-.06.27-.38.55-.78.8-1.18s.55-.78.82-1.19.69-1,1-1.44l0,0,.63-.86c.78-1,1.58-2.06,2.4-3,1.28-1.53,2.59-3,3.89-4.5-.9.82,1.72-1.87,2.12-2.37,1.08-1.35,2.13-2.72,3.18-4.1,3.43-4.53,7.69-8.71,11.12-13.21,2.59-3.38,4-6.43,7.19-10.26a13,13,0,0,1,2.27-1.94,5.29,5.29,0,0,1,.32-.5,11,11,0,0,1,1.83-2.17c.11-.17.21-.37.34-.54a18,18,0,0,1,3.49-4.52l0,0c.14-.24.27-.47.42-.7l1.32-1.95c.21-.34.44-.68.66-1l3.17-4.88c4.52-7,8.89-14.14,13.54-21.1l.25-.35.91-1.33c.12-.17.25-.35.36-.52v0a11.11,11.11,0,0,0,.35-1.16,1.13,1.13,0,0,1,.44,0c.21-.29.41-.59.64-.9.59-.85,1.19-1.71,1.8-2.55q1.54-2.11,3.1-4.18a31.47,31.47,0,0,1,2.12-2.46,17.44,17.44,0,0,1,1.43-2.32c.31-.63.59-1.28.92-1.91.51-1,1.06-2,1.62-3,.28-.52.57-1,.85-1.51s.56-1,.84-1.48c1-1.76,2-3.51,3-5.27.11-.21.21-.36.3-.51v0c.1-.14.15-.25.21-.34a.42.42,0,0,0,.08-.12.65.65,0,0,1,.09-.11h0a0,0,0,0,1,0,0,.34.34,0,0,1,0,.1.2.2,0,0,1,0,.11,4.89,4.89,0,0,1,.38-.59s0,0,0,0l.11-.29q.15-.32.27-.63c.06-.17.13-.32.19-.5l0-.05c.07-.21.17-.42.25-.61.3-.79.59-1.43.74-1.74s.25-.42.38-.63c0,0,0-.07,0-.11a.93.93,0,0,1,.13-.15c.21-.37.44-.75.67-1.11s.42-.69.65-1a17.58,17.58,0,0,1,2.69-4.37l0,0c.13-.36.26-.72.42-1.08a.06.06,0,0,1,0,0c.1-.29.21-.57.33-.86a.34.34,0,0,0,.07-.15c.33-.78.67-1.57,1-2.33A20.51,20.51,0,0,0,825.42,594.39ZM702.36,700.14c0-.09,0-.26,0-.43C702.43,699.8,702.47,699.93,702.36,700.14Zm-21.72,21.21c-.38.38-.77.74-1.13,1.12A4.46,4.46,0,0,1,680.64,721.35Zm48.56,10.43a.93.93,0,0,0-.34-.44,1.06,1.06,0,0,0,.65-.19Zm39.89-100.72c-.24.23-.51.48-.76.74H768l-.36-.08a2.66,2.66,0,0,0,.55-.23,4.78,4.78,0,0,0,1-.53A.18.18,0,0,0,769.09,631.06Zm45.77-16.59a1.07,1.07,0,0,1-.16.25,1.06,1.06,0,0,0,0-.25l-.09,0a.3.3,0,0,1-.12-.36.26.26,0,0,1,.12-.19c0,.19.06.36.09.53a1.46,1.46,0,0,0,.29-.17ZM823,601.14a5,5,0,0,0-.4.58c.3-.69.61-1.36.93-2A2.27,2.27,0,0,1,823,601.14Z"/><path d="M734.73,723.13h0Z"/><path class="cls-22" d="M680.64,721.36l-1.13,1.11A4.12,4.12,0,0,1,680.64,721.36Z"/><path class="cls-23" d="M802.39,635.6c-.27.38-.54.76-.79,1.14a11.11,11.11,0,0,0,.35-1.16A1.13,1.13,0,0,1,802.39,635.6Z"/><path class="cls-23" d="M814.68,614.43v0l-.09,0a.3.3,0,0,1-.12-.36,1,1,0,0,1,.12-.19C814.63,614.09,814.65,614.26,814.68,614.43Z"/><path class="cls-4" d="M705.25,695.33l.48-.42.19.15c0,.28-.16.42-.47.44Z"/><path class="cls-10" d="M722.44,678.9a.49.49,0,0,1-.5.43h0A.5.5,0,0,1,722.44,678.9Z"/><path class="cls-24" d="M512,640.15c2.58,3.32,6.23,6.54,8.65,9.23,17.61,18.8,35.21,34.37,55.25,50.48,1.82,1.62,3.64,3.76,5.46,5.38,12.75,9.66,23.07,19.87,34.6,30.61,12.75,11.28,24.28,23.63,31,38.13,4.25,8.6,7.89,17.73,7.88,27.57"/><path class="cls-24" d="M489.17,608.17c.71,1.24,1.44,2.47,2.18,3.7"/><path class="cls-15" d="M525,365.82c0-3.32.1-12.71-.49-17.5.1-.46,2.84,2.39,5,4.73-1.37-2.7-1-5.86-1-8.91q0-36.61,0-73.23a32.51,32.51,0,0,0-.39-7.3,5.32,5.32,0,0,0-.66-1.48,2.5,2.5,0,0,0-1.23-.92,4.85,4.85,0,0,0-2.57,1.11,8,8,0,0,0-1,.83c-1.51,1.35-2.8,3-4.71,3.83a9.23,9.23,0,0,0-1,.74,133.29,133.29,0,0,1-12.73,9.12,7.25,7.25,0,0,0-1,.71,14,14,0,0,1-2.91,2.17,9.77,9.77,0,0,0-1,.71,12.43,12.43,0,0,1-2.87,2.11,7.3,7.3,0,0,0-1,.71,12,12,0,0,1-2.93,2.1,8.7,8.7,0,0,0-1,.73,35,35,0,0,1-6.2,4.23c-8.11,4.93-15.33,11.06-23.29,16.19-2.34,1.51-4.58,2.79-7.26.84-4.84-3.53-10.35-6-15.15-9.65a2.54,2.54,0,0,1-1.9-1,23.65,23.65,0,0,1-4.43-2c-6.06-2.73-10.52-5.09-15.18-9.73l-2.31-2a96.77,96.77,0,0,0-11.08-7.22c-1.35-.82-2.51-2.88-4.44-1.86-1.66.88-.83,2.79-.83,4.23q0,64.32.05,128.62a75.48,75.48,0,0,0,.9,8.18h-.07c.71.95,2.07.12,2.81,1h0c4.45,2.41,8.87,4.88,13.76,6.39,5.87,2.14,11.79,4.16,17.31,7.1a8.8,8.8,0,0,0,1.24.47A86.14,86.14,0,0,1,447.31,434a9.59,9.59,0,0,0,1.16.45c2.09.79,4.25,1.36,6.31,2.19.37.16.74.32,1.13.45.56.24,1.12.49,1.7.69a9.61,9.61,0,0,0,1.19.36c2,.18,3.59,1.37,5.34,2.17,8.24,2.86,16.51,5.64,24.65,8.79,10.74,4.14,21.91,7.15,32.53,11.61,5.43.56,6.73-.47,7.07-5.69.11-1.68.06-3.36.06-5C528.45,421.8,525.07,394,525,365.82Z"/><path class="cls-25" d="M677.66,199.61l-.66-.55A1.2,1.2,0,0,1,677.66,199.61Z"/><path class="cls-25" d="M680.43,201.5l-.67-.63Z"/><path class="cls-25" d="M686.89,206.14l-.69-.67Z"/><path class="cls-25" d="M690.55,208.84l-.66-.63Z"/><path class="cls-26" d="M399.25,414l-.87-.92Z"/><path class="cls-26" d="M400.23,414.87a3.4,3.4,0,0,1,2.74,1"/><path class="cls-3" d="M400.75,418.08l-.68.11a2.79,2.79,0,0,1,.14-.65c0-.08.23-.08.35-.11Z"/><path class="cls-27" d="M769.26,763.62C751,771.11,733.43,780,715.57,788.38S679.87,805.19,662.2,814c-5.16,2.55-9.52,2.67-14.78.26q-49.18-22.56-97.9-46.1-46-22.22-92-44.51a9.47,9.47,0,0,0-1.76-.45c-3.87-1.66-7.93-2.92-11.32-5.52l0,0c-5.48-2-10.52-5-15.83-7.39l.06,0c-5.42-2.16-10.67-4.7-15.85-7.37l.06,0c-11.26-3.94-11.26-3.94-11.26-15.57,0-34.58-.3-69.17.1-103.76.31-26,.25-52,.39-78,0-1.76-.65-3.93,1.42-5s3.81.51,5.43,1.62c1,.69,1.83,1.64,2.82,2.39l-.05,0c1,.59,2.13.93,2.73,2l-.09-.09a1.3,1.3,0,0,1,1.1.89l-.06,0a13.38,13.38,0,0,1,3.76,2.83l-.07,0A11.07,11.07,0,0,1,423,513l-.06,0a60.35,60.35,0,0,1,11.2,8.31l-.06-.07c3.31,2.25,6.85,4.1,10.32,6.09a7,7,0,0,1,1,.73c2.5,2.27,5.38,4.05,8.05,6.11a3.63,3.63,0,0,0,4.65.34,8.88,8.88,0,0,1,1-.67,10.61,10.61,0,0,0,3-2.17,7.45,7.45,0,0,1,1-.74c6.56-4.79,13.31-9.33,19.39-14.76,5.72-4.18,11.28-8.6,17.34-12.31,5.26-3.22,7.26-2.19,7.29,4,.11,23.58-.4,47.18.19,70.74.43,17,.83,34,.77,50.94,0,3.67,1.62,6.43,3.9,9,25.25,28.79,49.27,58.61,74.56,87.36,20.92,23.77,41.61,47.74,63.07,71.05,4.37,4.75,4.66,4.82,9,.19,7.94-8.58,15.69-17.31,23.51-26C696.62,755,711.21,739,725.51,722.71c3.65-4.15,7.5-8.14,11-12.45,12.08-12.88,23.32-26.49,35.11-39.6,8.83-9.81,17-20.13,25.9-29.91a17.68,17.68,0,0,0,5-12.73c-.22-39.48-.14-79-.08-118.46,0-2.46-1.17-5.72,1.71-7.11s5.12,1.36,7.33,2.86c3.56,2.42,6.82,5.25,10.49,7.53.41.23.84.46,1.27.66a7.86,7.86,0,0,1,1.14.77l.52.43a8.06,8.06,0,0,0,2,1.6,9.06,9.06,0,0,1,1,.72,27.66,27.66,0,0,0,5.5,3.9,7.09,7.09,0,0,1,1,.7c3.15,3,7.4,4.62,10.51,7.71a2.65,2.65,0,0,1,.41,1.16c6.72,6.46,7.38,6.67,14.59,1.44,12.83-9.32,25.47-18.88,38.28-28.23,2-1.46,4.33-4.23,6.69-3.07s1,4.49,1,6.84q.36,93.67.65,187.34c0,3.11-1.08,4.56-3.83,5.87-9.6,4.53-19,9.37-28.55,14.1h0c-11,5.68-21.94,11.29-33.51,15.67l.09,0c-9,5-18.5,8.86-27.91,13l.08,0c-5.3,2.45-10.34,5.45-15.9,7.36l.1,0c-4,1.93-7.87,4.15-12.08,5.64l0,0A162.35,162.35,0,0,1,769.26,763.62Z"/><path class="cls-28" d="M874.46,429.59A6.77,6.77,0,0,1,879,428C877.93,429.87,876.17,429.66,874.46,429.59Z"/><path class="cls-28" d="M898.53,421.36c.62-.92,1.57-.82,2.49-.78A2.8,2.8,0,0,1,898.53,421.36Z"/><path class="cls-28" d="M882,426.9c.63-.92,1.57-.87,2.52-.8Z"/><path class="cls-28" d="M850.58,437.87l1.75-.79Z"/><path class="cls-28" d="M880,427.77l1.73-.75Z"/><path class="cls-28" d="M888.21,425l1.74-.67Z"/><path class="cls-28" d="M891.06,424.06l1.65-.65Z"/><path class="cls-28" d="M893.79,423.14l1.7-.69Z"/><path class="cls-28" d="M896.58,422.24l1.68-.72Z"/><path class="cls-28" d="M828.63,445.26l1.57-.64Z"/><path class="cls-28" d="M831.25,444.29l1.73-.65Z"/><path class="cls-28" d="M835.94,442.47l1.64-.64Z"/><path class="cls-28" d="M857.88,435.07l1.74-.63Z"/><path class="cls-28" d="M842.34,440.59,844,440Z"/><path class="cls-28" d="M848,438.8l1.59-.71Z"/><path class="cls-28" d="M852.51,437l1.62-.69Z"/><path class="cls-28" d="M856.1,436l.79-.62Z"/><path class="cls-28" d="M885.48,425.92l.82-.59Z"/><path class="cls-28" d="M860.76,434.16l.7-.47A1.21,1.21,0,0,1,860.76,434.16Z"/><path class="cls-28" d="M826.64,446.1l.83-.57C827.2,445.73,826.92,445.91,826.64,446.1Z"/><path class="cls-28" d="M834,443.35l.79-.54Z"/><path class="cls-28" d="M839.48,441.49c.28-.19.57-.37.86-.55C840.05,441.12,839.76,441.3,839.48,441.49Z"/><path class="cls-28" d="M845.06,439.61l.74-.42A.92.92,0,0,1,845.06,439.61Z"/><path class="cls-27" d="M656.61,367.15c0-3.8.24-7.59.56-11.4.44-5.28.65-10.66-1.24-15.78-.1-.28-.2-.54-.32-.82-.08-.1-.16-.22-.24-.31a6.56,6.56,0,0,0-.62-.67,14.16,14.16,0,0,1-1.42-.38,3,3,0,0,1-1.71-1.43,2.38,2.38,0,0,1-.51-.37,2.53,2.53,0,0,1-1.46-1.16,2.57,2.57,0,0,1-1.19-1.33c-3.87-2.66-7.8-5.25-11.67-7.91-23.15-15.93-47-30.74-70.41-46.37-3.56-1.67-6.69-4-10-6.19-.61-.4-1.22-.78-1.83-1.19a69,69,0,0,1-6.42-3.5c-2.07-1.19-4.08-2.64-6.25-3.63l-.6-.27c-.19,0-.38-.09-.58-.12h0l-.26-.25a16.46,16.46,0,0,1-4.56-2.64,1.49,1.49,0,0,1-.27-.23,2.5,2.5,0,0,1-.85-.51c-1.57-.67-3.09-1.61-4.75-1.61a3,3,0,0,1-.88-.13l-.25,0a3.42,3.42,0,0,1-.46,0c-.12,0-.23.07-.35.09h.12a5,5,0,0,0-.85.21,7.83,7.83,0,0,0-1,.59c-.56.49-1.05,1-1.58,1.56a8.13,8.13,0,0,1-1.38,1.08c-.09,2.42-.22,4.85-.22,7.27,0,24.72.14,49.43,0,74.14,0,5.62-.76,11.23,5.66,14.12,28.58,19,57.25,38,85.7,57.23,9.71,6.57,19.82,12.59,29.26,19.55.43.15.86.29,1.27.47a23.31,23.31,0,0,1,2.59,1.43c1.76,1.11,3.38,2.42,5.18,3.47.78.45,1.59.88,2.4,1.29a12.22,12.22,0,0,0,1.36-1.86,1,1,0,0,1,.12-.17c1.32-4-.22-7.86-.2-11.81C656.68,407.45,656.61,387.29,656.61,367.15Z"/><path class="cls-25" d="M494,283.53a4.89,4.89,0,0,1-3.68,2.78"/><path class="cls-26" d="M456.33,437l-1.88-.91Z"/><path class="cls-6" d="M654.06,186.33c-.2-.34-.32-.56-.42-.71a3.59,3.59,0,0,1-.47.12l-.09,0a2.5,2.5,0,0,1-.39.34,6.43,6.43,0,0,1-.82.74,55.13,55.13,0,0,1-5.33,3.23,37,37,0,0,1-4.23,3.07,5.45,5.45,0,0,1-1.14.93,4.19,4.19,0,0,1-.79.57c-.36.16-.83.4-1.25.55a5.28,5.28,0,0,1-.94.66,6,6,0,0,1-1.8,1.13,8.85,8.85,0,0,1-1.24,1,3.86,3.86,0,0,1-.54.26,4.83,4.83,0,0,1-.55.3,154.64,154.64,0,0,1-14.39,10.4A5.07,5.07,0,0,1,618.3,210c-.07.07-.13.16-.2.22a9.13,9.13,0,0,1-1.5,1.14c-.21.11-.43.2-.65.29l-.17.09a3.5,3.5,0,0,1-1.42.94.83.83,0,0,1-.15.11,3.2,3.2,0,0,1-.69.35,2.53,2.53,0,0,1-.37.18,2.26,2.26,0,0,1-.42.26,5.37,5.37,0,0,1-1,.45,107.36,107.36,0,0,0-10.09,7.13l-.07.05-.87.43-.22.15a5.82,5.82,0,0,1-1,.76l-.21.11a4,4,0,0,0-.34.38l0,0c-1.5.53-2.51,1.73-3.71,2.67-.3.18-.61.34-.92.51a6.08,6.08,0,0,1-1.06.85l-.4.2c-.1.11-.21.2-.3.32a1.81,1.81,0,0,0-1,.8l0,0c-1.39,1.13-3.28,1.45-4.49,2.85l0,0a11.78,11.78,0,0,0-2.78,1.68l-1.93,1.11a9.86,9.86,0,0,0-3,2.4c-3.85,3.83-4,7.7-.38,11a7.82,7.82,0,0,0,3.36,1.91l.21,0,.13,0,.6-.11c.41-.08.82-.19,1.23-.31l.63-.21.17-.07c.36-.17.72-.33,1.06-.53s.77-.46,1.14-.72l.32-.23.1-.08.26-.23a3.5,3.5,0,0,1,.72-.46,2.54,2.54,0,0,1,.6-.53,1.07,1.07,0,0,0,.14-.16c16.78-13.12,34.86-24.39,52.24-36.66,3.18-3.5,7.7-5,11.42-7.7C655.49,199.31,655.31,189.94,654.06,186.33Z"/><path class="cls-28" d="M859.5,300.05a2.51,2.51,0,0,1-2.45,1.8A2.78,2.78,0,0,1,859.5,300.05Z"/><path class="cls-25" d="M718.12,227.27l-1.59-.7Z"/><path class="cls-25" d="M592.48,227.59l-1.06.81Z"/><path class="cls-25" d="M719,228.14l-.64-.62A1.42,1.42,0,0,1,719,228.14Z"/><path class="cls-25" d="M720.88,229.1l-.73-.65Z"/><path class="cls-25" d="M721.8,230l-.64-.62A1.29,1.29,0,0,1,721.8,230Z"/><path class="cls-25" d="M722.69,230.85a.62.62,0,0,1-.59-.55A1.21,1.21,0,0,1,722.69,230.85Z"/><path class="cls-28" d="M860.53,299.2l-.73.64Z"/><path class="cls-28" d="M861.48,298.28l-.76.74Z"/><path class="cls-25" d="M793.54,267.79l-.81-.78Z"/><path class="cls-29" d="M674.09,347.85c-1.24-.3-2.49-.6-3.71-.91,0,.05.12.09.18.14l-.24-.09s0,0,0-.06v0a.11.11,0,0,1,0,0C671.88,345.93,672.9,347.22,674.09,347.85Z"/><path class="cls-28" d="M745.73,380.92l-1.59.92Z"/><path class="cls-28" d="M758.6,371.73l-1.68.95Z"/><path class="cls-28" d="M761.37,369.9l-1.77.9Z"/><path class="cls-28" d="M784.26,459.38l-1.81.53Z"/><path class="cls-28" d="M764.11,368.07l-1.72.91Z"/><path class="cls-28" d="M767.78,365.35l-1.57.91Z"/><path class="cls-28" d="M777.89,359.75l-1.8,0C776.7,359,777.3,358.84,777.89,359.75Z"/><path class="cls-28" d="M737.46,386.48l-1.65.93Z"/><path class="cls-28" d="M779.72,459.07l-.79-1Z"/><path class="cls-28" d="M766,366.43l-.8.68Z"/><path class="cls-28" d="M768.68,364.59l-.8.67Z"/><path class="cls-28" d="M770.55,363.62l-.91.7Z"/><path class="cls-28" d="M771.43,362.8l-.69.63Z"/><path class="cls-28" d="M773.28,361.71l-.9.75Z"/><path class="cls-28" d="M774.2,360.84l-.77.73Z"/><path class="cls-28" d="M775.09,360.1a1.25,1.25,0,0,1-.67.55Z"/><path class="cls-28" d="M779.82,460c0-.28-.05-.57-.07-.86l1,.78-.13.15A.51.51,0,0,1,779.82,460Z"/><path class="cls-28" d="M734.72,388.28l-1,.85Z"/><path class="cls-28" d="M735.67,387.5l-.93.75Z"/><path class="cls-28" d="M738.39,385.72l-.84.68Z"/><path class="cls-28" d="M739.21,385a1.5,1.5,0,0,1-.57.49A.5.5,0,0,1,739.21,385Z"/><path class="cls-28" d="M765,367.23l-.87.79Z"/><path class="cls-28" d="M741.05,384a1.12,1.12,0,0,1-.61.5A.59.59,0,0,1,741.05,384Z"/><path class="cls-28" d="M743.92,382c0,.25,0,.49.05.73l-.09.07a5.32,5.32,0,0,1-.8-.12Z"/><path class="cls-28" d="M746.68,380.12l-.91.76Z"/><path class="cls-28" d="M747.61,379.29l-.79.71Z"/><path class="cls-28" d="M748.46,378.47a1.76,1.76,0,0,1-.65.62Z"/><path class="cls-28" d="M750.36,377.32l-1,.81Z"/><path class="cls-28" d="M751.24,376.49l-.81.76Z"/><path class="cls-28" d="M753.08,375.5l-1,.76Z"/><path class="cls-28" d="M754,374.69l-.76.68Z"/><path class="cls-28" d="M755.84,373.58l-1,.83Z"/><path class="cls-28" d="M756.79,372.76l-.9.77Z"/><path class="cls-28" d="M759.53,370.86l-.88.84Z"/><path class="cls-28" d="M762.3,369.05l-.89.82Z"/><path class="cls-15" d="M653.1,201.3c.92-4.52-.36-11.13.56-15.66,17.58,10.26,35.78,24.94,52.69,36.18,6.73,4.47,13.32,9.19,19.92,13.86,1.86,1.31,4.12,2.63,4.58,4.92s1.14,5.45-1.33,7.24-5.23,1-7.62-.78c-14.43-11.09-30.19-20.22-45-30.68-6.62-4.66-13.61-8.78-19.9-13.91C655.76,201.5,654.45,201.48,653.1,201.3Z"/><path class="cls-25" d="M672.09,230.16l-.5-.42A.9.9,0,0,1,672.09,230.16Z"/><path class="cls-25" d="M674.17,231.58l-.51-.48Z"/><path class="cls-25" d="M679,235.06l-.52-.5Z"/><path class="cls-25" d="M681.76,237.08l-.49-.47Z"/><path class="cls-6" d="M654.37,220.18c-.15-.25-.24-.41-.32-.53a2,2,0,0,1-.35.09l-.07,0a2.43,2.43,0,0,1-.29.26,5.15,5.15,0,0,1-.61.55,42.66,42.66,0,0,1-4,2.42,26.46,26.46,0,0,1-3.17,2.31,3.89,3.89,0,0,1-.86.69,3.19,3.19,0,0,1-.59.43c-.27.12-.62.3-.94.41a3.87,3.87,0,0,1-.7.5,4.46,4.46,0,0,1-1.36.85,7,7,0,0,1-.92.71,3.11,3.11,0,0,1-.41.2c-.14.08-.26.16-.41.23a117.9,117.9,0,0,1-10.8,7.8,3.81,3.81,0,0,1-1,.82c0,.05-.09.12-.15.17a6.31,6.31,0,0,1-1.13.85,4.16,4.16,0,0,1-.48.22l-.12.07a2.73,2.73,0,0,1-1.07.7l-.12.09a3.5,3.5,0,0,1-.51.26c-.09.06-.19.09-.28.14a2,2,0,0,1-.31.19,4.66,4.66,0,0,1-.76.34,78.42,78.42,0,0,0-7.58,5.35l-.06,0-.65.32-.16.11a3.9,3.9,0,0,1-.78.57l-.15.09a2.33,2.33,0,0,0-.26.28l0,0a10.39,10.39,0,0,0-2.78,2l-.69.38a4.88,4.88,0,0,1-.8.64l-.29.15a2.61,2.61,0,0,0-.23.24,1.32,1.32,0,0,0-.77.6l0,0c-1,.84-2.46,1.08-3.37,2.13l0,0a9.09,9.09,0,0,0-2.09,1.26l-1.45.83a7.16,7.16,0,0,0-2.25,1.81c-2.9,2.87-3,5.77-.29,8.21a5.84,5.84,0,0,0,2.52,1.44h.16l.1,0,.44-.08c.32-.07.62-.15.93-.24l.47-.16.13-.05c.27-.12.54-.25.79-.39s.58-.35.86-.54l.24-.18.07-.06.21-.17a3.46,3.46,0,0,1,.53-.35,1.94,1.94,0,0,1,.46-.39l.1-.12c12.59-9.86,26.17-18.31,39.21-27.52,2.39-2.63,5.79-3.76,8.58-5.78C655.44,229.93,655.31,222.9,654.37,220.18Z"/><path class="cls-15" d="M653.65,231.43c.69-3.4-.27-8.36.42-11.76,13.2,7.7,26.86,18.72,39.55,27.16,5.06,3.36,10,6.9,15,10.4,1.39,1,3.09,2,3.44,3.69s.86,4.1-1,5.44-3.93.79-5.72-.58c-10.83-8.33-22.67-15.18-33.82-23-5-3.49-10.22-6.58-14.94-10.44A5.18,5.18,0,0,0,653.65,231.43Z"/><path class="cls-30" d="M496.85,453.68c-2.15.79-3.47,2.27-5.14,1a1.29,1.29,0,0,1,.19-2C493.54,451.29,494.84,452.48,496.85,453.68Z"/><path class="cls-30" d="M480.05,446.38c.18.23.61.54.63.86a.91.91,0,0,1-1.11,1,1.31,1.31,0,0,1-.82-.89C478.65,446.64,479.19,446.38,480.05,446.38Z"/><path class="cls-30" d="M497.45,457.5a3,3,0,0,1,.41.49c0,.05-.13.29-.2.29a3.88,3.88,0,0,1-.64-.14Z"/><path class="cls-31" d="M408.69,423.59l-.09.27c-.1,0-.23-.05-.29-.12s.05-.18.08-.27Z"/><path class="cls-31" d="M419.5,423.24l.94.89Z"/><path class="cls-31" d="M410.3,419.57l.95.88Z"/><path class="cls-6" d="M780.25,422.56c0-3.25.83-7.41-2.4-9.26s-5.55,1.61-7.93,3.27q-43.35,30.36-86.59,60.92l-.33.16a35.53,35.53,0,0,0-2.48,1.79,7.17,7.17,0,0,1-.63.45c-1.11.7-2.25,1.33-3.34,2a23,23,0,0,0-2.78,2.33,13,13,0,0,1-3.45,1.94c-2.61,1.19-4.85,3.26-7.17,4.91a35.67,35.67,0,0,1-7.25,4.14,1.91,1.91,0,0,1-.85.14,4.91,4.91,0,0,1-3.82-1.26c-1-.78-2-1.53-3.08-2.27s-2.24-1.31-3.35-2l-.79-.5a2.38,2.38,0,0,1-.9-.35l-2.2-1.49a3.6,3.6,0,0,1-.57-.26,72.63,72.63,0,0,1-6.14-4.3c-1.53-1-3.07-2.05-4.62-3-2.28-1.44-4.64-2.76-6.91-4.21a26.28,26.28,0,0,1-3.19-2.26c-.29-.26-.56-.53-.84-.79a4,4,0,0,1-1.14-.47C590.3,453,563,433.93,535.33,415.56c-2.23-1.48-7.11-6.41-9.37-5.05-2.67,1.6,1.3,6.94,1.31,10.07q.11,68.32.36,136.66c0,8.14,0,8.22,6.88,4.44.53-.3,1.07-.59,1.58-.92,17.42-11.12,34.49-22.84,51.46-34.72,1.55-1.08,3.21-3.39,5-2.35,1.56.91.64,3.56.65,5.42q.1,44.43.06,88.86c0,3.25.77,5.42,3.54,7,17.65,10.34,35.31,20.67,52.78,31.34,3.92,2.39,6.91,2.31,10.69-.06q24.9-15.57,50.06-30.62c3.2-1.91,4.4-3.94,4.37-7.87-.23-30.42-.26-60.84-.31-91.27,0-1.69-.86-4,.65-5,1.82-1.16,3.26,1.05,4.66,2C738.11,536.66,757.08,548.74,776,561c2.75,1.79,4.78,3.16,4.76-2.26C780.51,513.35,780.45,468,780.25,422.56Z"/><path class="cls-32" d="M664.06,471l-1-.52c.24-.13.5-.38.72-.35a4.39,4.39,0,0,1,1.11.41Z"/><path class="cls-33" d="M779.82,460a7.35,7.35,0,0,1,.82.07,7.35,7.35,0,0,1,.07.82Z"/><path class="cls-34" d="M655.37,338.84a6.56,6.56,0,0,0-.62-.67,13.74,13.74,0,0,1-1.4-.37h-1l1.51,1.07a8.82,8.82,0,0,1,2.09,1.09c-.1-.28-.2-.54-.32-.82C655.53,339.05,655.45,338.93,655.37,338.84Z"/><path class="cls-33" d="M670.56,347.08c-.06-.05-.13-.09-.18-.14"/><path class="cls-2" d="M903,277.8c0-1.92.73-4.52-1.19-5.51-1.66-.86-3.34,1.08-4.77,2.14-14.59,10.87-29.17,21.75-43.63,32.78-2.29,1.74-4.19,2.22-6.6.63-6.88-4.51-13.85-8.88-20.19-14.19-14.6-10-29.4-19.8-43.74-30.21-5.41-3.92-9.85-4.74-14.84-.1-2.13,1.47-2.64,1.11-3.88,1.93-9.81,6.37-17.87,14.61-27.62,21.05a4.31,4.31,0,0,1-1.34.53,2.76,2.76,0,0,1-.68.53,66.74,66.74,0,0,0-3.27,2.19c-4.33,3.76-9.3,6.69-14,10-8.72,6.18-17.72,12-26.6,17.91-1.67,2.24-.73,1-6.52,4.61h0a2.55,2.55,0,0,1-2.17,1.46c-3.2,3-7.24,5-10.85,7.49a2.57,2.57,0,0,1-1.21,1.45,10.66,10.66,0,0,0-1.42.85c-.17.11-.34.24-.5.36l-.3.23c-.84.7-1.65,1.42-2.5,2.11a19.83,19.83,0,0,1-3.17,2.22,11.34,11.34,0,0,1-4.24,1.28,2.75,2.75,0,0,1-2-.84,1.9,1.9,0,0,1-.34-.41l-.29,0-.33-.07a6.56,6.56,0,0,1,.62.67c.08.09.16.21.24.31.12.28.22.54.32.82,1.89,5.12,1.68,10.5,1.24,15.78-.32,3.81-.56,7.6-.56,11.4,0,20.14.07,40.3-.06,60.43,0,3.95.12,8,.2,11.81,0,.05-1.07,2-1.1,2.1,2.86-1.16,6.33-4.82,8.42-7.12,15.92-9.63,31-20.46,46.14-31.26h0l0,0a3.3,3.3,0,0,1,1.88-1.72c-.3.13.62-.31.72-.37.38-.2.75-.42,1.12-.64.74-.44,1.47-.92,2.2-1.39,1.49-.95,3-1.85,4.47-2.84,3-2,5.88-4.23,8.84-6.32a2.28,2.28,0,0,1,1.29-.4c2.86-2.28,5.71-4.57,8.57-6.84,11.22-7.67,22.48-15.28,33.66-23,1.79-1.24,3.74-2.95,5.7-2.27,2.26.78,1.26,3.49,1.28,5.34.21,28.78.21,57.56.55,86.34.11,10.28-1.39,10.74,9.58,7.1,35.41-11.73,70.64-24,106-35.72,5.59-1.85,7.14-4.66,7.11-10.23C903,366,903.05,321.88,903,277.8Z"/><path class="cls-26" d="M563.81,278l-.91-.87Z"/><path class="cls-26" d="M555.73,273.2a2.54,2.54,0,0,1-.17-.71l.89.78h-.36Z"/><path class="cls-26" d="M764.2,263.2l.78-.78Z"/><path class="cls-35" d="M190.53,883.28l42.87,66.83,43-66.83a6.91,6.91,0,0,1,6.14-3.49c4.09,0,6.74,1.8,6.74,4.93a6.72,6.72,0,0,1-1.44,3.86l-47.69,72.49a8.13,8.13,0,0,1-13,0l-47.93-72.61a5.87,5.87,0,0,1-1.33-3.74c0-3.13,2.53-4.93,6.63-4.93A7,7,0,0,1,190.53,883.28Z"/><path class="cls-35" d="M313.85,896c-4.7,0-7-1.92-7-5.78s2.29-5.78,7-5.78,7,1.93,7,5.78S318.42,896,313.85,896Zm-6.39,13.61c0-3.25,2.17-5.06,6.39-5.06s6.38,1.81,6.38,5.06v49.62c0,3.37-2.17,5.05-6.38,5.05s-6.39-1.68-6.39-5.05Z"/><path class="cls-35" d="M420.78,950.23c0,9-9.15,13.49-27.46,13.49h-47c-3.85,0-6-1.56-6-4.69s2.17-4.7,6-4.7h47c9.88,0,14.82-1.45,14.82-4.1v-6.74c0-2.77-4.94-4.09-14.82-4.09h-24.8c-18.43,0-27.46-4.34-27.46-13.13v-5.66c0-10.23,9.39-15.41,28.3-15.41h16.5c4,0,6.14,1.68,6.14,4.81s-2.29,4.7-6.14,4.7h-16.5c-10.48,0-15.77,1.93-15.77,5.9v5.3c0,3.25,5.29,4.94,15.65,4.94h24.81q26.73,0,26.73,12.28Z"/><path class="cls-35" d="M448.24,896c-4.69,0-7-1.92-7-5.78s2.29-5.78,7-5.78,7,1.93,7,5.78S452.82,896,448.24,896Zm-6.38,13.61c0-3.25,2.17-5.06,6.38-5.06s6.38,1.81,6.38,5.06v49.62c0,3.37-2.16,5.05-6.38,5.05s-6.38-1.68-6.38-5.05Z"/><path class="cls-35" d="M508.33,963.72c-20.83,0-31.19-6.38-31.19-19V924.34c0-12.76,10.36-19.14,31.19-19.14h23.24c20.84,0,31.19,6.38,31.19,19.14V944.7c0,12.64-10.35,19-31.19,19Zm41.55-39.5c0-6.14-6-9.15-17.94-9.15H507.85c-11.8,0-17.82,3-17.82,9.15v20.6c0,6,6,9.15,17.82,9.15h24.09c11.92,0,17.94-3.13,17.94-9.15Z"/><path class="cls-35" d="M657.66,924.34c0-6.26-6-9.27-17.94-9.27H615.63c-11.8,0-17.82,3-17.82,9.27v34.93c0,3.37-2.17,5.05-6.38,5.05s-6.38-1.68-6.38-5.05V924.34q0-19.14,31.06-19.14h23.25q31.07,0,31.06,19.14v34.93c0,3.37-2.16,5.05-6.38,5.05s-6.38-1.68-6.38-5.05Z"/><path class="cls-35" d="M771.71,890.26H738.83c-4,0-6-1.56-6-4.93s2.05-4.94,6-4.94h78.64c4.09,0,6.14,1.69,6.14,4.82q0,5.06-6.14,5H784.71v69c0,3.37-2.17,5.05-6.38,5.05-4.46,0-6.62-1.68-6.62-5.05Z"/><path class="cls-35" d="M843.12,938.43v7.35c0,5.66,5.54,8.55,16.74,8.55h17.82c4,0,6,1.56,6,4.7s-2.05,4.69-6,4.69H859.86c-19.51,0-29.39-5.9-29.39-17.82V922.3c0-11.32,8.8-17.1,26.26-17.1h34.8c17.1,0,25.65,5.18,25.65,15.41V934.1c0,2.89-1.93,4.33-5.54,4.33Zm0-8.31h60.45c.72,0,1-.36,1-.84V923c0-5.54-4.58-8.31-14-8.31H857.45c-9.63,0-14.33,2.77-14.33,8.31Z"/><path class="cls-35" d="M967.88,963.72c-20.83,0-31.19-6.38-31.19-19V924.34c0-12.76,10.36-19.14,31.19-19.14h41.67c4.09,0,6.26,1.68,6.26,4.93s-2.17,4.94-6.26,4.94H967.4c-11.8,0-17.82,3-17.82,9.15v20.6c0,6,6,9.15,17.82,9.15h42.15c4.09,0,6.26,1.56,6.26,4.81s-2.17,4.94-6.26,4.94Z"/><path class="cls-35" d="M1109.74,924.1c0-6-5.78-9-17-9h-43.71v44.2c0,3.37-2.17,5.05-6.38,5.05s-6.39-1.68-6.39-5.05V883.16c0-3.25,2.17-5.06,6.39-5.06s6.38,1.81,6.38,5.06v22h42.51q31.07,0,31.07,19.14v34.93c0,3.37-2.17,5.05-6.39,5.05s-6.5-1.68-6.5-5.05Z"/></svg>