<svg id="Layer_1" data-name="Layer 1" xmlns="http://www.w3.org/2000/svg" viewBox="0 0 1280 1280"><defs><style>.cls-1,.cls-2,.cls-3{fill:#fff;}.cls-1,.cls-3{stroke:#000;stroke-miterlimit:10;}.cls-1{stroke-width:4px;}.cls-3{stroke-width:3px;}.cls-4{fill:none;}</style></defs><path class="cls-1" d="M541.79,689.42q-10.47-12.46-21-24.86-7.42-8.7-15-17.32c-2.19-2.5-3.75-5.13-3.73-8.63,0-7.7-.05-15.4-.17-23.1-.7-.39-1.4-.8-2.08-1.2a5.32,5.32,0,0,0-2.27-.95l-.48-.39,0,0a1,1,0,0,1-.91-.4h0l-.47-.4h0a1,1,0,0,1-.91-.41h0l-.47-.39v0a1,1,0,0,1-.92-.41h0l-.46-.39-.47,0h0l-.46-.39h0l-.45-.39-.47,0a2.92,2.92,0,0,1-2.33-1.22h0a1.48,1.48,0,0,1-1.41-.83,1,1,0,0,1-.92-.42h0a1.43,1.43,0,0,1-1.4-.82v0c-.16-.12-.31-.26-.46-.39l-.46,0-.48-.4h0c-.16-.13-.32-.26-.47-.4l-.45,0-.24-.2-.24-.21-.48-.4-.46-.4-.92,0a3.83,3.83,0,0,1-.48-.41,5.71,5.71,0,0,0-.47-.39l-.46,0-.48-.41h0a1,1,0,0,1-.92-.42h0c-.48,0-.86.1-1.13.15a22.47,22.47,0,0,1,2.94,4,9,9,0,0,1,2.73,3.81,8.74,8.74,0,0,1,.84,1.91c.34.39.67.79,1,1.2a28.51,28.51,0,0,1,3.7,6.81c1.45,1.92,2.63,4,4,6a9.85,9.85,0,0,1,1.32,1.69c.27.46.64.88.91,1.34a1686.87,1686.87,0,0,0,2.65,4.69c.18.27.34.54.49.82a15.62,15.62,0,0,1,2.21,3.38,2,2,0,0,1,.33.93,45.68,45.68,0,0,1,2.88,5.45,12.43,12.43,0,0,1,2.56,4.13,38.43,38.43,0,0,1,5,6.87l.55,1,.51.81c.95,1.53,1.79,3.11,2.72,4.65.31.51.66,1,1,1.51a11.35,11.35,0,0,1,1.93,2.27l.09.11c.07.09.14.15.17.19l.72.77c1.73,1.84,3.46,3.67,5.13,5.54.18.19.36.38.53.58s.35.4.53.59.2.25.31.37l.35.39c.83,1,1.59,2,2.27,2.93a48,48,0,0,1,6.25,6.74,13.83,13.83,0,0,1,1.8,3.1,12.35,12.35,0,0,1,2.25,3.31c4.91,5.9,9.84,11.8,14.54,17.82,3.92,5,7.86,10,12.14,14.84a45.37,45.37,0,0,1,4.28,5.39c.17.26.33.53.5.8a8.93,8.93,0,0,1,1.24,2.1,12.9,12.9,0,0,1,4.3,5.42c.47.5.93,1,1.41,1.48.7.75,1.42,1.5,2.13,2.24l0,0a5.35,5.35,0,0,1,2.36,2.42h0c.06.06.13.12.19.19l.65.66.22.21c4.52,4.52,9.2,8.92,14.17,13.07a19,19,0,0,1,3.16,3.34,13.83,13.83,0,0,1,2.18,1.57l2.14,2.44a8.69,8.69,0,0,1,.86,1.47l2.1,1.92c4.45,4,8.55,8.39,13.17,12.3a2,2,0,0,1,.7,1,57.74,57.74,0,0,1,6,5.25c.4.3.81.61,1.22.94.64.53,1.26,1.08,1.85,1.66.75.72,1.46,1.49,2.16,2.28l.07.07,4.92,4.59h0c.3.21.6.42.89.65Zm-13.18-11.76c-.51-.63-1-1.26-1.51-1.9.93.93,1.8,1.92,2.65,2.91A5.11,5.11,0,0,1,528.61,677.66Zm17.18-32.82c-.14-.2-.17-.33-.12-.41-.19.09,0,.34.18.55Zm1.07-.54c-.55-.25-3.55-3.71-3.6-4.31-.15-1.6-2.8-2.37-4.13-3.37a4.85,4.85,0,0,1-1.14-1.3c.15.36.29.83.37,1,1.09,1.75,1.26,2.23,3,3.17-.67.79,2,1.83,2.51,2.51.08.1-.65.92.25.3s1.23,1.3,1.85,2.06C546.66,644.3,547.88,644.77,546.86,644.3Zm-.76.12.2.47c0,.09-.13.14-.37.16a3.55,3.55,0,0,0,.28.25c2.4,2.57,4.78,4.2,6.63,7.13A56.76,56.76,0,0,0,546.1,644.42Zm126.62,75,0,0a6.89,6.89,0,0,0-2.52,1.64,2.62,2.62,0,0,0-.22.25.86.86,0,0,0-.13.14l-.26.36-.09.12a7.81,7.81,0,0,1-1.06,1.24h0a5.49,5.49,0,0,1-.43.4l-.37.33-.84.7-.41.36-.3.27-.19.17-.3.3c-.13.14-.26.27-.38.41-1.58,1.86-3.45,3.52-5.2,5.26l-.09.17a.86.86,0,0,1-.1.16h0l-.11.16h0l-.12.13a3.79,3.79,0,0,1-.37.31h0a2.9,2.9,0,0,1-.52.29l-.06.1h0a2.53,2.53,0,0,1-.18.27h0a1.88,1.88,0,0,1-.22.26,4.24,4.24,0,0,1-.49.46l-.31.22-.19.13-.15.09c-.17.1-.35.19-.53.28a3.82,3.82,0,0,1-.46.21c-.37.17-.74.32-1.11.47.3.19.38.38.25.56,0,0,0,0,0,0l-.08.08a.64.64,0,0,1-.16.11c0,.15,0,.29-.07.43l-.41.37,0,0-.42.37,0,0,0,0-.42.37c-.32.15-.65.31-1,.48a.9.9,0,0,1-.88.35,2,2,0,0,0-1,.89l-.39.36-.07.06c-.14.12-.27.22-.41.35a9.89,9.89,0,0,1-.64.81h0c-.15.17-.3.33-.46.49l0,.06-.06.05c-.15.14-.29.29-.44.42s-.32.29-.49.42c-.88.76-1.85,1.45-2.77,2.17-.26.19-.51.39-.75.59a.77.77,0,0,1-.12.13.47.47,0,0,1-.32.16h-.1a.2.2,0,0,1-.09-.05s-.05,0-.06,0a.76.76,0,0,1-.2-.2c0-.11,0-.2,0-.29v0a.45.45,0,0,1,0-.12,6,6,0,0,1-.48-.4,1.7,1.7,0,0,1-1.52-1l-.09-.13a.53.53,0,0,0-.1-.12.6.6,0,0,0-.08-.08.58.58,0,0,0-.6-.12c-.52.19-.37.65-.42,1a1.28,1.28,0,0,1-.44.19c-.73.18-1.16-.4-1.65-.8.48.46,2.84,3.62,4.44,5.37,0,15.15,0,37.07,0,52.32v.85l0,0c.83-.56.41-1.29.41-1.91q0-24.63,0-49.25c0-.45,0-.9,0-1.35,0-.06,0-.12,0-.18l0-.32h0a.08.08,0,0,1,0,0,.58.58,0,0,1,.14-.35h0a.92.92,0,0,1,.72-.33h.06a33.86,33.86,0,0,1,4-3.58,1.88,1.88,0,0,1,.23-.16c.72-.84,1.48-1.65,2.27-2.43.19-.2.39-.39.59-.59.39-.39.79-.78,1.19-1.15,1.82-1.72,3.69-3.4,5.47-5.15q3.74-3.71,7.49-7.38c2.5-2.44,5-4.88,7.5-7.34l0-.06a1.45,1.45,0,0,0,.17-.26s0,0,0,0l.06-.13a1.42,1.42,0,0,1,.08-.18Z"/><path class="cls-1" d="M637.78,743.12c-30.85-32-63.66-66.16-91.77-98.8-.62-.76-1.09-2.57-1.85-2.06s-.17-.2-.25-.3c-.53-.68-3.18-1.72-2.51-2.51-2.13-1-2.6-2.5-3.7-4.56-1.15-.7-3.51-.91-3.13-2.86-22-5-36.59-33-32.47,6.58,23.59,39.75,107.26,124.35,138,161.52l-.28-.38c.7.51,2.6,3,2.38,1.1C639.82,784.24,647.81,756.47,637.78,743.12Zm-85.49-90.2a15.37,15.37,0,0,0,1.64,2.14,18.4,18.4,0,0,1-2.36-3A2.88,2.88,0,0,1,552.29,652.92Z"/><path class="cls-1" d="M579.83,742.76c-.8-.8-1.58-1.6-2.36-2.41A5.33,5.33,0,0,1,579.83,742.76Z"/><path class="cls-1" d="M625.36,786.25c-.34-.25-.68-.5-1-.73l-.7-.47-.6-.4q-.31-.39-.66-.75l-.33-.35c-.23-.25-.48-.49-.72-.72s-.63-.57-1-.85l-.13-.1c-.23-.2-.45-.39-.7-.57a2.28,2.28,0,0,1-.17-.3A57.65,57.65,0,0,1,625.36,786.25Z"/><path class="cls-1" d="M630.65,791.2c1.65,1.53,3.3,3.06,4.93,4.59-.33-.22-.66-.44-1-.64s-.78-.45-1.18-.65c-.51-.65-1-1.29-1.57-1.93C631.43,792.11,631.05,791.65,630.65,791.2Z"/><path class="cls-1" d="M639.9,743.77a1.28,1.28,0,0,1-.44.19s0,0,0-.06a1.34,1.34,0,0,1,0-.2c0-.58,0-1.18.81-1.3,1.08-.17,1.6.7,2.3,1.22l.34.26.12.13.17.15.17.13,0,0,.19.13a.88.88,0,0,0,.69-.12c1.61-1.53,3.55-2.75,5-4.44a5.49,5.49,0,0,1,.43-.4l.2-.19a4.78,4.78,0,0,1,.39-.39,3.46,3.46,0,0,1,1.1-.81c.32-.14.65-.25,1-.39l.87-.47c.13-.08.26-.16.4-.23a1.58,1.58,0,0,1,.18-.13c.11-.11.23-.2.34-.3a2.09,2.09,0,0,1,.14-.17c.07-.12.16-.24.23-.36l.14-.42a2.44,2.44,0,0,1,.25-1,13.92,13.92,0,0,0,3.42-2.29l.44-.37c.21-.19.43-.39.63-.61a3.64,3.64,0,0,0,.42-.46c3.13-3.75,7-6.93,10.33-10.53a2.67,2.67,0,0,1,2.59-1.06l0,.06a6.64,6.64,0,0,0-3.22,2.51c-1.09,1.64-3,2.66-4.28,4.18-1.58,1.86-3.46,3.52-5.21,5.26a2.49,2.49,0,0,1-1.34,1.23c-.79,1.37-2.28,1.92-3.73,2.51.44.27.41.53,0,.79,0,.15,0,.29-.07.43l-.4.37-.05,0-.42.38-.05,0-.42.37-1,.48a.87.87,0,0,1-.87.35,2,2,0,0,0-1,.89c-.12.12-.26.23-.39.35l-.07.07-.41.35c-1.44,2.06-3.7,3.41-5.66,5-.31.39-.6.39-.89,0,0-.14,0-.28,0-.43-.17-.13-.32-.26-.48-.4a1.7,1.7,0,0,1-1.52-1c-.18-.28-.45-.59-.87-.45S640,743.4,639.9,743.77Z"/><path class="cls-1" d="M666.87,726.37c-.35.35-.71.69-1,1a3.29,3.29,0,0,1,.48-.57,2.43,2.43,0,0,1,.29-.26A1.46,1.46,0,0,1,666.87,726.37Z"/><path class="cls-1" d="M643.83,768.45v5.6a14.32,14.32,0,0,1,0-5.38Z"/><path class="cls-1" d="M643.86,789.6a13.85,13.85,0,0,1-.23-3.86c.22-2.46-.13-4.93.2-7.39C643.83,782.1,643.85,785.86,643.86,789.6Z"/><path class="cls-1" d="M646.47,799.68a1.41,1.41,0,0,1-.18.61l-.55.47h0a1.85,1.85,0,0,1-.67.14A2.53,2.53,0,0,1,646.47,799.68Z"/><path class="cls-1" d="M713,735.89h0Z"/><path class="cls-1" d="M643.54,748.33a3.73,3.73,0,0,1,.05-.41s0,0,.06,0h0C643.76,748.09,643.68,748.22,643.54,748.33Z"/><path class="cls-1" d="M644,672.08c-37-10.53-73.69-25.31-109.41-40.08,30.54,34.45,77.62,85.35,108.44,116.65C645.32,725.63,643.16,693.82,644,672.08Zm-2.26,75.34c0-.11.11.08.25.39C641.81,747.6,641.7,747.45,641.74,747.42Z"/><path class="cls-1" d="M527.09,675.76c.94.93,1.81,1.92,2.66,2.91a4.86,4.86,0,0,1-1.13-1C528.1,677,527.6,676.4,527.09,675.76Z"/><path class="cls-1" d="M477.44,602.19c.23.27.68.17.92.42A1,1,0,0,1,477.44,602.19Z"/><path class="cls-1" d="M484.93,606.33c.43.32.95.53,1.4.83A1.44,1.44,0,0,1,484.93,606.33Z"/><path class="cls-1" d="M486.34,607.16c.24.25.67.17.92.42A1,1,0,0,1,486.34,607.16Z"/><path class="cls-1" d="M487.26,607.58c.45.31,1,.52,1.41.82A1.46,1.46,0,0,1,487.26,607.58Z"/><path class="cls-1" d="M488.68,608.4c.7.52,1.61.75,2.33,1.23A2.89,2.89,0,0,1,488.68,608.4Z"/><path class="cls-1" d="M493.36,610.89c.24.25.67.16.92.41A1,1,0,0,1,493.36,610.89Z"/><path class="cls-1" d="M494.77,611.72c.24.25.67.16.91.41A1,1,0,0,1,494.77,611.72Z"/><path class="cls-1" d="M497.09,613a1,1,0,0,1-.92-.4C496.41,612.8,496.84,612.71,497.09,613Z"/><path class="cls-1" d="M491,609.63a2.89,2.89,0,0,1-2.33-1.23A3.08,3.08,0,0,1,491,609.63Z"/><path class="cls-1" d="M486.33,607.16a1.44,1.44,0,0,1-1.4-.83A1.46,1.46,0,0,1,486.33,607.16Z"/><path class="cls-1" d="M488.67,608.4a1.46,1.46,0,0,1-1.41-.82A1.44,1.44,0,0,1,488.67,608.4Z"/><path class="cls-1" d="M497.09,613a1,1,0,0,1-.92-.4A1,1,0,0,1,497.09,613Z"/><path class="cls-1" d="M495.68,612.13a1,1,0,0,1-.91-.41A1,1,0,0,1,495.68,612.13Z"/><path class="cls-1" d="M494.28,611.3a1,1,0,0,1-.92-.41A1,1,0,0,1,494.28,611.3Z"/><path class="cls-1" d="M487.26,607.58a1,1,0,0,1-.92-.42A1,1,0,0,1,487.26,607.58Z"/><path class="cls-1" d="M478.36,602.61a1,1,0,0,1-.92-.42A1,1,0,0,1,478.36,602.61Z"/><path class="cls-1" d="M480.26,603.84l-.48-.41Z"/><path class="cls-1" d="M492.42,610.46l-.47-.39Z"/><path class="cls-1" d="M493.35,610.88l-.46-.39Z"/><path class="cls-1" d="M754.51,634.42a.5.5,0,0,1-.12.14l0,.06c-.27.33-.55.67-.8,1-.49.64-1,1.27-1.53,1.88-.2.24-.41.48-.65.72l-.08.1,0,0c-.09.08-.17.18-.27.27l0,0c-5.57,5.63-10.78,11.56-16.23,17.27q-12,12.75-24.15,25.46a6.75,6.75,0,0,1-1.8,1.59,1.08,1.08,0,0,1,0,.21,1.67,1.67,0,0,1-.08.2.47.47,0,0,1-.07.12l0,0h0a2.44,2.44,0,0,1-.32.4l-.24.25h0l-.27.25-.05,0-.15.15-.16.15a1,1,0,0,0-.13.17,1.09,1.09,0,0,0-.13.17,1.44,1.44,0,0,0-.25.58v0a1.41,1.41,0,0,1-.13-.56,1,1,0,0,1,0-.17c.09-.6.67-1,1.14-1.48a2,2,0,0,0,.55-.73c15-15.53,29.67-31.29,44.74-47.47l.08-.08.23-.24a.35.35,0,0,1-.11,0h0c-1.86.58-3.14,1.08-4.47,1.52-.33.11-.65.23-1,.31h0a1.82,1.82,0,0,1-1.65-.27l.45-.07a29.94,29.94,0,0,0,5.05-1.59,11.27,11.27,0,0,1,1.36-.35,4.14,4.14,0,0,1,.63-.1C754,634.44,754.23,634.42,754.51,634.42Z"/><path class="cls-1" d="M793,613.38a3.42,3.42,0,0,1-.47.23,8.1,8.1,0,0,1-.78.39c-.31.12-.64.26-.95.36a1,1,0,0,1-.23.09l-.05,0a.58.58,0,0,0-.14,0,0,0,0,0,1,0,0l-.1,0a2.46,2.46,0,0,1-.41.13.07.07,0,0,1-.06,0l-1.53.91,0,0-.83.52a.75.75,0,0,0-.17.1.2.2,0,0,0-.09.07h0c-.4.24-.8.47-1.22.69-.16.09-.31.16-.49.24l-.58.27-.11.06c-.5.22-1,.42-1.48.62h0l-.14.06-.55.2c-.25.11-.49.2-.73.29-.65.33-1.33.67-2,1-.07.06-.16.11-.23.16-.35.26-.69.49-1.06.73a11.51,11.51,0,0,1-1,.62l-.12.08c-.35.2-.69.4-1,.58a26.61,26.61,0,0,1-2.95,1.4l-.31.18c.15,0,.29-.11.42-.14.49-.17.82-.27,1-.35h0s0,0,0,0l-.18.07-.27.09-.48.19-.91.36c-3.73,2.17-7.43,4.39-11.17,6.58a16.39,16.39,0,0,1-5.91,2.49l-1.26.49.18.11a2.11,2.11,0,0,1,.45.28c.61.43,1.33.1,2-.13a18.82,18.82,0,0,0,3.05-1.86q9-5.25,18.09-10.44c.43-.25.85-.49,1.29-.72s.75-.42,1.13-.61l2.64-1.42c.43-.22.86-.44,1.28-.68a18.17,18.17,0,0,0,5.65-2.73q1.54-1,3.18-1.92Z"/><path class="cls-1" d="M795.23,624a2,2,0,0,1-.11.21,1.28,1.28,0,0,1-.14.23.9.9,0,0,0,0-.23l-.09,0a.27.27,0,0,1-.11-.35.87.87,0,0,1,.11-.18c0,.18,0,.34.09.51A2,2,0,0,0,795.23,624Z"/><path class="cls-1" d="M803.39,610.1a2.15,2.15,0,0,1-.51,1.4,6,6,0,0,0-.38.55C802.79,611.39,803.08,610.76,803.39,610.1Z"/><path class="cls-1" d="M801.83,614a1.65,1.65,0,0,0-.15.25s0-.07,0-.11A.55.55,0,0,1,801.83,614Z"/><path class="cls-1" d="M803.39,610.1a2.15,2.15,0,0,1-.51,1.4,6,6,0,0,0-.38.55C802.79,611.39,803.08,610.76,803.39,610.1Z"/><path class="cls-1" d="M805.65,607.8l-.16.42c-.2.37-.4.71-.51.88-.64,1-1.28,1.91-1.9,2.88A16.82,16.82,0,0,1,805.65,607.8Z"/><path class="cls-1" d="M798.35,621.08a.09.09,0,0,1,0-.07.07.07,0,0,1,0,.06Z"/><path class="cls-1" d="M799.77,618.55c-.2.48-.4.93-.59,1.31l-.07.09a6.72,6.72,0,0,0-.47.66c.25-.46.58-1.13.76-1.49A4,4,0,0,1,799.77,618.55Z"/><path class="cls-1" d="M790.56,614.48c-2,1.16-4,2.29-6,3.39-.42.24-.85.46-1.28.68L780.62,620c-.38.19-.76.4-1.13.61s-.86.47-1.29.72q-9.08,5.19-18.09,10.44a18.82,18.82,0,0,1-3.05,1.86c-.67.23-1.39.56-2,.13a2.11,2.11,0,0,0-.45-.28l-.18-.11,0,0a57.47,57.47,0,0,0,6.94-3.14c2.33-1.26,4.57-2.69,6.85-4,1.13-.66,2.27-1.31,3.46-1.92a12.15,12.15,0,0,1,1.13-.49l.91-.36.48-.19.27-.09.18-.07s0,0,0,0h0c-.18.08-.51.18-1,.35-.13,0-.27.09-.42.14a3.22,3.22,0,0,1-.64.2l1-.38a26.61,26.61,0,0,0,2.95-1.4c.35-.18.69-.38,1-.58l.12-.08a11.51,11.51,0,0,0,1-.62c.37-.24.71-.47,1.06-.73.07-.05.16-.1.23-.16l.77-.6,1.22-.42c.24-.09.48-.18.73-.29l.55-.2.14-.06h0c.48-.2,1-.4,1.48-.62l.11-.06.58-.27c.18-.08.33-.15.49-.24.42-.22.82-.45,1.22-.69h0a.2.2,0,0,1,.09-.07.75.75,0,0,1,.17-.1l.83-.52,0,0c.13-.11.26-.18.38-.28l.66-.45a.45.45,0,0,1,.18-.07l.31-.11a.07.07,0,0,0,.06,0,2.46,2.46,0,0,0,.41-.13l.1,0a0,0,0,0,0,0,0A.58.58,0,0,1,790.56,614.48Z"/><path class="cls-1" d="M793.37,613.21c-1.09.62-2.15,1.26-3.19,1.94a18.46,18.46,0,0,1-5.64,2.73,2.11,2.11,0,0,1,.2-.29l.11-.06.58-.27a3.71,3.71,0,0,0,.49-.24c.42-.22.82-.45,1.22-.69h0a.24.24,0,0,1,.09-.07.47.47,0,0,1,.17-.09c.29-.19.56-.37.83-.53l0,0c.13-.11.26-.18.38-.27l.66-.46a.67.67,0,0,1,.18-.07l.31-.11a.07.07,0,0,0,.06,0,2.46,2.46,0,0,0,.41-.13l.1,0,0,0a.55.55,0,0,0,.18-.06l.24-.09c.31-.11.64-.23.95-.36s.54-.24.78-.38a4.12,4.12,0,0,0,.47-.24Z"/><path class="cls-1" d="M795.23,624a2,2,0,0,1-.11.21H795l-.09,0a.27.27,0,0,1-.11-.35.87.87,0,0,1,.11-.18c0,.18,0,.34.09.51A2,2,0,0,0,795.23,624Z"/><path class="cls-1" d="M801.83,614a1.65,1.65,0,0,0-.15.25s0-.07,0-.11A.55.55,0,0,1,801.83,614Z"/><path class="cls-1" d="M803.39,610.1a2.15,2.15,0,0,1-.51,1.4,6,6,0,0,0-.38.55C802.79,611.39,803.08,610.76,803.39,610.1Z"/><path class="cls-1" d="M522.62,672.23c.17.19.35.38.51.58-.18-.2-.37-.4-.54-.6Z"/><path class="cls-1" d="M527.09,675.76c.94.93,1.81,1.92,2.66,2.91a4.86,4.86,0,0,1-1.13-1C528.1,677,527.6,676.4,527.09,675.76Z"/><path class="cls-1" d="M580,743l.87.87h0C580.59,743.55,580.32,743.25,580,743Z"/><path class="cls-1" d="M753.7,634.45c-.14.31-.94,1-.12,1-35.87,38.86-71.37,77.44-110.43,110.62-.23-22.68-.76-45.36-.68-68.09-1.56-7.66,7.92-6.76,12-8.42C688.38,660.76,721.1,646.47,753.7,634.45Z"/><path class="cls-1" d="M643.83,768.45v5.6a14.32,14.32,0,0,1,0-5.38Z"/><path class="cls-1" d="M643.86,789.6a13.85,13.85,0,0,1-.23-3.86c.22-2.46-.13-4.93.2-7.39C643.83,782.1,643.85,785.86,643.86,789.6Z"/><path class="cls-1" d="M644.08,777.09a10.8,10.8,0,0,0-.25,1.26v-4.3a2.62,2.62,0,0,0,.09.38A5.63,5.63,0,0,1,644.08,777.09Z"/><path class="cls-1" d="M666.87,726.37c-.35.35-.71.69-1,1a3.29,3.29,0,0,1,.48-.57,2.43,2.43,0,0,1,.29-.26A1.46,1.46,0,0,1,666.87,726.37Z"/><path class="cls-1" d="M713,735.89h0Z"/><path class="cls-1" d="M751.49,640a.24.24,0,0,0-.09.12c-.23.21-.49.45-.73.71l-.34,0-.35-.08a2,2,0,0,0,.53-.22A4.14,4.14,0,0,0,751.49,640Z"/><path class="cls-1" d="M660,731.37a2.49,2.49,0,0,1-1.34,1.23,1.21,1.21,0,0,1,0-.58.77.77,0,0,1,.63-.61A1.78,1.78,0,0,1,660,731.37Z"/><path class="cls-1" d="M644.1,745c-.31.39-.6.39-.89,0Z"/><path class="cls-1" d="M652.52,738a.87.87,0,0,1-.87.35A.92.92,0,0,1,652.52,738Z"/><path class="cls-1" d="M654.91,735.9c0-.26,0-.53,0-.79C655.36,735.38,655.33,735.64,654.91,735.9Z"/><path class="cls-1" d="M783.21,644.42c-.26.36-.51.73-.75,1.09a10.16,10.16,0,0,0,.33-1.11A1,1,0,0,1,783.21,644.42Z"/><path class="cls-1" d="M795.23,624a2,2,0,0,1-.11.21,1.28,1.28,0,0,1-.14.23.9.9,0,0,0,0-.23v0A2,2,0,0,0,795.23,624Z"/><path class="cls-1" d="M800.37,617.11l-.06.15c0,.13-.11.25-.16.38.05-.16.13-.31.18-.47Z"/><path class="cls-1" d="M801.83,614a1.65,1.65,0,0,0-.15.25s0-.07,0-.11A.55.55,0,0,1,801.83,614Z"/><path class="cls-1" d="M725.69,721.86c-.34.46-.67.93-1,1.41l1-1.39Z"/><path class="cls-1" d="M713,735.89h0Z"/><path class="cls-1" d="M713.59,735.7c-.11.2-.2.4-.3.61a.87.87,0,0,0-.32-.42A.94.94,0,0,0,713.59,735.7Z"/><path class="cls-1" d="M783.21,644.42c-.26.36-.51.73-.75,1.09a10.16,10.16,0,0,0,.33-1.11A1,1,0,0,1,783.21,644.42Z"/><path class="cls-1" d="M646.47,799.68a1.41,1.41,0,0,1-.18.61,1,1,0,0,1-.55.47h0a1.85,1.85,0,0,1-.67.14A2.53,2.53,0,0,1,646.47,799.68Z"/><path class="cls-1" d="M647.4,798.85l-.45.4Z"/><path class="cls-1" d="M646.93,799.27l-.46.4Z"/><path class="cls-1" d="M645.06,800.91l-.46.41Z"/><path class="cls-1" d="M524,673.77l.35.39s0,0-.05,0S524.08,673.89,524,673.77Z"/><path class="cls-1" d="M527.09,675.76c.94.93,1.81,1.92,2.66,2.91a4.86,4.86,0,0,1-1.13-1C528.1,677,527.6,676.4,527.09,675.76Z"/><path class="cls-1" d="M553.93,655.06a5.92,5.92,0,0,1-1.51-1.89C552.91,653.82,553.4,654.45,553.93,655.06Z"/><path class="cls-1" d="M696.87,695h0l-.12.12c-2,1.93-3.85,4-5.77,6.06l-.42.45c-.61.62-1.21,1.24-1.83,1.83l.69-.44a14.43,14.43,0,0,0,1.13-.94l.13-.11h0l0,0c.22-.22.44-.46.63-.69l.12-.15.44-.54c.19-.23.38-.47.58-.7s.29-.36.45-.54h0l.47-.54.36-.41.5-.54c.2-.22.42-.44.63-.65.52-.53,1.06-1,1.63-1.53l.4-.33a1.23,1.23,0,0,1,.25-.22s0,0,0,0l.08-.07.08-.07s0,0,0-.06a2.54,2.54,0,0,1,.16-.51ZM750,640.7l.35.08.18-.3A2,2,0,0,1,750,640.7Zm.53-.22a2,2,0,0,1-.53.22l.35.08.34,0c.24-.26.5-.5.73-.71a.24.24,0,0,1,.09-.12A4.14,4.14,0,0,1,750.51,640.48Zm4.1-7-.18-.11-.73,1.11h0l-.09.14-.06.09-.2.31-.09.14-.11.15L751,638.61c.1-.09.18-.19.27-.27l0,0,.08-.1c.24-.24.45-.48.65-.72.53-.61,1-1.24,1.53-1.88.25-.33.53-.67.8-1l0-.06a.5.5,0,0,0,.12-.14C753.75,634.42,754.43,633.75,754.61,633.45Zm-106,163.88-.18.18c-.86.86-1.47,1.57-1.08,1.34h0a6.82,6.82,0,0,1,2.34-2.08l.47-.41c.15-.15.31-.28.45-.43l.94-.81a.34.34,0,0,0,0-.1C651.61,794.58,649.92,796.08,648.66,797.33Zm-.47,1.29a5.66,5.66,0,0,1-.79.22c-.07.31.46,0,.29.22l.13-.11a2.47,2.47,0,0,0,.29-.24l.15-.12S648.2,798.61,648.19,798.62Z"/><path class="cls-1" d="M805.21,605.05v0c-2.18,1.44-4.2,3.12-6.75,4.08a18.49,18.49,0,0,1-1.57,1.48s0,0,0,0A18.26,18.26,0,0,1,793.7,613l-.09.06-.24.15q-1.64.91-3.18,1.92a18.17,18.17,0,0,1-5.65,2.73c-.42.24-.85.46-1.28.68q0,9.32.08,18.63a16.9,16.9,0,0,1-4.81,12.16c-8.46,9.34-16.31,19.2-24.74,28.58-11.27,12.52-22,25.52-33.54,37.83-3.33,4.11-7,7.92-10.49,11.89-13.66,15.57-27.59,30.88-41.44,46.28-7.46,8.29-14.87,16.64-22.46,24.83a16,16,0,0,1-3.23,3,3.39,3.39,0,0,1-.39.18.31.31,0,0,0,0-.1v-.15c.83-.56.41-1.29.41-1.91q0-24.63,0-49.25c0-.45,0-.9,0-1.35.2.32.39.54.55.48a.26.26,0,0,0,.11-.1.57.57,0,0,0,.33.12s-.07-.14-.24-.33a5.25,5.25,0,0,0,.13-1c.14-.11.22-.24.11-.41h0a33.86,33.86,0,0,1,4-3.58,31.09,31.09,0,0,0-3.44,1.92,2.31,2.31,0,0,1-1.07.82c-.45.22-.86.44-.86.9v.56c0,15.15,0,37.07,0,52.32v1a1.75,1.75,0,0,1-1,0h-.05a2,2,0,0,0,.11.2l.34.62a4.42,4.42,0,0,0,.6.34c0,.44,0,.89,0,1.25s.37-.61.5-1.48c.66-.41,1.08-1.09,1.85-1.38a1.06,1.06,0,0,1,.25,0c.19-.06,2.28,1.74,2.43,1.64l-1-2.69.2-.17c.06-.06,1.69,1.28,1.75,1.22s-1.29-1.62-1.17-1.73a.72.72,0,0,1,.21-.18c.12-.12.27-.22.39-.35s-.36.09-.29-.22h0c-.39.23.22-.48,1.08-1.34l.18-.18c1.26-1.25,3-2.75,3-2.32a.34.34,0,0,1,0,.1l-.94.81c-.14.15-.3.28-.45.43l-.47.41a6.82,6.82,0,0,0-2.34,2.08,5.66,5.66,0,0,0,.79-.22c1.51-1.42,6-5.63,6.21-5.81,9.62-9.1,19.13-18.31,29.18-27Q688,762,692.23,758c4.65-4.42,9.38-8.74,14.47-12.75.18-.36.38-.71.58-1.05a12.29,12.29,0,0,1,1.6-2,13,13,0,0,1,1.84-1.94l1.77-1.25s0,0,0,0a1.77,1.77,0,0,1,.55-.62c.62-.69,1.23-1.38,1.87-2.07a71.86,71.86,0,0,1,5.14-6.13c.38-.63.76-1.23,1.11-1.76.64-.93,1.28-1.88,1.91-2.83l0-.05c.25-.36.53-.75.76-1.13s.53-.74.79-1.13c.13-.18.26-.37.4-.55a.61.61,0,0,1,.07-.1.47.47,0,0,1,.06-.09l.45-.64,0,0,.6-.82c.75-1,1.51-2,2.3-2.92,1.22-1.46,2.47-2.87,3.71-4.3-.85.79,1.64-1.78,2-2.26,1-1.29,2-2.6,3.05-3.91,3.27-4.34,7.34-8.32,10.62-12.62,2.47-3.23,3.84-6.14,6.86-9.81a13,13,0,0,1,2.17-1.85c.09-.17.21-.31.31-.47a10.07,10.07,0,0,1,1.75-2.08,5.54,5.54,0,0,1,.33-.51,17.12,17.12,0,0,1,3.33-4.32l0,0c.13-.24.26-.45.4-.67l1.26-1.86c.2-.33.42-.66.64-1l3-4.67c4.32-6.72,8.49-13.51,12.94-20.16l.23-.33.87-1.28.35-.49v0a10.16,10.16,0,0,0,.33-1.11,1.56,1.56,0,0,1,.42,0l.62-.86c.56-.82,1.12-1.64,1.71-2.44,1-1.34,2-2.68,3-4a30.44,30.44,0,0,1,2-2.35,17.69,17.69,0,0,1,1.37-2.22c.29-.6.56-1.22.87-1.82.49-1,1-2,1.55-2.92.27-.49.55-1,.82-1.43s.53-.95.8-1.43q1.42-2.51,2.88-5l.29-.49v0a2.61,2.61,0,0,0,.2-.32.34.34,0,0,0,.07-.11.37.37,0,0,1,.1-.11h0l0,0a.34.34,0,0,1,0,.1.25.25,0,0,1,0,.11,4,4,0,0,1,.37-.57s0,0,0,0a2.31,2.31,0,0,1,.1-.28,5.18,5.18,0,0,0,.26-.6c.05-.16.13-.31.18-.47l0,0s0,0,0,0c.08-.2.17-.4.24-.58.29-.75.57-1.37.72-1.66a6.35,6.35,0,0,1,.36-.6s0-.07,0-.11a.43.43,0,0,1,.13-.14c.2-.35.41-.72.63-1.06s.4-.66.62-1a16.82,16.82,0,0,1,2.57-4.18l0,0c.13-.34.25-.69.4-1l0,0c.09-.27.2-.54.31-.82a.69.69,0,0,0,.07-.15c.31-.74.64-1.49,1-2.22A21,21,0,0,0,805.21,605.05ZM646.45,799.85a1.49,1.49,0,0,1-.09.3l-.06.11-.15-.42.13-.09h0l.12,0,.05,0h0A1,1,0,0,0,646.45,799.85Zm66.84-63.54a.66.66,0,0,0-.09-.19l0,0a.38.38,0,0,0-.09-.09.41.41,0,0,0-.1-.09h0a1.24,1.24,0,0,0,.38,0l.12,0h0l.06,0,.06,0h0a2.55,2.55,0,0,1-.13.29Zm81.83-112.08a1.08,1.08,0,0,1-.14.24,1,1,0,0,0,0-.24l-.09,0a.27.27,0,0,1-.11-.34.23.23,0,0,1,.11-.18c0,.18,0,.34.09.51a2,2,0,0,0,.27-.17A.75.75,0,0,1,795.12,624.23Zm7.76-12.73c-.14.19-.27.37-.38.55.29-.66.58-1.3.89-1.95A2.17,2.17,0,0,1,802.88,611.5Zm-93.25,70.94q12.11-12.72,24.16-25.46c5.45-5.71,10.66-11.64,16.23-17.27l0,0c.36-.37.71-.73,1-1.11l.19-.23c-.09.08-.17.18-.27.27l0,0c-5.57,5.63-10.78,11.56-16.23,17.27q-12,12.75-24.15,25.46a6.75,6.75,0,0,1-1.8,1.59,1.6,1.6,0,0,1,0,.21,1.67,1.67,0,0,1-.08.2.75.75,0,0,1-.07.12l0,0C709,683.2,709.28,682.8,709.63,682.44Zm-3.29,3.75h0a.47.47,0,0,0,.48-.4h0A.48.48,0,0,0,706.34,686.19ZM700,692.51a42.4,42.4,0,0,1,5.74-6.47l.94-.9a1.41,1.41,0,0,0,.13.56,1.45,1.45,0,0,0,0-.66.09.09,0,0,0-.09-.07c-3.5,1.29-3.15,3.8-5.34,5.24.09.45-2.26,2.64-2.59,2.94s-.83.74-1.24,1.17a2.54,2.54,0,0,0-.16.51s0,0,0,.06l-.08.07a1.65,1.65,0,0,0,.69-.15C698.62,694.56,699.67,693,700,692.51ZM696,696.35a1.6,1.6,0,0,1,.26-.22s0,0,0,0l.17-.14s0-.05,0-.06a2.45,2.45,0,0,1,.08-.29c-.57.49-1.11,1-1.63,1.53-.21.21-.43.43-.63.65l-.5.54-.36.41-.47.54A27.23,27.23,0,0,1,696,696.35Zm-7.5,7.72a14.43,14.43,0,0,0,1.13-.94l.16-.15a7.88,7.88,0,0,0,.62-.69,1.74,1.74,0,0,0,.13-.15l.16-.19-.13.11a14.43,14.43,0,0,1-1.13.94l-.69.44c-.44.43-.88.83-1.32,1.23l.38-.16Zm-15.75,15.38c0,.07-.05.12-.07.19a1.42,1.42,0,0,1,.08-.18Zm-.31.62,0,.06c-2.49,2.45-5,4.89-7.5,7.34,2.5-2.44,5-4.88,7.5-7.34Zm-28.49,54.36a2.62,2.62,0,0,1-.09-.38v4.3a10.8,10.8,0,0,1,.25-1.26A5.63,5.63,0,0,0,643.92,774.43Zm-.29,11.31a13.85,13.85,0,0,0,.23,3.86c0-3.74,0-7.5,0-11.25C643.5,780.81,643.85,783.28,643.63,785.74Zm.17-17.07a14.32,14.32,0,0,0,0,5.38v-5.6Z"/><path class="cls-1" d="M783.26,618.55c-38.71,17.12-61.83,55.09-90.34,80.74-46.25,52.08-52.9,28.05-50.69,102.39,26.57-26.23,52.31-57.6,78-85.93C741.81,684.41,788.07,660.31,783.26,618.55ZM666.89,726.35c-.36.35-.72.7-1.07,1.06A4.15,4.15,0,0,1,666.89,726.35Zm84.51-86.26c-.42.39-.76.92-1.42.61C750.37,640.65,751.5,639.92,751.4,640.09Z"/><path class="cls-1" d="M718.58,728h0Z"/><path class="cls-1" d="M783.21,644.42c-.26.36-.51.73-.75,1.09a10.16,10.16,0,0,0,.33-1.11A1,1,0,0,1,783.21,644.42Z"/><path class="cls-1" d="M795,624.2v0l-.09,0a.27.27,0,0,1-.11-.35.87.87,0,0,1,.11-.18C794.9,623.87,794.92,624,795,624.2Z"/><path class="cls-1" d="M690.41,701.49l.46-.41.18.15q0,.39-.45.42Z"/><path class="cls-1" d="M706.83,685.79a.47.47,0,0,1-.48.4h0a.48.48,0,0,1,.49-.4Z"/><path class="cls-2" d="M505.82,648.77l3.23,3.64A45.28,45.28,0,0,1,505.82,648.77Z"/><path class="cls-2" d="M520.79,664.56q10.56,12.39,21,24.86l-32.74-37c1.78,1.85,3.63,3.61,5.05,5.17Q517.43,661.15,520.79,664.56Z"/><path class="cls-2" d="M642.25,803h0l0,0-.82-.92-.18-.21-4.74-5.35a18.47,18.47,0,0,1,3.61,3.68l-.28-.38,1.6,1.49a3.91,3.91,0,0,0,.78.46v-.85c0,.27,0,.55,0,.83v.15a.31.31,0,0,1,0,.1C642.25,802.27,642.25,802.61,642.25,803Z"/><path class="cls-2" d="M484,618.21c.68,1.19,1.38,2.37,2.09,3.54Z"/><path class="cls-1" d="M518.19,386.69c0-3.18.09-12.15-.47-16.72.1-.45,2.72,2.27,4.75,4.51C513,269.17,550.51,267.5,458,330c-7.41,5.14-16.27-6.76-23.23-9.4-3.07-.46-23.5-15.3-31.53-20-2.64-3.08-6.28-2.4-5,2.27.67,43.52-1.42,87.28.92,130.69H399c27.19,12.65,56.28,22.19,84.57,32.73,7.5.74,39.23,19.65,37.84,5.66C521.94,443.38,518.26,415.23,518.19,386.69Z"/><path class="cls-2" d="M664.06,227.9l-.64-.54A1.21,1.21,0,0,1,664.06,227.9Z"/><path class="cls-2" d="M666.7,229.7l-.64-.6Z"/><path class="cls-2" d="M672.87,234.13l-.66-.63Z"/><path class="cls-2" d="M676.36,236.71l-.63-.6Z"/><path class="cls-2" d="M398.07,432.73l-.83-.88Z"/><path class="cls-2" d="M399,433.54a3.28,3.28,0,0,1,2.62.95Z"/><path class="cls-1" d="M882.76,701c0,3-1,4.35-3.66,5.6-9.17,4.34-18.2,9-27.28,13.47h0c-10.46,5.42-21,10.78-32,15-8.56,4.76-17.62,8.44-26.59,12.34-5,2.33-9.82,5.16-15.1,7-3.8,1.83-7.46,3.93-11.46,5.35a151.82,151.82,0,0,1-15.14,7c-17.44,7.15-34.23,15.68-51.29,23.65s-34.11,16.06-51,24.43a14.91,14.91,0,0,1-14.12.24q-47-21.54-93.53-44-43.95-21.22-87.85-42.53a8.36,8.36,0,0,0-1.69-.42c-3.68-1.6-7.56-2.79-10.8-5.27-5.2-1.95-10-4.76-15-7a163.56,163.56,0,0,1-15.07-7h0c-10.74-3.75-10.74-3.76-10.74-14.87,0-33-.29-66.09.1-99.12.29-24.85.23-49.7.37-74.54,0-1.68-.62-3.75,1.35-4.74s3.65.49,5.19,1.56c1,.66,1.75,1.55,2.68,2.26.9.54,2,.86,2.54,1.84a1.23,1.23,0,0,1,1,.82,13.16,13.16,0,0,1,3.51,2.64,10.71,10.71,0,0,1,3.53,2.69,57.51,57.51,0,0,1,10.61,7.86c3.17,2.13,6.54,3.91,9.86,5.8a6.9,6.9,0,0,1,1,.7c2.39,2.17,5.15,3.87,7.69,5.84a3.46,3.46,0,0,0,4.44.33,7.76,7.76,0,0,1,1-.65,9.88,9.88,0,0,0,2.85-2.07,7.68,7.68,0,0,1,1-.7c6.26-4.59,12.72-8.92,18.52-14.1,5.47-4,10.78-8.22,16.57-11.76,5-3.08,6.93-2.1,7,3.83.1,22.52-.38,45.06.19,67.58.21,8.53.42,17,.56,25.57.12,7.7.19,15.4.17,23.1,0,3.5,1.54,6.13,3.73,8.63q7.55,8.61,15,17.32,10.56,12.39,21,24.86c11.65,13.84,23.31,27.68,35.27,41.27,17.08,19.42,34,39,51.37,58.16,1.18,1.31,2.37,2.61,3.55,3.91l0,0,1.72,1.89h0c1.19,1.31,2.39,2.61,3.58,3.91,1.89,2,3,3.19,4,3.41l.12,0a1.65,1.65,0,0,0,.79-.07h0a3.39,3.39,0,0,0,.39-.18,16,16,0,0,0,3.23-3c7.59-8.19,15-16.54,22.46-24.83,13.85-15.4,27.78-30.71,41.44-46.28,3.49-4,7.16-7.78,10.49-11.89,11.53-12.31,22.27-25.31,33.54-37.83,8.43-9.38,16.28-19.24,24.74-28.58a16.9,16.9,0,0,0,4.81-12.16q-.06-9.31-.08-18.63a1.82,1.82,0,0,1,0-.33h0c-.11-31.4,0-62.8,0-94.2,0-2.35-1.12-5.47,1.62-6.79s4.9,1.3,7,2.73c3.4,2.31,6.51,5,10,7.19.4.22.8.44,1.22.63a6.15,6.15,0,0,1,1.09.74l.5.41a7.54,7.54,0,0,0,1.93,1.52,7.31,7.31,0,0,1,1,.7,27.26,27.26,0,0,0,5.25,3.72,6.53,6.53,0,0,1,1,.67c3,2.91,7.07,4.41,10,7.36a2.55,2.55,0,0,1,.39,1.12c6.43,6.17,7.06,6.36,13.94,1.37,12.25-8.91,24.33-18,36.57-27,1.92-1.4,4.14-4,6.4-2.93s.93,4.29.94,6.53Q882.47,611.5,882.76,701Z"/><path class="cls-2" d="M829.26,455.52l1.67-.75Z"/><path class="cls-2" d="M865.2,443.18l1.67-.63Z"/><path class="cls-2" d="M867.93,442.32l1.57-.62Z"/><path class="cls-2" d="M870.53,441.44l1.63-.65Z"/><path class="cls-2" d="M815.27,459.91l1.56-.61Z"/><path class="cls-2" d="M836.22,452.85l1.67-.61Z"/><path class="cls-2" d="M821.37,458.11l1.56-.59Z"/><path class="cls-2" d="M831.1,454.67l1.55-.66Z"/><path class="cls-2" d="M834.52,453.73l.76-.59Z"/><path class="cls-2" d="M839,452l.66-.45A1.1,1.1,0,0,1,839,452Z"/><path class="cls-2" d="M824,457.18l.71-.4A.89.89,0,0,1,824,457.18Z"/><path class="cls-1" d="M643.94,388c0-3.64.23-7.26.54-10.89.42-5.05.61-10.19-1.19-15.08-.09-.27-.19-.52-.3-.78l-.23-.3c-.19-.23-.39-.44-.59-.64a12.39,12.39,0,0,1-1.36-.37,2.77,2.77,0,0,1-1.64-1.36,2.47,2.47,0,0,1-.49-.36,2.42,2.42,0,0,1-1.39-1.1,2.45,2.45,0,0,1-1.13-1.27c-3.71-2.54-7.45-5-11.15-7.56-22.12-15.22-45-29.37-67.27-44.3a79.07,79.07,0,0,1-9.52-5.91c-.58-.38-1.17-.75-1.75-1.14a65.33,65.33,0,0,1-6.14-3.35c-2-1.13-3.9-2.52-6-3.47l-.57-.25-.56-.11h0l-.24-.24a15.94,15.94,0,0,1-4.36-2.53,2.65,2.65,0,0,1-.26-.21,2.44,2.44,0,0,1-.81-.49c-1.5-.65-2.95-1.54-4.54-1.54a2.79,2.79,0,0,1-.84-.13,1.81,1.81,0,0,1-.23,0,3.1,3.1,0,0,1-.45-.05,3.18,3.18,0,0,1-.33.09h.11a5.64,5.64,0,0,0-.81.2,9.32,9.32,0,0,0-1,.57c-.54.46-1,1-1.51,1.49a7.42,7.42,0,0,1-1.32,1c-.09,2.31-.21,4.63-.21,6.95,0,23.61.13,47.22,0,70.83,0,5.36-.72,10.72,5.41,13.49,27.3,18.2,54.7,36.29,81.88,54.67,9.28,6.28,18.93,12,28,18.68a12.5,12.5,0,0,1,1.21.45,20,20,0,0,1,2.48,1.37c1.68,1.05,3.23,2.3,5,3.31.74.43,1.52.84,2.29,1.23a12.38,12.38,0,0,0,1.3-1.78l.11-.16c1.27-3.78-.21-7.51-.18-11.29C644,426.45,643.94,407.2,643.94,388Z"/><path class="cls-2" d="M452.6,454.64l-1.79-.87Z"/><path class="cls-3" d="M641.51,215.21c-5.73.83-12.76,8.76-19.11,11.62-10.57,8.86-22.75,15.19-33.65,23.46-6,4.61-12.86,8.08-18.81,12.83-7.46,6.1,1.71,16.37,8.18,10.08,20.14-15.43,41.46-29.58,62.47-43.69C642.87,227.61,642.7,218.66,641.51,215.21Z"/><path class="cls-2" d="M837.77,323.85a2.39,2.39,0,0,1-2.34,1.72A2.66,2.66,0,0,1,837.77,323.85Z"/><path class="cls-2" d="M702.7,254.32l-1.51-.67Z"/><path class="cls-2" d="M582.68,254.63l-1,.77Z"/><path class="cls-2" d="M703.58,255.15l-.61-.59A1.34,1.34,0,0,1,703.58,255.15Z"/><path class="cls-2" d="M705.34,256.07l-.7-.63Z"/><path class="cls-2" d="M706.22,256.93l-.61-.6A1.31,1.31,0,0,1,706.22,256.93Z"/><path class="cls-2" d="M707.07,257.74a.58.58,0,0,1-.56-.53A1.2,1.2,0,0,1,707.07,257.74Z"/><path class="cls-2" d="M838.76,323l-.7.61Z"/><path class="cls-2" d="M839.67,322.16l-.73.7Z"/><path class="cls-2" d="M774.75,293l-.76-.75Z"/><path class="cls-2" d="M660.64,369.52c-1.19-.29-2.37-.57-3.55-.87l.18.13a1.57,1.57,0,0,1-.23-.09.43.43,0,0,1,0-.05v0a.06.06,0,0,1,0-.05C658.53,367.68,659.51,368.91,660.64,369.52Z"/><path class="cls-2" d="M729.08,401.11l-1.52.88Z"/><path class="cls-2" d="M741.38,392.33l-1.61.91Z"/><path class="cls-2" d="M744,390.59l-1.69.85Z"/><path class="cls-2" d="M746.64,388.83l-1.64.87Z"/><path class="cls-2" d="M750.14,386.23l-1.5.87Z"/><path class="cls-2" d="M759.8,380.88l-1.71,0C758.67,380.16,759.25,380,759.8,380.88Z"/><path class="cls-2" d="M721.18,406.42l-1.57.89Z"/><path class="cls-2" d="M761.55,475.77l-.75-.93Z"/><path class="cls-2" d="M748.42,387.27l-.77.65Z"/><path class="cls-2" d="M751,385.51l-.76.64Z"/><path class="cls-2" d="M752.79,384.58l-.86.67Z"/><path class="cls-2" d="M753.63,383.8l-.66.61Z"/><path class="cls-2" d="M755.4,382.76l-.86.72Z"/><path class="cls-2" d="M756.28,381.92c-.24.24-.49.47-.74.7C755.79,382.39,756,382.16,756.28,381.92Z"/><path class="cls-2" d="M757.13,381.21a1.21,1.21,0,0,1-.64.54Z"/><path class="cls-2" d="M761.65,476.63c0-.27,0-.54-.07-.82l1,.75-.13.13A.49.49,0,0,1,761.65,476.63Z"/><path class="cls-2" d="M718.56,408.14l-.95.81Z"/><path class="cls-2" d="M719.47,407.39l-.89.72Z"/><path class="cls-2" d="M722.07,405.69l-.8.66Z"/><path class="cls-2" d="M722.85,405a1.33,1.33,0,0,1-.54.46A.48.48,0,0,1,722.85,405Z"/><path class="cls-2" d="M747.53,388l-.83.75Z"/><path class="cls-2" d="M724.61,404.08a1,1,0,0,1-.59.48A.57.57,0,0,1,724.61,404.08Z"/><path class="cls-2" d="M727.35,402.16c0,.23,0,.46,0,.69l-.09.07a6.33,6.33,0,0,1-.76-.12Z"/><path class="cls-2" d="M730,400.34l-.87.73Z"/><path class="cls-2" d="M730.88,399.55l-.76.68Z"/><path class="cls-2" d="M731.69,398.77a1.67,1.67,0,0,1-.62.59Z"/><path class="cls-2" d="M733.51,397.67l-.92.77Z"/><path class="cls-2" d="M734.34,396.88l-.76.72Z"/><path class="cls-2" d="M736.1,395.93l-.92.72Z"/><path class="cls-2" d="M737,395.16l-.73.65Z"/><path class="cls-2" d="M738.74,394.1l-.94.79Z"/><path class="cls-2" d="M739.65,393.32l-.86.73Z"/><path class="cls-2" d="M742.26,391.5l-.84.8Z"/><path class="cls-2" d="M744.91,389.77l-.84.78Z"/><path class="cls-3" d="M640.59,229.51c.87-4.32-.34-10.64.53-15,16.79,9.8,34.18,23.82,50.34,34.56,6.25,6.42,30,13.93,22.14,24.86-2.42,1.74-5,1-7.28-.75C684.75,258.47,663,242.27,640.59,229.51Z"/><path class="cls-2" d="M658.73,257.08l-.47-.4A.92.92,0,0,1,658.73,257.08Z"/><path class="cls-2" d="M660.71,258.43l-.48-.45Z"/><path class="cls-2" d="M665.35,261.76l-.5-.48Z"/><path class="cls-2" d="M668,263.7l-.47-.46Z"/><path class="cls-3" d="M641.8,247.55c-16.36,8.67-33.49,23.19-50.18,33.45-10,3.47-4.44,17,3.84,9.1,14.82-11.14,30.3-21.54,45.65-31.81C642.82,256.86,642.7,250.14,641.8,247.55Z"/><path class="cls-3" d="M641.11,258.29c.66-3.24-.25-8,.4-11.23,12.61,7.36,25.66,17.88,37.79,25.94,4.83,5,22.31,10.08,16.62,18.67-1.81,1.31-3.75.75-5.46-.56C674.27,280,657.9,267.87,641.11,258.29Z"/><path class="cls-2" d="M407.09,441.87l-.09.26a.6.6,0,0,1-.28-.12s0-.16.08-.25Z"/><path class="cls-2" d="M417.41,441.54l.9.85Z"/><path class="cls-2" d="M408.63,438l.9.85Z"/><path class="cls-1" d="M762.06,440.89c1.3-8-3.62-12.76-9.87-5.72-34.05,23.68-67.74,48.17-102,71.21-6.89,6.6-11.69,3.05-18.29-1.65-38.37-23-74.27-54-112.78-75.35,2.79,45.05.87,93.9,1.6,140.18,0,7.77,0,7.85,6.57,4.24,17.26-10.74,34-22.42,50.68-34,4-4.17,6.55-2.58,5.39,2.93,2.88,29.35-5.54,64.89,3.44,91.62,14.87,5.48,48.1,35.78,60.64,29.89,11.42-10.06,49.76-24.21,52-36.77.43-30.42-1.51-62.12.32-91.95,19.35,10.34,38.55,26.15,58.19,37.69,2.63,1.71,4.57,3,4.55-2.16C762.3,527.63,762.25,484.26,762.06,440.89Z"/><path class="cls-2" d="M761.65,476.63l.78.06a7,7,0,0,1,.07.79C762.22,477.2,761.93,476.92,761.65,476.63Z"/><path class="cls-2" d="M642.76,360.91c-.19-.23-.39-.44-.59-.64a12.62,12.62,0,0,1-1.34-.36h-1l1.45,1a8.58,8.58,0,0,1,2,1.05c-.09-.27-.19-.52-.3-.78Z"/><path class="cls-4" d="M657.27,368.78l-.18-.13"/><path class="cls-1" d="M879.28,302.59c.83-5-1.69-7.37-5.69-3.21-13.94,10.38-27.87,20.77-41.69,31.31-7.64,4.67-18.74-9.17-25.58-12.95-12.49-5.13-46.27-40.64-56-29-25.05,16.76-48.05,35.77-73.9,51.71-3.45,3.44-13.51,9.35-18.68,13-4,3.32-10.17,10.69-15.6,6.82,5.1,8.18,1.24,18.63,1.77,27.69-.81,23.48,1.64,48.06-.92,71,17.09-13.65,36.91-24.6,54-38.35,19.72-12.19,38.43-27.13,58.16-39.95,3.9-3.56,8.05-2.95,6.66,2.93.21,27.5.21,55,.53,82.49.11,9.81-1.33,10.25,9.15,6.78C923.09,421,870.73,462.15,879.28,302.59Z"/><path class="cls-2" d="M555.29,302.73l-.88-.82Z"/><path class="cls-2" d="M547.57,298.2a2.34,2.34,0,0,1-.17-.68l.85.74h-.34Z"/><path class="cls-2" d="M746.72,288.65l.75-.75Z"/><polygon class="cls-1" points="606.27 1009.33 606.27 1009.34 606.26 1009.34 606.27 1009.33"/><path class="cls-1" d="M611.47,1010.84c-1.83,2-3.52,5.57-6.38,4.16s.69-3.69,1.18-5.66C607.91,1009.67,609.72,1009.28,611.47,1010.84Z"/><polygon class="cls-1" points="606.27 1009.33 606.27 1009.34 606.26 1009.34 606.27 1009.33"/><path class="cls-2" d="M193.3,888.38l42.87,66.84,43-66.84a6.92,6.92,0,0,1,6.14-3.49c4.1,0,6.74,1.81,6.74,4.94a6.69,6.69,0,0,1-1.44,3.85l-47.69,72.5a8.12,8.12,0,0,1-13,0L182,893.56a5.9,5.9,0,0,1-1.33-3.73c0-3.13,2.53-4.94,6.63-4.94A7,7,0,0,1,193.3,888.38Z"/><path class="cls-2" d="M316.62,901.15c-4.7,0-7-1.93-7-5.78s2.29-5.78,7-5.78,7,1.92,7,5.78S321.19,901.15,316.62,901.15Zm-6.39,13.61c0-3.26,2.17-5.06,6.39-5.06s6.38,1.8,6.38,5.06v49.61c0,3.37-2.17,5.06-6.38,5.06s-6.39-1.69-6.39-5.06Z"/><path class="cls-2" d="M423.55,955.34c0,9-9.15,13.49-27.45,13.49h-47c-3.85,0-6-1.57-6-4.7s2.17-4.7,6-4.7h47c9.87,0,14.81-1.44,14.81-4.09v-6.75c0-2.77-4.94-4.09-14.81-4.09H371.29c-18.43,0-27.46-4.33-27.46-13.13v-5.66c0-10.23,9.4-15.41,28.3-15.41h16.5c4,0,6.14,1.69,6.14,4.82s-2.29,4.69-6.14,4.69h-16.5c-10.47,0-15.77,1.93-15.77,5.9V931c0,3.25,5.3,4.94,15.65,4.94h24.81q26.73,0,26.73,12.28Z"/><path class="cls-2" d="M451,901.15c-4.69,0-7-1.93-7-5.78s2.29-5.78,7-5.78,7,1.92,7,5.78S455.59,901.15,451,901.15Zm-6.38,13.61c0-3.26,2.17-5.06,6.38-5.06s6.39,1.8,6.39,5.06v49.61c0,3.37-2.17,5.06-6.39,5.06s-6.38-1.69-6.38-5.06Z"/><path class="cls-2" d="M511.1,968.83c-20.83,0-31.19-6.39-31.19-19V929.45c0-12.77,10.36-19.15,31.19-19.15h23.25c20.83,0,31.19,6.38,31.19,19.15V949.8c0,12.64-10.36,19-31.19,19Zm41.55-39.5c0-6.14-6-9.16-17.94-9.16H510.62c-11.8,0-17.82,3-17.82,9.16v20.59c0,6,6,9.15,17.82,9.15h24.09c11.92,0,17.94-3.13,17.94-9.15Z"/><path class="cls-2" d="M660.43,929.45c0-6.26-6-9.28-17.94-9.28H618.4c-11.8,0-17.82,3-17.82,9.28v34.92c0,3.37-2.17,5.06-6.38,5.06s-6.38-1.69-6.38-5.06V929.45q0-19.16,31.07-19.15h23.24q31.07,0,31.07,19.15v34.92c0,3.37-2.17,5.06-6.39,5.06s-6.38-1.69-6.38-5.06Z"/><path class="cls-2" d="M774.48,895.37H741.6c-4,0-6-1.57-6-4.94s2-4.94,6-4.94h78.64c4.09,0,6.14,1.69,6.14,4.82q0,5.06-6.14,5.06H787.48v69c0,3.37-2.17,5.06-6.38,5.06-4.46,0-6.62-1.69-6.62-5.06Z"/><path class="cls-2" d="M845.89,943.54v7.34c0,5.66,5.54,8.55,16.74,8.55h17.82c4,0,6,1.57,6,4.7s-2,4.7-6,4.7H862.63c-19.51,0-29.38-5.91-29.38-17.83V927.4c0-11.32,8.79-17.1,26.25-17.1h34.8c17.1,0,25.65,5.18,25.65,15.41V939.2c0,2.89-1.93,4.34-5.54,4.34Zm0-8.31h60.45c.73,0,1-.36,1-.85v-6.26c0-5.54-4.58-8.31-14-8.31H860.22c-9.63,0-14.33,2.77-14.33,8.31Z"/><path class="cls-2" d="M970.65,968.83c-20.83,0-31.19-6.39-31.19-19V929.45c0-12.77,10.36-19.15,31.19-19.15h41.67c4.09,0,6.26,1.69,6.26,4.94s-2.17,4.93-6.26,4.93H970.17c-11.8,0-17.82,3-17.82,9.16v20.59c0,6,6,9.15,17.82,9.15h42.15c4.09,0,6.26,1.57,6.26,4.82s-2.17,4.94-6.26,4.94Z"/><path class="cls-2" d="M1112.51,929.21c0-6-5.78-9-17-9h-43.71v44.2c0,3.37-2.17,5.06-6.38,5.06s-6.38-1.69-6.38-5.06V888.26c0-3.25,2.16-5,6.38-5s6.38,1.8,6.38,5v22h42.51q31.07,0,31.07,19.15v34.92c0,3.37-2.17,5.06-6.38,5.06s-6.51-1.69-6.51-5.06Z"/></svg>