<svg id="Layer_1" data-name="Layer 1" xmlns="http://www.w3.org/2000/svg" viewBox="0 0 1280 1280"><defs><style>.cls-1,.cls-2,.cls-3{fill:#e92a47;stroke:#f2f2f3;stroke-miterlimit:10;}.cls-1{stroke-width:6px;}.cls-2{stroke-width:4px;}.cls-3{stroke-width:2px;}</style></defs><path class="cls-1" d="M484,916.05q-16.63-19.78-33.36-39.48-11.79-13.83-23.76-27.52c-3.47-4-5.95-8.15-5.93-13.71q.06-18.35-.27-36.68-1.67-.95-3.3-1.92a8.5,8.5,0,0,0-3.61-1.5l-.75-.62,0,0a1.6,1.6,0,0,1-1.45-.64l0,0-.74-.63h0a1.63,1.63,0,0,1-1.45-.66h0l-.74-.63,0,0a1.63,1.63,0,0,1-1.46-.65v0l-.74-.62-.74,0h0l-.73-.61v0l0,0c-.25-.21-.48-.42-.73-.62l-.74-.06a4.6,4.6,0,0,1-3.7-1.94h0a2.33,2.33,0,0,1-2.23-1.32,1.62,1.62,0,0,1-1.47-.66h0a2.26,2.26,0,0,1-2.21-1.31l0,0c-.25-.2-.49-.41-.74-.63-.24,0-.48,0-.73,0l-.76-.63h0c-.25-.22-.5-.42-.74-.64l-.72,0-.38-.32-.38-.33-.76-.64c-.24-.22-.49-.43-.74-.64l-1.46,0a6.76,6.76,0,0,1-.76-.64q-.36-.33-.75-.63c-.24,0-.48,0-.73,0l-.76-.64h0a1.62,1.62,0,0,1-1.45-.67h0c-.77.08-1.36.15-1.8.24a34.43,34.43,0,0,1,4.67,6.31A14.28,14.28,0,0,1,389,790.1a13.57,13.57,0,0,1,1.33,3c.54.62,1.07,1.25,1.56,1.9a45.51,45.51,0,0,1,5.88,10.82c2.31,3,4.17,6.37,6.33,9.52a15.67,15.67,0,0,1,2.11,2.68c.43.74,1,1.4,1.44,2.13a18.29,18.29,0,0,1,1.13,2,19.48,19.48,0,0,1,3.08,5.45q.42.63.78,1.29a24.48,24.48,0,0,1,3.5,5.38,3.06,3.06,0,0,1,.53,1.47,71.55,71.55,0,0,1,4.58,8.66A19.83,19.83,0,0,1,425.3,851a61.48,61.48,0,0,1,7.9,10.91l.87,1.65c.28.42.55.85.82,1.29,1.5,2.43,2.84,4.94,4.32,7.38.49.81,1,1.6,1.56,2.4a18.69,18.69,0,0,1,3.06,3.61l.15.18.27.3,1.14,1.22c2.75,2.92,5.49,5.83,8.15,8.8.28.3.56.6.83.92s.57.63.85.94.32.39.49.58l.56.63c1.32,1.56,2.53,3.1,3.6,4.65a75.78,75.78,0,0,1,9.93,10.71,21.55,21.55,0,0,1,2.86,4.92,19.83,19.83,0,0,1,3.57,5.25c7.81,9.38,15.63,18.75,23.1,28.32,6.23,8,12.49,15.93,19.28,23.57a71.22,71.22,0,0,1,6.8,8.55c.27.42.53.85.79,1.28a13.63,13.63,0,0,1,2,3.34A20.54,20.54,0,0,1,535,991c.75.79,1.48,1.58,2.23,2.36,1.11,1.19,2.26,2.37,3.39,3.55l0,0a8.41,8.41,0,0,1,3.74,3.84l0,0c.09.1.2.2.31.3.34.35.68.71,1,1l.35.34c7.17,7.18,14.61,14.16,22.51,20.76a30.06,30.06,0,0,1,5,5.31,21.52,21.52,0,0,1,3.47,2.48l3.39,3.88a14.08,14.08,0,0,1,1.37,2.33l3.33,3c7.08,6.43,13.59,13.34,20.93,19.54a3.19,3.19,0,0,1,1.1,1.68,90.31,90.31,0,0,1,9.5,8.33c.64.48,1.29,1,1.94,1.5,1,.83,2,1.71,2.94,2.63,1.2,1.15,2.33,2.37,3.43,3.62l.11.11c2.61,2.43,5.23,4.87,7.82,7.3h0c.48.33,1,.67,1.41,1Zm-20.93-18.68c-.82-1-1.61-2-2.41-3,1.48,1.48,2.86,3,4.21,4.62A8,8,0,0,1,463.07,897.37Zm27.29-52.13c-.23-.32-.27-.52-.19-.65-.31.15,0,.54.28.87Zm1.69-.86c-.87-.4-5.63-5.89-5.72-6.84-.23-2.54-4.44-3.77-6.55-5.36a7.74,7.74,0,0,1-1.82-2.06c.24.57.47,1.32.59,1.52,1.74,2.79,2,3.54,4.83,5-1.06,1.26,3.15,2.91,4,4,.13.16-1,1.47.4.49,1.21-.82,2,2.06,2.93,3.26C491.74,844.39,493.68,845.13,492.05,844.38Zm-1.21.2.33.74c.05.15-.21.22-.6.25a4.61,4.61,0,0,0,.46.4c3.81,4.08,7.59,6.67,10.52,11.33C498.62,852.64,494.65,848.66,490.84,844.58ZM692,963.76l0,0a11,11,0,0,0-4,2.6c-.12.13-.24.26-.35.4a2,2,0,0,0-.2.22l-.42.57-.14.19a11.73,11.73,0,0,1-1.69,2h0c-.21.22-.44.42-.68.63s-.39.35-.6.52l-1.32,1.12-.66.57-.48.43-.3.27-.47.47c-.21.22-.41.43-.6.66-2.51,2.95-5.48,5.58-8.27,8.35,0,.09-.09.18-.14.27a1.32,1.32,0,0,1-.16.25s0,0,0,0a1.37,1.37,0,0,1-.18.24l0,0a1.8,1.8,0,0,1-.19.2,4,4,0,0,1-.58.49h0a6.45,6.45,0,0,1-.82.46,1.3,1.3,0,0,1-.1.15h0a4.78,4.78,0,0,1-.29.44v0c-.12.15-.23.28-.35.41a6.83,6.83,0,0,1-.79.73,5.92,5.92,0,0,1-.48.35l-.31.2-.23.14c-.28.16-.56.31-.85.45s-.48.24-.73.34c-.58.26-1.18.5-1.77.74.49.3.61.6.4.89l0,.06-.13.13a2,2,0,0,1-.26.18c0,.23-.07.45-.11.68-.22.19-.44.4-.64.59l-.07.07-.67.6,0,0,0,0c-.21.19-.45.38-.66.59-.52.24-1,.49-1.55.75a1.42,1.42,0,0,1-1.4.56,3.17,3.17,0,0,0-1.61,1.42l-.62.56-.11.11c-.22.18-.43.35-.65.55a16.06,16.06,0,0,1-1,1.29h0c-.23.27-.47.53-.73.78l-.08.09-.09.09c-.23.22-.46.45-.7.66s-.51.46-.77.67c-1.41,1.2-2.94,2.3-4.41,3.44l-1.19.95a1.2,1.2,0,0,1-.18.2.77.77,0,0,1-.52.25l-.15,0a.34.34,0,0,1-.15-.07l-.1-.07a1.19,1.19,0,0,1-.31-.32c0-.16,0-.31,0-.46v0a1.15,1.15,0,0,1,0-.19c-.27-.2-.51-.42-.76-.64a2.7,2.7,0,0,1-2.42-1.57,2.43,2.43,0,0,0-.14-.2,1,1,0,0,0-.16-.2.49.49,0,0,0-.13-.12.91.91,0,0,0-1-.19c-.82.29-.59,1-.66,1.62a2.54,2.54,0,0,1-.7.3c-1.17.29-1.85-.63-2.62-1.28.75.74,4.5,5.76,7.05,8.53,0,24.07,0,58.89-.09,83.12v1.35a.1.1,0,0,0,0,0c1.32-.88.66-2,.66-3q0-39.12-.06-78.24c0-.71,0-1.42.09-2.14l0-.29c0-.17,0-.33,0-.5v0a.19.19,0,0,1,0-.08,1,1,0,0,1,.23-.56h0a1.48,1.48,0,0,1,1.15-.52h.09c2.12-1.89,3.85-4.1,6.3-5.69l.37-.25c1.14-1.33,2.35-2.62,3.6-3.86l.94-.93c.62-.63,1.26-1.24,1.89-1.84,2.89-2.73,5.87-5.39,8.69-8.18q5.92-5.88,11.9-11.71c4-3.88,8-7.76,11.92-11.66l.08-.1a2,2,0,0,0,.26-.41.25.25,0,0,0,0-.07l.09-.21c0-.09.08-.19.13-.28Z"/><path class="cls-1" d="M636.47,1001.35c-49-50.86-101.11-105.09-145.77-156.94-1-1.2-1.72-4.08-2.93-3.26-1.44,1-.27-.33-.4-.49-.84-1.07-5.05-2.72-4-4-3.39-1.6-4.13-4-5.88-7.24-1.82-1.12-5.56-1.45-5-4.54-35-8-58.12-52.41-51.58,10.44,37.48,63.14,170.37,197.53,219.21,256.57-.14-.2-.3-.41-.45-.61,1.12.81,4.14,4.79,3.78,1.76C639.71,1066.67,652.4,1022.55,636.47,1001.35ZM500.68,858.07a24.47,24.47,0,0,0,2.6,3.4c-1.66-1.34-2.42-3.2-3.74-4.78A4.71,4.71,0,0,1,500.68,858.07Z"/><path class="cls-1" d="M544.42,1000.78c-1.27-1.27-2.51-2.55-3.75-3.84A8.38,8.38,0,0,1,544.42,1000.78Z"/><path class="cls-1" d="M616.74,1069.85c-.54-.4-1.07-.78-1.61-1.15-.37-.26-.74-.51-1.12-.75s-.62-.43-.94-.63c-.34-.42-.7-.81-1.06-1.2-.17-.19-.34-.37-.52-.55-.37-.39-.76-.78-1.15-1.15s-1-.9-1.5-1.34l-.2-.16c-.38-.32-.73-.62-1.12-.91a2.87,2.87,0,0,1-.28-.48A91.39,91.39,0,0,1,616.74,1069.85Z"/><path class="cls-1" d="M625.15,1077.72c2.62,2.43,5.24,4.87,7.83,7.3-.53-.36-1.05-.7-1.61-1s-1.23-.71-1.86-1c-.82-1-1.66-2-2.5-3.06C626.39,1079.16,625.79,1078.43,625.15,1077.72Z"/><path class="cls-1" d="M639.84,1002.39a2.68,2.68,0,0,1-.69.3s0-.07,0-.1,0-.2,0-.31c-.07-.93.07-1.88,1.28-2.07,1.71-.28,2.54,1.11,3.64,1.93.19.14.36.27.55.43l.2.19.26.24.26.21.05,0,.29.22a1.34,1.34,0,0,0,1.1-.21c2.56-2.42,5.65-4.36,7.86-7,.22-.22.45-.43.68-.63l.33-.3a5.19,5.19,0,0,1,.62-.62,5.3,5.3,0,0,1,1.73-1.29c.51-.22,1-.4,1.54-.63l1.38-.74.63-.37a3.21,3.21,0,0,1,.3-.21l.52-.46.24-.28c.1-.19.24-.38.35-.57s.17-.46.23-.67a4.16,4.16,0,0,1,.39-1.51c1.88-1.14,4-2,5.44-3.64l.7-.59a12.84,12.84,0,0,0,1-1,6.68,6.68,0,0,0,.67-.74c5-6,11.1-11,16.41-16.72a4.23,4.23,0,0,1,4.11-1.67s0,.06.06.09a10.5,10.5,0,0,0-5.11,4c-1.74,2.6-4.75,4.22-6.81,6.65-2.51,2.94-5.48,5.58-8.27,8.35a4,4,0,0,1-2.12,2c-1.26,2.16-3.63,3-5.92,4,.69.44.65.85,0,1.26,0,.24-.07.46-.11.69-.22.19-.44.4-.64.59l-.08.07c-.23.2-.44.39-.66.6l-.08.06-.67.58-1.55.76a1.4,1.4,0,0,1-1.39.56,3.15,3.15,0,0,0-1.61,1.41c-.2.19-.42.37-.62.57l-.11.1-.65.55c-2.29,3.28-5.89,5.42-9,8-.48.62-1,.62-1.41,0,0-.23,0-.45,0-.68-.27-.21-.52-.43-.76-.64a2.7,2.7,0,0,1-2.42-1.57c-.28-.45-.71-.94-1.38-.71S639.92,1001.8,639.84,1002.39Z"/><path class="cls-1" d="M682.68,974.74c-.56.56-1.12,1.1-1.66,1.66a5.48,5.48,0,0,1,.76-.91,5.92,5.92,0,0,1,.45-.41A5.3,5.3,0,0,1,682.68,974.74Z"/><path class="cls-1" d="M646.09,1041.59v8.89a22.71,22.71,0,0,1-.05-8.54C646.06,1041.82,646.07,1041.71,646.09,1041.59Z"/><path class="cls-1" d="M646.14,1075.19a21.74,21.74,0,0,1-.38-6.14c.36-3.9-.2-7.83.33-11.74C646.09,1063.27,646.11,1069.24,646.14,1075.19Z"/><path class="cls-1" d="M650.27,1091.18a2.25,2.25,0,0,1-.28,1c-.29.24-.59.49-.88.75a0,0,0,0,1,0,0,3.09,3.09,0,0,1-1.05.22A4.06,4.06,0,0,1,650.27,1091.18Z"/><path class="cls-1" d="M755.9,989.87h0Z"/><path class="cls-1" d="M645.63,1009.63a3.18,3.18,0,0,1,.08-.65c0-.06,0-.08.09,0h0C646,1009.24,645.84,1009.45,645.63,1009.63Z"/><path class="cls-1" d="M646.36,888.51c-58.84-16.73-117.05-40.2-173.79-63.66,48.5,54.71,123.29,135.56,172.25,185.29C648.45,973.57,645,923,646.36,888.51Zm-3.6,119.68c0-.18.18.12.41.62C642.87,1008.47,642.7,1008.23,642.76,1008.19Z"/><path class="cls-1" d="M460.66,894.35c1.48,1.49,2.86,3,4.21,4.62a8.15,8.15,0,0,1-1.8-1.6C462.25,896.37,461.46,895.37,460.66,894.35Z"/><path class="cls-1" d="M381.78,777.49c.38.43,1.09.28,1.46.67A1.62,1.62,0,0,1,381.78,777.49Z"/><path class="cls-1" d="M393.69,784.07c.68.51,1.5.84,2.21,1.32A2.25,2.25,0,0,1,393.69,784.07Z"/><path class="cls-1" d="M395.92,785.39c.38.4,1.07.27,1.47.66A1.63,1.63,0,0,1,395.92,785.39Z"/><path class="cls-1" d="M397.39,786.05c.71.49,1.52.83,2.23,1.31A2.31,2.31,0,0,1,397.39,786.05Z"/><path class="cls-1" d="M399.64,787.36c1.11.83,2.55,1.18,3.7,1.95A4.57,4.57,0,0,1,399.64,787.36Z"/><path class="cls-1" d="M407.07,791.31c.39.4,1.07.26,1.46.66A1.62,1.62,0,0,1,407.07,791.31Z"/><path class="cls-1" d="M409.3,792.63c.39.4,1.07.26,1.46.66A1.66,1.66,0,0,1,409.3,792.63Z"/><path class="cls-1" d="M413,794.59a1.58,1.58,0,0,1-1.45-.65C411.92,794.34,412.6,794.2,413,794.59Z"/><path class="cls-1" d="M403.34,789.31a4.57,4.57,0,0,1-3.7-1.95A4.88,4.88,0,0,1,403.34,789.31Z"/><path class="cls-1" d="M395.9,785.39a2.25,2.25,0,0,1-2.21-1.32A2.31,2.31,0,0,1,395.9,785.39Z"/><path class="cls-1" d="M399.62,787.36a2.31,2.31,0,0,1-2.23-1.31A2.31,2.31,0,0,1,399.62,787.36Z"/><path class="cls-1" d="M413,794.59a1.58,1.58,0,0,1-1.45-.65A1.6,1.6,0,0,1,413,794.59Z"/><path class="cls-1" d="M410.76,793.29a1.66,1.66,0,0,1-1.46-.66A1.56,1.56,0,0,1,410.76,793.29Z"/><path class="cls-1" d="M408.53,792a1.62,1.62,0,0,1-1.46-.66A1.62,1.62,0,0,1,408.53,792Z"/><path class="cls-1" d="M397.39,786.05a1.63,1.63,0,0,1-1.47-.66A1.63,1.63,0,0,1,397.39,786.05Z"/><path class="cls-1" d="M383.24,778.16a1.62,1.62,0,0,1-1.46-.67A1.66,1.66,0,0,1,383.24,778.16Z"/><path class="cls-1" d="M386.26,780.11l-.76-.64Z"/><path class="cls-1" d="M405.58,790.63l-.74-.61Z"/><path class="cls-1" d="M407.06,791.3l-.74-.63Z"/><path class="cls-1" d="M821.9,828.69a1.31,1.31,0,0,1-.2.23l-.06.09c-.43.52-.87,1.07-1.27,1.59-.78,1-1.59,2-2.43,3-.32.39-.66.77-1,1.15l-.14.16,0,0-.43.43-.06.06c-8.85,8.94-17.13,18.35-25.78,27.43q-19.14,20.24-38.37,40.43a10.8,10.8,0,0,1-2.86,2.54,1.59,1.59,0,0,1-.08.33,1.66,1.66,0,0,1-.12.31,1.28,1.28,0,0,1-.11.2l-.05.08h0a3.87,3.87,0,0,1-.51.64c-.11.13-.25.26-.38.39h0l-.42.39-.08.08-.25.24-.24.24a2.53,2.53,0,0,0-.22.26,2.83,2.83,0,0,0-.59,1.19v0a2.24,2.24,0,0,1-.21-.88,1.32,1.32,0,0,1,0-.28c.14-1,1.07-1.59,1.82-2.34a3.31,3.31,0,0,0,.87-1.16c23.78-24.68,47.13-49.71,71.06-75.4l.13-.13c.12-.13.23-.26.37-.39a1.21,1.21,0,0,1-.18.05h0c-3,.93-5,1.73-7.1,2.42-.52.17-1,.37-1.56.5h0a2.91,2.91,0,0,1-2.62-.44c.23,0,.46-.06.72-.11,2.84-.41,5.36-1.65,8-2.52a15.87,15.87,0,0,1,2.16-.56c.32-.07.65-.12,1-.16S821.44,828.69,821.9,828.69Z"/><path class="cls-1" d="M883.1,795.27a5.81,5.81,0,0,1-.75.37,11,11,0,0,1-1.24.61c-.5.2-1,.41-1.51.58a1.94,1.94,0,0,1-.37.14l-.07,0-.22,0a.1.1,0,0,1-.06,0s-.09,0-.15.06a4.24,4.24,0,0,1-.66.2.11.11,0,0,1-.09,0c-.81.49-1.62,1-2.43,1.45,0,0,0,0-.06,0l-1.33.83a1.16,1.16,0,0,0-.26.15.39.39,0,0,0-.14.12h0c-.64.37-1.28.75-1.94,1.09a6.26,6.26,0,0,1-.78.38c-.29.15-.61.29-.93.43a1.31,1.31,0,0,1-.17.09c-.79.35-1.58.68-2.35,1h0l-.23.09c-.29.12-.58.23-.87.32l-1.15.46c-1,.52-2.12,1.07-3.16,1.62-.11.09-.26.18-.37.26-.55.41-1.1.78-1.68,1.16s-1,.67-1.54,1l-.2.12c-.55.32-1.1.64-1.65.93a41.82,41.82,0,0,1-4.68,2.22l-.5.29.67-.23c.78-.26,1.3-.43,1.59-.55h.06s0,0,0,0a2,2,0,0,0-.29.12l-.43.14-.76.29-1.44.58c-5.93,3.44-11.81,7-17.74,10.45-3.15,1.88-6.16,3.5-9.4,4l-2,.78.29.17a3.56,3.56,0,0,1,.72.44c1,.69,2.11.17,3.18-.2,1.86-.67,3.19-2,4.84-3q14.33-8.32,28.73-16.58c.68-.39,1.36-.78,2.05-1.15s1.19-.66,1.79-1c1.4-.76,2.8-1.49,4.2-2.24.68-.35,1.36-.71,2-1.08a28.62,28.62,0,0,0,9-4.34c1.65-1.07,3.33-2.08,5.06-3.06Z"/><path class="cls-1" d="M886.57,812.19a1.91,1.91,0,0,1-.17.32,1.83,1.83,0,0,1-.23.38,1.58,1.58,0,0,0,0-.38c-.06,0-.09,0-.15,0a.44.44,0,0,1-.17-.55,2.19,2.19,0,0,1,.17-.29c.06.29.09.55.15.81A3.28,3.28,0,0,0,886.57,812.19Z"/><path class="cls-1" d="M899.54,790.06a3.45,3.45,0,0,1-.81,2.22,6.57,6.57,0,0,0-.61.87C898.58,792.11,899,791.1,899.54,790.06Z"/><path class="cls-1" d="M897.05,796.28a2.05,2.05,0,0,0-.23.4c0-.06,0-.11,0-.17A.85.85,0,0,1,897.05,796.28Z"/><path class="cls-1" d="M899.54,790.06a3.45,3.45,0,0,1-.81,2.22,6.57,6.57,0,0,0-.61.87C898.58,792.11,899,791.1,899.54,790.06Z"/><path class="cls-1" d="M903.12,786.41l-.26.67c-.31.57-.63,1.12-.81,1.38-1,1.54-2,3-3,4.58A26.88,26.88,0,0,1,903.12,786.41Z"/><path class="cls-1" d="M891.52,807.5a.17.17,0,0,1,.09-.11.11.11,0,0,1,0,.09Z"/><path class="cls-1" d="M893.78,803.48c-.32.75-.64,1.48-.93,2.09a.42.42,0,0,0-.11.14c-.29.35-.52.69-.76,1,.41-.72.93-1.79,1.22-2.37A7.58,7.58,0,0,1,893.78,803.48Z"/><path class="cls-1" d="M879.16,797c-3.2,1.85-6.35,3.65-9.57,5.4-.67.37-1.35.73-2,1.08-1.4.75-2.8,1.48-4.2,2.24-.6.31-1.2.64-1.79,1s-1.37.76-2.05,1.15q-14.41,8.25-28.73,16.58c-1.65,1-3,2.29-4.84,3-1.07.37-2.22.89-3.18.2a3.56,3.56,0,0,0-.72-.44l-.29-.17s0,0-.06,0a91.53,91.53,0,0,0,11-5c3.7-2,7.26-4.26,10.88-6.34,1.79-1,3.61-2.08,5.49-3,.47-.23,1.1-.52,1.8-.78l1.44-.58.76-.29.43-.14a2,2,0,0,1,.29-.12s0,0,0,0h-.06c-.29.12-.81.29-1.59.55l-.67.23a5.73,5.73,0,0,1-1,.32l1.51-.61a41.82,41.82,0,0,0,4.68-2.22c.55-.29,1.1-.61,1.65-.93l.2-.12c.53-.31,1.05-.63,1.54-1s1.13-.75,1.68-1.16c.11-.08.26-.17.37-.26l1.22-1c.63-.2,1.27-.44,1.94-.67l1.15-.46c.29-.09.58-.2.87-.32l.23-.09h0c.77-.32,1.56-.65,2.35-1a1.31,1.31,0,0,0,.17-.09c.32-.14.64-.28.93-.43a6.26,6.26,0,0,0,.78-.38c.66-.34,1.3-.72,1.94-1.09h0a.39.39,0,0,1,.14-.12,1.16,1.16,0,0,1,.26-.15l1.33-.83s0,0,.06,0c.2-.18.41-.29.61-.44.35-.23.69-.46,1-.72a1.19,1.19,0,0,1,.29-.12,4.65,4.65,0,0,0,.49-.17.11.11,0,0,0,.09,0,4.24,4.24,0,0,0,.66-.2c.06,0,.12,0,.15-.06a.1.1,0,0,0,.06,0Z"/><path class="cls-1" d="M883.62,795c-1.73,1-3.41,2-5.06,3.07a29.18,29.18,0,0,1-9,4.34,4.13,4.13,0,0,1,.32-.46,1.31,1.31,0,0,0,.17-.09l.93-.43a6.26,6.26,0,0,0,.78-.38c.66-.35,1.3-.72,1.94-1.1h0a.48.48,0,0,1,.15-.11,1.16,1.16,0,0,1,.26-.15c.46-.29.9-.58,1.33-.84,0,0,0,0,.06,0a6.14,6.14,0,0,1,.61-.43c.34-.23.69-.46,1-.72a1,1,0,0,1,.29-.12l.49-.17a.11.11,0,0,0,.09,0,5.7,5.7,0,0,0,.66-.2c.06,0,.12,0,.15-.06a.07.07,0,0,0,0,0,1,1,0,0,0,.29-.09c.12,0,.24-.09.38-.14.49-.18,1-.38,1.5-.58a12.11,12.11,0,0,0,1.25-.61,5.85,5.85,0,0,0,.75-.38Z"/><path class="cls-1" d="M886.57,812.19a1.91,1.91,0,0,1-.17.32h-.26c-.06,0-.09,0-.15,0a.44.44,0,0,1-.17-.55,2.19,2.19,0,0,1,.17-.29c.06.29.09.55.15.81A3.28,3.28,0,0,0,886.57,812.19Z"/><path class="cls-1" d="M897.05,796.28a2.05,2.05,0,0,0-.23.4c0-.06,0-.11,0-.17A.85.85,0,0,1,897.05,796.28Z"/><path class="cls-1" d="M899.54,790.06a3.45,3.45,0,0,1-.81,2.22,6.57,6.57,0,0,0-.61.87C898.58,792.11,899,791.1,899.54,790.06Z"/><path class="cls-1" d="M453.54,888.75c.28.3.56.6.82.92-.29-.32-.58-.63-.86-.95C453.51,888.73,453.53,888.73,453.54,888.75Z"/><path class="cls-1" d="M460.66,894.35c1.48,1.49,2.86,3,4.21,4.62a8.15,8.15,0,0,1-1.8-1.6C462.25,896.37,461.46,895.37,460.66,894.35Z"/><path class="cls-1" d="M544.75,1001.11c.45.47.91.93,1.38,1.39l0,0C545.63,1002,545.2,1001.56,544.75,1001.11Z"/><path class="cls-1" d="M820.61,828.74c-.22.49-1.5,1.58-.2,1.65-57,61.72-113.36,123-175.41,175.72-.36-36-1.2-72.06-1.07-108.16-2.49-12.17,12.58-10.75,19.12-13.38C716.85,870.52,768.82,847.82,820.61,828.74Z"/><path class="cls-1" d="M646.09,1041.59v8.89a22.71,22.71,0,0,1-.05-8.54C646.06,1041.82,646.07,1041.71,646.09,1041.59Z"/><path class="cls-1" d="M646.14,1075.19a21.74,21.74,0,0,1-.38-6.14c.36-3.9-.2-7.83.33-11.74C646.09,1063.27,646.11,1069.24,646.14,1075.19Z"/><path class="cls-1" d="M646.48,1055.31a17.22,17.22,0,0,0-.39,2v-6.83a4.47,4.47,0,0,0,.14.61A8.83,8.83,0,0,1,646.48,1055.31Z"/><path class="cls-1" d="M682.68,974.74c-.56.56-1.12,1.1-1.66,1.66a5.48,5.48,0,0,1,.76-.91,5.92,5.92,0,0,1,.45-.41A5.3,5.3,0,0,1,682.68,974.74Z"/><path class="cls-1" d="M755.9,989.87h0Z"/><path class="cls-1" d="M817.1,837.51a.26.26,0,0,0-.14.18,15.31,15.31,0,0,0-1.16,1.13c-.18,0-.35,0-.55,0s-.35-.09-.55-.12a4.14,4.14,0,0,0,.84-.35A7,7,0,0,0,817.1,837.51Z"/><path class="cls-1" d="M671.75,982.69a4,4,0,0,1-2.12,2,1.91,1.91,0,0,1,.06-.94,1.23,1.23,0,0,1,1-1A2.76,2.76,0,0,1,671.75,982.69Z"/><path class="cls-1" d="M646.51,1004.4c-.48.62-1,.62-1.41,0C645.58,1004.37,646,1004.39,646.51,1004.4Z"/><path class="cls-1" d="M659.89,993.23a1.4,1.4,0,0,1-1.39.56A1.5,1.5,0,0,1,659.89,993.23Z"/><path class="cls-1" d="M663.68,989.88c0-.41,0-.83,0-1.26C664.4,989.06,664.36,989.47,663.68,989.88Z"/><path class="cls-1" d="M867.48,844.57c-.41.58-.81,1.16-1.19,1.74a17.19,17.19,0,0,0,.52-1.77A1.74,1.74,0,0,1,867.48,844.57Z"/><path class="cls-1" d="M886.57,812.19a1.91,1.91,0,0,1-.17.32,1.83,1.83,0,0,1-.23.38,1.58,1.58,0,0,0,0-.38v-.06A3.28,3.28,0,0,0,886.57,812.19Z"/><path class="cls-1" d="M894.73,801.2a1.49,1.49,0,0,0-.08.23c-.09.2-.18.4-.26.61.08-.26.2-.5.29-.76A.35.35,0,0,1,894.73,801.2Z"/><path class="cls-1" d="M897.05,796.28a2.05,2.05,0,0,0-.23.4c0-.06,0-.11,0-.17A.85.85,0,0,1,897.05,796.28Z"/><path class="cls-1" d="M776.11,967.58c-.54.74-1.07,1.48-1.6,2.23l1.55-2.19S776.08,967.59,776.11,967.58Z"/><path class="cls-1" d="M755.9,989.87h0Z"/><path class="cls-1" d="M756.9,989.57q-.25.46-.48,1a1.36,1.36,0,0,0-.52-.66A1.67,1.67,0,0,0,756.9,989.57Z"/><path class="cls-1" d="M867.48,844.57c-.41.58-.81,1.16-1.19,1.74a17.19,17.19,0,0,0,.52-1.77A1.74,1.74,0,0,1,867.48,844.57Z"/><path class="cls-1" d="M650.27,1091.18a2.25,2.25,0,0,1-.28,1,1.6,1.6,0,0,1-.88.75,0,0,0,0,1,0,0,3.09,3.09,0,0,1-1.05.22A4.06,4.06,0,0,1,650.27,1091.18Z"/><path class="cls-1" d="M651.75,1089.87l-.72.64Z"/><path class="cls-1" d="M651,1090.53l-.74.64C650.52,1091,650.77,1090.75,651,1090.53Z"/><path class="cls-1" d="M648,1093.15l-.72.65Z"/><path class="cls-1" d="M455.71,891.19l.56.63-.08-.06C456,891.57,455.87,891.38,455.71,891.19Z"/><path class="cls-1" d="M460.66,894.35c1.48,1.49,2.86,3,4.21,4.62a8.15,8.15,0,0,1-1.8-1.6C462.25,896.37,461.46,895.37,460.66,894.35Z"/><path class="cls-1" d="M503.28,861.47a9.66,9.66,0,0,1-2.4-3C501.66,859.51,502.45,860.51,503.28,861.47Z"/><path class="cls-1" d="M730.34,924.88h0l-.19.19c-3.11,3.06-6.11,6.42-9.16,9.63-.23.23-.45.47-.67.7-1,1-1.93,2-2.91,2.92.4-.24.75-.47,1.1-.7a23.29,23.29,0,0,0,1.79-1.5l.2-.18h0l0-.05a11.2,11.2,0,0,0,1-1.09,2.12,2.12,0,0,0,.2-.24l.69-.86.92-1.11c.23-.29.47-.57.72-.85l0,0c.24-.29.49-.58.74-.86s.38-.44.58-.65.52-.58.79-.86.66-.7,1-1c.82-.84,1.68-1.65,2.59-2.42l.63-.53a2.5,2.5,0,0,1,.4-.35s0,0,.06,0l.14-.11.12-.1s0-.08,0-.11a4.26,4.26,0,0,1,.26-.81Q730.88,924.34,730.34,924.88Zm84.36-86.21c.2,0,.37.09.55.12l.29-.47A4.14,4.14,0,0,1,814.7,838.67Zm.84-.35a4.14,4.14,0,0,1-.84.35c.2,0,.37.09.55.12s.37,0,.55,0a15.31,15.31,0,0,1,1.16-1.13.26.26,0,0,1,.14-.18A7,7,0,0,1,815.54,838.32Zm6.51-11.17-.29-.17-1.15,1.76h0l-.14.22-.1.14-.31.49-.15.22-.17.25-3.41,5.26.43-.43,0,0,.14-.16c.37-.38.71-.76,1-1.15.84-1,1.65-2,2.43-3,.4-.52.84-1.07,1.27-1.59l.06-.09a1.31,1.31,0,0,0,.2-.23C820.69,828.69,821.76,827.62,822.05,827.15Zm-168.3,260.32c-.1.09-.19.19-.28.28-1.37,1.37-2.34,2.49-1.72,2.12h0a10.76,10.76,0,0,1,3.71-3.3l.75-.66c.23-.23.49-.44.72-.67l1.48-1.3a.27.27,0,0,0,0-.15C658.45,1083.09,655.76,1085.47,653.75,1087.47Zm-.74,2a7.6,7.6,0,0,1-1.25.35c-.11.49.73,0,.46.35.06-.06.15-.12.21-.17s.32-.27.46-.38.14-.12.23-.2S653,1089.49,653,1089.51Z"/><path class="cls-1" d="M902.43,782v0c-3.47,2.29-6.68,4.95-10.73,6.48a29.43,29.43,0,0,1-2.49,2.35s0,0,0,0a28.86,28.86,0,0,1-5,3.76.85.85,0,0,0-.14.09,2.73,2.73,0,0,0-.38.23c-1.73,1-3.41,2-5.06,3.06a28.62,28.62,0,0,1-9,4.34c-.67.37-1.35.73-2,1.08q0,14.79.12,29.58c0,7.89-2.58,13.74-7.64,19.32-13.43,14.84-25.9,30.5-39.29,45.39-17.9,19.9-35,40.54-53.28,60.09-5.28,6.54-11.12,12.59-16.66,18.9-21.7,24.72-43.83,49-65.83,73.5-11.85,13.18-23.62,26.44-35.67,39.45-2.28,2.46-3.81,4-5.13,4.76a4.88,4.88,0,0,1-.62.29.81.81,0,0,0,0-.16,1.93,1.93,0,0,0,0-.24c1.32-.88.66-2,.66-3q0-39.12-.06-78.24c0-.71,0-1.42.09-2.14.31.51.62.86.87.77a.36.36,0,0,0,.18-.17c.23.15.4.22.52.19s-.11-.21-.38-.51a9.07,9.07,0,0,0,.21-1.61c.21-.18.34-.39.17-.66h0c2.12-1.89,3.85-4.1,6.3-5.69a47.51,47.51,0,0,0-5.46,3.06,3.61,3.61,0,0,1-1.7,1.29c-.72.36-1.36.7-1.36,1.44v.88c0,24.07,0,58.89-.09,83.12v1.56a2.84,2.84,0,0,1-1.54,0l-.08,0,.18.31c.19.33.36.66.54,1a7.47,7.47,0,0,0,.95.54c0,.7.05,1.41,0,2s.58-1,.79-2.35c1-.65,1.71-1.74,2.94-2.2a1.8,1.8,0,0,1,.4,0c.29-.09,3.62,2.76,3.85,2.61l-1.54-4.28.32-.27c.09-.09,2.69,2,2.78,1.94s-2-2.58-1.85-2.75a1.47,1.47,0,0,1,.32-.29c.2-.18.43-.35.63-.55.27-.38-.57.14-.46-.35h0c-.62.37.35-.75,1.72-2.12.09-.09.18-.19.28-.28,2-2,4.7-4.38,4.7-3.69a.27.27,0,0,1,0,.15l-1.48,1.3c-.23.23-.49.44-.72.67l-.75.66a10.76,10.76,0,0,0-3.71,3.3,7.6,7.6,0,0,0,1.25-.35c2.4-2.25,9.49-8.94,9.86-9.23,15.28-14.46,30.39-29.08,46.36-42.94,4.69-4,9.29-8.19,13.74-12.41,7.38-7,14.9-13.89,23-20.26.29-.57.6-1.12.92-1.67a19.36,19.36,0,0,1,2.55-3.13,20.69,20.69,0,0,1,2.92-3.07c.9-.66,1.85-1.33,2.81-2,0,0,0,0,0,0a2.74,2.74,0,0,1,.87-1c1-1.1,2-2.2,3-3.3a111.73,111.73,0,0,1,8.16-9.73c.6-1,1.21-2,1.76-2.8,1-1.48,2-3,3-4.49,0,0,.06-.06.06-.08.4-.58.84-1.19,1.21-1.8s.84-1.18,1.25-1.79l.63-.88.11-.15.1-.15.72-1,0,0,.95-1.3c1.19-1.57,2.4-3.13,3.65-4.63,1.94-2.32,3.93-4.57,5.9-6.83-1.36,1.24,2.61-2.84,3.21-3.59,1.65-2.05,3.24-4.14,4.84-6.22,5.2-6.89,11.66-13.22,16.87-20,3.93-5.12,6.1-9.75,10.9-15.57a19.79,19.79,0,0,1,3.45-2.95c.14-.26.32-.49.49-.75a16.24,16.24,0,0,1,2.78-3.3c.17-.26.32-.55.52-.81a27,27,0,0,1,5.29-6.86l0,0c.2-.38.41-.72.64-1.07l2-3c.31-.52.66-1,1-1.56l4.8-7.41c6.86-10.68,13.49-21.47,20.55-32,.14-.18.26-.35.37-.52l1.39-2c.17-.26.38-.52.55-.78v0a17.19,17.19,0,0,0,.52-1.77,2.25,2.25,0,0,1,.67,0c.32-.43.63-.89,1-1.36.9-1.3,1.79-2.6,2.72-3.87,1.56-2.14,3.13-4.26,4.72-6.34a42.79,42.79,0,0,1,3.21-3.73,26.35,26.35,0,0,1,2.17-3.53c.46-1,.9-1.94,1.39-2.9.78-1.56,1.62-3.09,2.46-4.63.43-.78.87-1.53,1.3-2.28s.84-1.51,1.27-2.26q2.26-4,4.58-8c.17-.31.31-.55.46-.78v0c.14-.2.23-.37.32-.52a.62.62,0,0,0,.11-.17.68.68,0,0,1,.15-.17h0s0,0,0,0a.51.51,0,0,1-.06.15.39.39,0,0,1-.06.17,6.76,6.76,0,0,1,.58-.89s0,0,0-.06L894,803c.15-.31.29-.63.41-1s.2-.49.29-.75l0,0,0,0c.12-.32.26-.64.38-.93.46-1.18.9-2.17,1.13-2.63s.38-.64.58-.95c0-.06,0-.12,0-.18a1,1,0,0,1,.2-.23c.32-.55.66-1.13,1-1.68s.64-1,1-1.56a26.3,26.3,0,0,1,4.08-6.63l0,0c.21-.55.41-1.1.64-1.65,0,0,0,0,0-.05.14-.44.32-.87.49-1.31a.72.72,0,0,0,.12-.23c.49-1.18,1-2.37,1.56-3.53A33.27,33.27,0,0,0,902.43,782ZM650.24,1091.46a2.25,2.25,0,0,1-.14.48l-.09.18-.24-.67a1.1,1.1,0,0,1,.21-.14h0l.19-.08.09,0h0C650.27,1091.28,650.26,1091.38,650.24,1091.46ZM756.42,990.53a.89.89,0,0,0-.15-.29l0-.07-.14-.15-.17-.14h0a3,3,0,0,0,.59-.08l.19-.07h0l.1-.07a.31.31,0,0,0,.09-.07v0c-.07.15-.14.31-.22.46S756.49,990.37,756.42,990.53Zm130-178a1.6,1.6,0,0,1-.23.38,1.63,1.63,0,0,0,0-.38c-.06,0-.09,0-.14,0a.44.44,0,0,1-.18-.55.38.38,0,0,1,.18-.28c0,.28.08.54.14.81a2.8,2.8,0,0,0,.43-.27A1.58,1.58,0,0,1,886.4,812.51Zm12.33-20.22a7.67,7.67,0,0,0-.61.87c.46-1,.93-2.06,1.42-3.1A3.49,3.49,0,0,1,898.73,792.29ZM750.61,905q19.23-20.19,38.37-40.43c8.65-9.08,16.93-18.49,25.78-27.43l.06-.06a22.05,22.05,0,0,0,1.62-1.76c.11-.12.21-.25.31-.37l-.43.43-.06.06c-8.85,8.94-17.13,18.35-25.78,27.43q-19.14,20.24-38.37,40.43a10.8,10.8,0,0,1-2.86,2.54,2,2,0,0,1-.08.33,1.66,1.66,0,0,1-.12.31,2,2,0,0,1-.11.2l-.05.08C749.53,906.18,750,905.54,750.61,905Zm-5.23,6h0a.75.75,0,0,0,.76-.64h0A.75.75,0,0,0,745.38,910.93Zm-10,10a67.19,67.19,0,0,1,9.12-10.28l1.48-1.42a.6.6,0,1,0,.17-.16A.16.16,0,0,0,746,909c-5.56,2.06-5,6-8.48,8.33.14.72-3.59,4.2-4.11,4.67s-1.33,1.18-2,1.85a4.26,4.26,0,0,0-.26.81s0,.06,0,.11l-.12.1a2.7,2.7,0,0,0,1.09-.23C733.11,924.22,734.78,921.8,735.36,921Zm-6.45,6.1a2.55,2.55,0,0,1,.41-.35s0-.05,0-.05.18-.15.26-.21,0-.08,0-.11a3.31,3.31,0,0,1,.12-.45c-.91.77-1.77,1.58-2.59,2.42-.34.34-.68.69-1,1s-.53.57-.79.86l-.58.65c-.25.28-.5.57-.74.86A43.52,43.52,0,0,1,728.91,927.06ZM717,939.33a21.52,21.52,0,0,0,1.79-1.5l.26-.24a11.2,11.2,0,0,0,1-1.09,2.12,2.12,0,0,0,.2-.24l.25-.31-.2.18a23.29,23.29,0,0,1-1.79,1.5c-.35.23-.7.46-1.1.7-.7.67-1.4,1.31-2.1,1.95.21-.08.41-.16.6-.25C716.29,939.79,716.64,939.56,717,939.33Zm-25,24.43-.12.29c0-.09.08-.19.13-.28Zm-.49,1-.09.09L679.49,976.5c4-3.88,8-7.76,11.92-11.66Zm-45.26,86.35a4.47,4.47,0,0,1-.14-.61v6.83a17.22,17.22,0,0,1,.39-2A8.83,8.83,0,0,0,646.23,1051.09Zm-.47,18a21.74,21.74,0,0,0,.38,6.14c0-6,0-11.92,0-17.88C645.56,1061.22,646.12,1065.15,645.76,1069.05Zm.28-27.11a22.71,22.71,0,0,0,.05,8.54v-8.89C646.07,1041.71,646.06,1041.82,646,1041.94Z"/><path class="cls-1" d="M867.56,803.49c-61.48,27.18-98.22,87.5-143.5,128.25-73.47,82.72-84,44.55-80.52,162.63,42.21-41.67,83.09-91.49,123.93-136.5C801.71,908.1,875.19,869.81,867.56,803.49ZM682.72,974.71c-.58.55-1.15,1.12-1.7,1.69A6.21,6.21,0,0,1,682.72,974.71ZM817,837.69c-.68.62-1.21,1.47-2.26,1C815.32,838.58,817.11,837.42,817,837.69Z"/><path class="cls-1" d="M764.81,977.39h0Z"/><path class="cls-1" d="M867.48,844.57c-.41.58-.81,1.16-1.19,1.74a17.19,17.19,0,0,0,.52-1.77A1.74,1.74,0,0,1,867.48,844.57Z"/><path class="cls-1" d="M886.14,812.45v.06c-.06,0-.09,0-.15,0a.44.44,0,0,1-.17-.55,2.19,2.19,0,0,1,.17-.29C886.05,811.93,886.08,812.19,886.14,812.45Z"/><path class="cls-1" d="M720.07,935.22l.73-.65.29.24c0,.42-.25.64-.71.67Z"/><path class="cls-1" d="M746.16,910.29a.75.75,0,0,1-.76.64h0a.75.75,0,0,1,.77-.64Z"/><path class="cls-1" d="M426.87,851.48l5.13,5.79A70.22,70.22,0,0,1,426.87,851.48Z"/><path class="cls-1" d="M450.64,876.57q16.77,19.66,33.36,39.48l-52-58.78c2.83,2.94,5.76,5.73,8,8.21Q445.32,871.15,450.64,876.57Z"/><path class="cls-1" d="M643.58,1096.4h0l0,0-1.3-1.46-.29-.33-7.53-8.51a29.13,29.13,0,0,1,5.74,5.85c-.14-.2-.3-.41-.45-.61l2.55,2.38a6.89,6.89,0,0,0,1.23.73v-1.35c0,.43,0,.87,0,1.31a1.93,1.93,0,0,1,0,.24.81.81,0,0,1,0,.16C643.57,1095.31,643.58,1095.85,643.58,1096.4Z"/><path class="cls-1" d="M392.16,803q1.62,2.82,3.32,5.61Z"/><path class="cls-1" d="M446.51,435.18c0-5,.15-19.29-.74-26.56.15-.7,4.31,3.62,7.54,7.17-15-167.28,44.55-169.93-102.43-70.63-11.76,8.16-25.83-10.74-36.89-14.94-4.88-.73-37.33-24.31-50.08-31.82-4.19-4.89-10-3.81-8,3.61,1.06,69.13-2.26,138.64,1.45,207.59h-.12c43.2,20.08,89.41,35.25,134.35,52,11.91,1.18,62.32,31.21,60.1,9C452.47,525.23,446.62,480.53,446.51,435.18Z"/><path class="cls-2" d="M678.21,183l-1-.84A1.88,1.88,0,0,1,678.21,183Z"/><path class="cls-2" d="M682.41,185.82l-1-1Z"/><path class="cls-2" d="M692.21,192.86l-1.05-1Z"/><path class="cls-2" d="M697.76,197l-1-1Z"/><path class="cls-2" d="M255.72,508.31c-.45-.46-.89-.92-1.33-1.39C254.83,507.39,255.27,507.85,255.72,508.31Z"/><path class="cls-2" d="M257.2,509.61c1.54.07,3.07.18,4.16,1.5Z"/><path class="cls-1" d="M1025.61,934.43c0,4.71-1.64,6.92-5.82,8.9-14.56,6.89-28.9,14.23-43.32,21.4h0c-16.61,8.61-33.27,17.12-50.83,23.76-13.59,7.57-28,13.42-42.24,19.61-8,3.7-15.6,8.2-24,11.09-6,2.9-11.85,6.24-18.2,8.49a240.65,240.65,0,0,1-24,11.18c-27.71,11.36-54.38,24.92-81.48,37.58s-54.17,25.5-81,38.79c-7.83,3.88-14.45,4-22.42.39q-74.66-34.21-148.57-69.94Q413.94,1012,344.2,978.12a13.67,13.67,0,0,0-2.68-.68c-5.85-2.53-12-4.43-17.15-8.37-8.27-3.09-15.88-7.55-23.9-11.17-8.19-3.27-16.12-7.09-23.93-11.15h0c-17.05-6-17.05-6-17.05-23.61,0-52.49-.46-105,.15-157.46.47-39.47.37-78.93.59-118.39,0-2.67-1-6,2.15-7.53s5.79.78,8.24,2.47c1.52,1,2.78,2.47,4.26,3.59,1.43.86,3.12,1.37,4,2.92a2,2,0,0,1,1.59,1.31,20.48,20.48,0,0,1,5.57,4.2,16.76,16.76,0,0,1,5.61,4.26A91.68,91.68,0,0,1,308.5,671c5,3.39,10.39,6.21,15.65,9.22a9.73,9.73,0,0,1,1.6,1.11c3.79,3.45,8.17,6.15,12.21,9.28,2.3,1.78,4.58,2.15,7.06.51a11.6,11.6,0,0,1,1.59-1,16,16,0,0,0,4.52-3.29,12.42,12.42,0,0,1,1.57-1.12c9.95-7.28,20.2-14.16,29.42-22.4,8.69-6.35,17.12-13,26.32-18.68,8-4.89,11-3.33,11.06,6.09.16,35.78-.61,71.58.29,107.34.34,13.55.67,27.09.89,40.63q.3,18.33.27,36.68c0,5.56,2.46,9.75,5.93,13.71q12,13.68,23.76,27.52,16.77,19.66,33.36,39.48c18.5,22,37,44,56,65.56,27.13,30.85,54,61.91,81.6,92.38q2.82,3.12,5.65,6.22l0,0,2.72,3h0l5.69,6.21c3,3.25,4.74,5.06,6.33,5.41l.19,0a2.55,2.55,0,0,0,1.25-.12h.07a4.88,4.88,0,0,0,.62-.29c1.32-.71,2.85-2.3,5.13-4.76,12.05-13,23.82-26.27,35.67-39.45,22-24.45,44.13-48.78,65.83-73.5,5.54-6.31,11.38-12.36,16.66-18.9,18.32-19.55,35.38-40.19,53.28-60.09,13.39-14.89,25.86-30.55,39.29-45.39,5.06-5.58,7.68-11.43,7.64-19.32q-.07-14.79-.12-29.58a4.69,4.69,0,0,1,0-.53h0c-.17-49.88-.07-99.76,0-149.64,0-3.73-1.78-8.68,2.58-10.79s7.78,2.07,11.13,4.34c5.4,3.67,10.35,8,15.91,11.42.63.35,1.27.7,1.93,1a10.78,10.78,0,0,1,1.73,1.18c.27.21.52.44.79.65a12.25,12.25,0,0,0,3.07,2.42,12.91,12.91,0,0,1,1.56,1.1c2.41,2.48,5.45,4.09,8.34,5.91a10.5,10.5,0,0,1,1.56,1.07c4.77,4.63,11.22,7,15.94,11.69a4.1,4.1,0,0,1,.63,1.78c10.2,9.8,11.2,10.11,22.14,2.17,19.46-14.14,38.65-28.65,58.08-42.83,3.06-2.23,6.58-6.42,10.17-4.66,3.44,1.7,1.48,6.82,1.49,10.38Q1025.16,792.28,1025.61,934.43Z"/><path class="cls-2" d="M940.62,544.51l2.65-1.19Z"/><path class="cls-2" d="M997.72,524.92l2.64-1Z"/><path class="cls-2" d="M1002.05,523.55l2.49-1Z"/><path class="cls-2" d="M1006.18,522.16l2.58-1Z"/><path class="cls-2" d="M918.4,551.5l2.48-1Z"/><path class="cls-2" d="M951.68,540.27l2.66-1Z"/><path class="cls-2" d="M928.1,548.64l2.47-.94Z"/><path class="cls-2" d="M943.54,543.17l2.46-1.06Z"/><path class="cls-2" d="M949,541.68l1.2-.95Z"/><path class="cls-2" d="M956.07,538.88l1-.71A1.78,1.78,0,0,1,956.07,538.88Z"/><path class="cls-2" d="M932.24,547.16l1.12-.65A1.41,1.41,0,0,1,932.24,547.16Z"/><path class="cls-1" d="M646.26,437.2c0-5.77.37-11.53.86-17.3.66-8,1-16.18-1.89-23.95-.15-.42-.31-.82-.49-1.24-.12-.16-.24-.33-.36-.47a10.14,10.14,0,0,0-.94-1c-.73-.16-1.45-.35-2.16-.58a4.49,4.49,0,0,1-2.6-2.17,3.66,3.66,0,0,1-.77-.57,3.81,3.81,0,0,1-2.21-1.75,3.89,3.89,0,0,1-1.81-2c-5.88-4-11.83-8-17.71-12-35.13-24.18-71.39-46.65-106.84-70.37-5.4-2.54-10.16-6.13-15.13-9.39-.92-.61-1.86-1.19-2.78-1.8a103.85,103.85,0,0,1-9.75-5.33c-3.13-1.8-6.19-4-9.48-5.51l-.91-.4c-.29-.06-.58-.13-.88-.18h0c-.12-.13-.26-.25-.39-.38a25.34,25.34,0,0,1-6.93-4,4.23,4.23,0,0,1-.4-.34,4,4,0,0,1-1.29-.78c-2.38-1-4.69-2.44-7.21-2.44a4.64,4.64,0,0,1-1.33-.2c-.13,0-.24,0-.38,0a4.07,4.07,0,0,1-.71-.07,4.44,4.44,0,0,1-.52.15l.18,0a7.16,7.16,0,0,0-1.29.32,11.79,11.79,0,0,0-1.53.9c-.85.73-1.59,1.56-2.4,2.36a11.28,11.28,0,0,1-2.1,1.64c-.14,3.67-.32,7.36-.32,11,0,37.51.2,75,.05,112.52,0,8.52-1.15,17,8.59,21.42,43.37,28.91,86.88,57.65,130.05,86.85,14.75,10,30.07,19.1,44.4,29.67.65.22,1.31.44,1.93.71a33.45,33.45,0,0,1,3.93,2.17c2.68,1.68,5.13,3.67,7.87,5.27,1.18.68,2.4,1.33,3.64,1.95a21,21,0,0,0,2.07-2.82,2,2,0,0,1,.17-.27c2-6-.33-11.92-.3-17.92C646.37,498.34,646.26,467.76,646.26,437.2Z"/><path class="cls-2" d="M342.33,543.12l-2.85-1.38Z"/><path class="cls-3" d="M642.39,162.79c-9.09,1.33-20.26,13.93-30.35,18.46-16.78,14.07-36.14,24.14-53.45,37.27-9.6,7.33-20.43,12.84-29.87,20.38-11.86,9.69,2.71,26,13,16,32-24.52,65.86-47,99.22-69.4C644.55,182.49,644.28,168.28,642.39,162.79Z"/><path class="cls-2" d="M954.14,335.37a3.8,3.8,0,0,1-3.72,2.73A4.23,4.23,0,0,1,954.14,335.37Z"/><path class="cls-2" d="M739.6,224.93l-2.41-1.07Z"/><path class="cls-2" d="M548.94,225.41l-1.6,1.24Z"/><path class="cls-2" d="M741,226.24l-1-.93A2.16,2.16,0,0,1,741,226.24Z"/><path class="cls-2" d="M743.79,227.71l-1.11-1Z"/><path class="cls-2" d="M745.18,229.07l-1-.95A2,2,0,0,1,745.18,229.07Z"/><path class="cls-2" d="M746.54,230.35a.93.93,0,0,1-.9-.83A1.87,1.87,0,0,1,746.54,230.35Z"/><path class="cls-2" d="M955.71,334.08l-1.11,1Z"/><path class="cls-2" d="M957.16,332.68,956,333.8Z"/><path class="cls-2" d="M854.05,286.41l-1.22-1.18Z"/><path class="cls-2" d="M672.78,407.91c-1.88-.46-3.77-.91-5.63-1.38l.28.21-.37-.14a.64.64,0,0,1,0-.09v-.05a.17.17,0,0,1,0-.07C669.43,405,671,407,672.78,407.91Z"/><path class="cls-2" d="M781.49,458.09l-2.4,1.4Z"/><path class="cls-2" d="M801,444.15l-2.55,1.44Z"/><path class="cls-2" d="M805.23,441.37l-2.68,1.36Z"/><path class="cls-2" d="M809.39,438.59l-2.6,1.38Z"/><path class="cls-2" d="M815,434.46l-2.39,1.38Z"/><path class="cls-2" d="M830.3,426l-2.72,0C828.5,424.82,829.41,424.58,830.3,426Z"/><path class="cls-2" d="M769,466.53l-2.5,1.4Z"/><path class="cls-2" d="M833.08,576.69l-1.2-1.49Z"/><path class="cls-2" d="M812.21,436.1l-1.21,1Z"/><path class="cls-2" d="M816.33,433.31l-1.21,1Z"/><path class="cls-2" d="M819.17,431.83l-1.38,1.07Z"/><path class="cls-2" d="M820.5,430.59l-1,1Z"/><path class="cls-2" d="M823.31,428.94,822,430.08Z"/><path class="cls-2" d="M824.71,427.62l-1.18,1.11Z"/><path class="cls-2" d="M826.05,426.49a1.94,1.94,0,0,1-1,.85Z"/><path class="cls-2" d="M833.23,578.05c0-.43-.08-.86-.11-1.3l1.56,1.18-.21.22A.78.78,0,0,1,833.23,578.05Z"/><path class="cls-2" d="M764.79,469.25l-1.52,1.3Z"/><path class="cls-2" d="M766.23,468.07c-.47.38-.94.76-1.4,1.15C765.29,468.83,765.76,468.45,766.23,468.07Z"/><path class="cls-2" d="M770.36,465.37l-1.27,1Z"/><path class="cls-2" d="M771.6,464.3a2.13,2.13,0,0,1-.86.74A.76.76,0,0,1,771.6,464.3Z"/><path class="cls-2" d="M810.8,437.31l-1.31,1.2Z"/><path class="cls-2" d="M774.4,462.81a1.66,1.66,0,0,1-.93.76A.91.91,0,0,1,774.4,462.81Z"/><path class="cls-2" d="M778.75,459.75c0,.37.07.74.08,1.11l-.14.1a12.16,12.16,0,0,1-1.21-.18Z"/><path class="cls-2" d="M782.94,456.87,781.57,458Z"/><path class="cls-2" d="M784.35,455.61l-1.2,1.09Z"/><path class="cls-2" d="M785.64,454.37a2.6,2.6,0,0,1-1,.94Z"/><path class="cls-2" d="M788.53,452.62l-1.46,1.23Z"/><path class="cls-2" d="M789.86,451.37l-1.22,1.15Z"/><path class="cls-2" d="M792.65,449.87,791.18,451Z"/><path class="cls-2" d="M794,448.64l-1.15,1Z"/><path class="cls-2" d="M796.84,447l-1.48,1.26Z"/><path class="cls-2" d="M798.29,445.71l-1.37,1.17Z"/><path class="cls-2" d="M802.44,442.82l-1.34,1.28Z"/><path class="cls-2" d="M806.64,440.08l-1.34,1.24Z"/><path class="cls-3" d="M640.93,185.52c1.4-6.86-.54-16.9.85-23.76,26.68,15.56,54.29,37.83,80,54.89,9.93,10.19,47.64,22.13,35.17,39.49-3.84,2.77-7.94,1.6-11.57-1.19C711.08,231.52,676.45,205.78,640.93,185.52Z"/><path class="cls-2" d="M669.75,229.31l-.75-.64A1.35,1.35,0,0,1,669.75,229.31Z"/><path class="cls-2" d="M672.9,231.46l-.76-.72Z"/><path class="cls-2" d="M680.26,236.74l-.78-.76Z"/><path class="cls-2" d="M684.43,239.82l-.76-.72Z"/><path class="cls-3" d="M642.86,214.17c-26,13.78-53.2,36.84-79.71,53.14-15.83,5.51-7.06,27.05,6.09,14.45,23.55-17.7,48.13-34.21,72.53-50.53C644.49,229,644.28,218.29,642.86,214.17Z"/><path class="cls-3" d="M641.77,231.23c1-5.15-.41-12.68.64-17.84,20,11.69,40.75,28.41,60,41.21,7.67,8,35.43,16,26.4,29.65-2.88,2.08-6,1.2-8.68-.89C694.43,265.77,668.43,246.44,641.77,231.23Z"/><path class="cls-2" d="M270,522.84l-.15.41c-.15-.06-.34-.08-.44-.19s.08-.26.13-.39Z"/><path class="cls-2" d="M286.44,522.31l1.42,1.35Z"/><path class="cls-2" d="M272.49,516.74l1.43,1.34Z"/><path class="cls-1" d="M833.89,521.28c2.06-12.65-5.76-20.27-15.68-9.09-54.1,37.61-107.61,76.52-162,113.12-11,10.48-18.57,4.84-29.05-2.62-60.95-36.5-118-85.77-179.15-119.7,4.43,71.56,1.38,149.16,2.54,222.67,0,12.35.06,12.48,10.44,6.74,27.42-17.06,53.92-35.62,80.5-54.09,6.3-6.62,10.4-4.1,8.56,4.66,4.58,46.62-8.79,103.06,5.46,145.53,23.62,8.71,76.4,56.84,96.33,47.48,18.13-16,79-38.46,82.6-58.41.67-48.32-2.4-98.68.51-146.06,30.73,16.43,61.23,41.54,92.43,59.87,4.18,2.72,7.26,4.79,7.22-3.43C834.27,659.06,834.19,590.17,833.89,521.28Z"/><path class="cls-2" d="M833.23,578.05c.42,0,.83.05,1.24.1a10.37,10.37,0,0,1,.11,1.25Z"/><path class="cls-2" d="M644.38,394.24a10.14,10.14,0,0,0-.94-1,19.67,19.67,0,0,1-2.13-.57l-1.55,0,2.3,1.62a13.1,13.1,0,0,1,3.17,1.66c-.15-.42-.31-.82-.49-1.24C644.62,394.55,644.5,394.38,644.38,394.24Z"/><path class="cls-2" d="M667.43,406.74l-.28-.21"/><path class="cls-1" d="M1020.08,301.6c1.32-8-2.68-11.71-9-5.11-22.14,16.5-44.26,33-66.21,49.75-12.15,7.41-29.79-14.57-40.65-20.57-19.83-8.15-73.48-64.56-88.9-46C775.49,306.28,739,336.48,697.9,361.8c-5.48,5.47-21.47,14.85-29.68,20.59-6.31,5.28-16.14,17-24.78,10.83,8.12,13,2,29.59,2.82,44-1.29,37.29,2.6,76.34-1.46,112.8,27.14-21.68,58.62-39.08,85.74-60.92,31.32-19.36,61-43.1,92.38-63.46,6.21-5.66,12.8-4.68,10.58,4.66.33,43.67.33,87.35.84,131,.17,15.59-2.11,16.29,14.54,10.78C1089.67,489.66,1006.49,555.05,1020.08,301.6Z"/><path class="cls-2" d="M505.44,301.83c-.46-.44-.92-.88-1.39-1.31C504.52,301,505,301.39,505.44,301.83Z"/><path class="cls-2" d="M493.18,294.63a3.16,3.16,0,0,1-.26-1.09l1.34,1.18h-.55Z"/><path class="cls-2" d="M809.52,279.45c.4-.4.8-.79,1.19-1.19C810.32,278.66,809.92,279.05,809.52,279.45Z"/></svg>