<svg id="Layer_1" data-name="Layer 1" xmlns="http://www.w3.org/2000/svg" viewBox="0 0 400 150"><defs><style>.cls-1,.cls-16{fill:#e92965;}.cls-1,.cls-10,.cls-11,.cls-12,.cls-13,.cls-14,.cls-15,.cls-16,.cls-17,.cls-18,.cls-19,.cls-2,.cls-3,.cls-4,.cls-5,.cls-6,.cls-7,.cls-8,.cls-9{stroke:#f2f2f3;stroke-miterlimit:10;}.cls-1,.cls-10,.cls-11,.cls-12,.cls-14,.cls-15,.cls-17,.cls-18,.cls-19,.cls-2,.cls-3,.cls-4,.cls-5,.cls-6,.cls-7,.cls-8,.cls-9{stroke-width:0.5px;}.cls-2{fill:none;}.cls-3{fill:#e92a47;}.cls-4{fill:#098db9;}.cls-13,.cls-5{fill:#6b111a;}.cls-6{fill:#2c303f;}.cls-7{fill:#11a3d7;}.cls-8{fill:#00a1d6;}.cls-9{fill:#9f9ea4;}.cls-10{fill:#191919;}.cls-11{fill:#d9d9d7;}.cls-12{fill:#e3e3e3;}.cls-13,.cls-16{stroke-width:0.25px;}.cls-14{fill:#ab1f24;}.cls-15{fill:#e0e0df;}.cls-17{fill:#e5e5e5;}.cls-18{fill:#eae9ea;}.cls-19{fill:#7e141f;}</style></defs><path class="cls-1" d="M18,57.18c0-.38,0-1.45-.06-2,0-.06.33.27.57.54-.31-3.09,0-6.29-.11-9.41,0-.36.11-.91-.27-1.12-2.42,1.71-4.87,3.51-7.35,5.19-.27.18-.53.32-.84.1C9.29,50,8.6,49.64,8,49.26c-1.58-.95-2.59-1.78-3.78-2.41-.16-.09-.29-.33-.51-.21-.2,5.26-.19,10.3,0,15.64v.52c3.26,1.52,6.75,2.67,10.14,3.93,1.23.47,2.51.82,3.73,1.33C19.41,69,17.61,58.6,18,57.18Z"/><path class="cls-2" d="M33,100.7l0,0,0,0,0,0h0s0,0,0,0a29,29,0,0,0,0,3.88l.11-3.9Z"/><path class="cls-2" d="M33,100.59h0v0Z"/><path class="cls-2" d="M32.86,107v-.23c-.06.21-.15.24-.29,0l-.6-.55a1.33,1.33,0,0,1-.19-.14l.47.51c.22.25.35.38.47.41v0A.32.32,0,0,1,32.86,107Z"/><path class="cls-2" d="M21.31,88.09c-.21.13,1.29,1.52,1.39,1.78l1.78,1.79c-1.11-1.21-2.18-2.41-3.17-3.56Z"/><path class="cls-2" d="M47.53,86.27c.7-.38,1.49-.81,2.28-1.27h0l-1.28.69Z"/><path class="cls-2" d="M46.44,86.83h-.11s-.1.11,0,.11l0,0,.05,0Z"/><path class="cls-2" d="M46.18,87v0Z"/><path class="cls-3" d="M32.79,100.46s0,0,0,0S32.79,100.44,32.79,100.46Z"/><path class="cls-3" d="M29.38,96.88c-1.61-1.68-3.29-3.46-4.9-5.22L22.7,89.87c-.1-.26-1.6-1.65-1.39-1.78-.08-.09-.13-.31-.23-.25s0,0,0,0-.38-.2-.3-.3a.7.7,0,0,1-.34-.34A23.42,23.42,0,0,0,16,84.62c-.05,1.51,0,3,.51,3.82,5,5.82,9.9,11.71,15.06,17.38l-.09-.11.59.55-.07,0,.6.55c.14.22.23.19.29,0l.06-2.18c0-1.51,0-3.26,0-3.88M22.26,89.38a.83.83,0,0,1-.19-.23Z"/><path class="cls-4" d="M32.05,106.26l-.59-.55.09.11.24.26a1.33,1.33,0,0,0,.19.14Z"/><path class="cls-5" d="M33,100.72h0"/><path class="cls-5" d="M33,100.7h0l0,0Z"/><path class="cls-5" d="M33,100.36c0-.21,0-.55,0-1.28-.09-2.32-.06-4.63,0-7,0-.46.06-.63.28-.73h0c-1.26,0-2.48-.8-3.71-1.13C26.26,89.11,23,88,19.94,86.61c-.06.23.23.26.37.35l.1.2a.7.7,0,0,0,.34.34c-.08.1.24.22.3.3s-.07.12,0,0,.15.16.23.25h0c1,1.15,2.06,2.35,3.17,3.56,1.61,1.76,3.29,3.54,4.9,5.22,1.23,1.15,2.29,2.49,3.46,3.67a.47.47,0,0,0,.08.14"/><path class="cls-6" d="M46.2,86.93a.08.08,0,0,0,0,0h0Z"/><path class="cls-6" d="M46.22,86.91c-.31,0-.58.22-.9.25l.14,0,.75-.28Z"/><path class="cls-6" d="M46.34,86.8h0Z"/><path class="cls-6" d="M46.38,86.82h0Z"/><path class="cls-6" d="M46.43,86.83h0Z"/><path class="cls-6" d="M48.89,85.42l.45-.24Z"/><path class="cls-6" d="M48.73,85.54l-.07,0Z"/><path class="cls-6" d="M49.81,85v0l-1.28.72Z"/><path class="cls-7" d="M46.33,86.78h.11l1.09-.56,1-.58L49.81,85v0l-.47.25-.45.24-.41.2.18-.06.07,0c-.85.32-1.56.94-2.43,1.23h0Z"/><path class="cls-1" d="M33,100.72l0,0h0l0,0v-.09c1.76-1.78,3.57-3.58,5.39-5.42l0,0,.22-.22h0l0,0h0c.26-.28.51-.57.78-.83l-.29.33c2.31-2.34,4.61-4.72,6.79-7.13a2.4,2.4,0,0,1,.19-.29v0a.08.08,0,0,1,0,0v0l-.75.28c-3.9,1.44-7.74,3.14-11.82,4.09a2.55,2.55,0,0,0-.48.12c-.22.1-.28.27-.28.73,0,2.32,0,4.63,0,7,0,.73,0,1.07,0,1.28v.23h0"/><path class="cls-8" d="M22.26,89.38l-.19-.23A.83.83,0,0,0,22.26,89.38Z"/><path class="cls-9" d="M38.64,95l-.22.22,0,0,.21-.2Z"/><path class="cls-9" d="M39.19,94.41l.29-.33c-.27.26-.52.55-.78.83h0Z"/><path class="cls-9" d="M46.2,86.93l0,0v0a2.4,2.4,0,0,0-.19.29l.31-.35h0l0,0c-.09,0,0-.08,0-.11h0l-.09.14h0Z"/><path class="cls-5" d="M46.44,86.83l-.09,0-.05,0h0l-.31.35c-2.18,2.41-4.48,4.79-6.79,7.13l-.49.5s0,.06-.05,0l-.21.2c-1.82,1.84-3.63,3.64-5.39,5.42v.09l-.11,3.9-.06,2.18V107a.32.32,0,0,0-.14,0v0c.15,0,.28-.09.55-.39.91-1,1.8-2,2.7-3q6.69-7.39,13.22-14.94a2,2,0,0,0,.57-1.46c0-.73,0-1.48,0-2.23-.79.46-1.58.89-2.28,1.27Zm-5.9,6.28s0,0,.06,0A.06.06,0,0,1,40.54,93.11Z"/><path class="cls-4" d="M38.7,94.91h0l0,0h0S38.72,94.93,38.7,94.91Z"/><path class="cls-6" d="M40.54,93.11a.06.06,0,0,0,.06,0S40.54,93.08,40.54,93.11Z"/><path class="cls-10" d="M61.7,94.89c-.14-7.38.17-15-.19-22.26-.27-.13-.53.19-.76.35-1.47,1.07-2.92,2.17-4.39,3.24-.78.63-1.13.54-1.72-.3-1.26-1-2.57-1.81-3.84-2.75-.25-.17-.5-.49-.84-.33-.48,3.83-.17,8-.15,12.09V85h0c0,.75,0,1.5,0,2.23a2,2,0,0,1-.57,1.46Q42.68,96.25,36,103.63c-.9,1-1.79,2-2.7,3-.27.3-.4.42-.55.39s-.25-.16-.47-.41l-.47-.51-.24-.26c-5.16-5.67-10.07-11.56-15.06-17.38-.55-.79-.56-2.31-.51-3.82a20.27,20.27,0,0,0,0-3.06c-.07-2.7,0-5.4,0-8.1,0-.71-.23-.83-.84-.46-1.67,1.06-3.13,2.43-4.79,3.51-.52.27-1-.49-1.45-.74S8,75.28,7.55,75h0a6.64,6.64,0,0,0-1.28-1,1.21,1.21,0,0,0-.42-.32,1.42,1.42,0,0,0-.42-.32.17.17,0,0,0-.12-.1A.68.68,0,0,0,5,73.09c-.38-.45-1.25-.84-1.1.11,0,3,0,6,0,8.94,0,4,0,7.93,0,11.89,0,1.33,0,1.33,1.29,1.79.59.3,1.19.59,1.81.84s1.18.61,1.81.84C16.49,101.16,24.19,105,32,108.57a1.81,1.81,0,0,0,1.69,0c4.07-2,8.13-4,12.27-5.77a18.81,18.81,0,0,0,1.82-.84c.48-.17.92-.43,1.37-.64a20,20,0,0,0,1.82-.84C52,100,53.13,99.54,54.15,99A35.34,35.34,0,0,0,58,97.17h0C58.67,96.63,61.89,95.72,61.7,94.89Z"/><path class="cls-10" d="M33.05,57.33c-.12-1,.56-2.67-.37-3.36a2,2,0,0,1-.56-.49c-4-2.7-8-5.45-12.21-7.89-.54-.16-1-.72-1.59-.65h0c-1.28.35-.26,8-.58,9.73,0,.64-.08,1.28.65,1.61C23.26,59.44,28,62.8,32.9,65.85c.43-.43.14-1.07.15-1.59C33.06,62,33.05,59.64,33.05,57.33Z"/><path class="cls-11" d="M14.42,47.75a.57.57,0,0,1-.43.32"/><path class="cls-12" d="M10.1,65.33l-.21-.1Z"/><path class="cls-13" d="M32.76,36.61l0-.08c-2.37,1.61-4.8,3.23-7.13,4.91a8.67,8.67,0,0,0-1.4.92c-.89.72.19,2,1,1.22,2.41-1.86,5-3.56,7.5-5.25C32.92,38.1,32.9,37,32.76,36.61Z"/><path class="cls-11" d="M25.7,41.34l-.12.09Z"/><path class="cls-14" d="M35.06,55.12l-.43-.1h0s0,0,0,0C34.79,54.89,34.93,55.05,35.06,55.12Z"/><path class="cls-15" d="M47,56.49h-.2C46.82,56.4,46.88,56.38,47,56.49Z"/><path class="cls-15" d="M47.16,67.87l-.09-.11Z"/><path class="cls-15" d="M46.63,56.53a.12.12,0,0,1-.08.06Z"/><path class="cls-15" d="M47.17,68v-.1l.11.09S47.21,68,47.17,68Z"/><path class="cls-16" d="M32.65,38.33c.11-.52,0-1.28.07-1.8,2,1.18,4.1,2.86,6,4.15.7.68,3.68,1.83,2.66,3a.69.69,0,0,1-.87-.09C38,41.8,35.33,39.86,32.65,38.33Z"/><path class="cls-13" d="M32.8,40.49l0-.06c-1.92,1.28-3.84,2.63-5.74,3.93-1.45.55-.93,2,.06,1.36,1.82-1.39,3.74-2.67,5.63-3.94C32.92,41.61,32.9,40.8,32.8,40.49Z"/><path class="cls-16" d="M32,41.06c.11-.54,0-1.33.07-1.87,2.1,1.22,4.28,3,6.3,4.32.77.78,3.79,1.8,2.78,3.12a.73.73,0,0,1-.92-.1C37.48,44.69,34.75,42.66,32,41.06Z"/><path class="cls-17" d="M5.88,63.76l.11.1Z"/><path class="cls-17" d="M4.83,63.34l.1.1Z"/><path class="cls-5" d="M47.22,63.69c.14-1-.39-1.54-1.18-.69-4.42,3-8.61,6.37-13.17,9-4.76-2.59-9.08-6.23-13.72-9.15-.25-.17-.81-.73-1.07-.58.33,5.41.1,11.27.19,16.82,0,.93,0,.94.79.51,2.07-1.29,4.07-2.69,6.08-4.09.5-.5.77-.32.65.36,0,3.39,0,6.78,0,10.18a.82.82,0,0,0,.41.81c1.51.56,6.25,4.47,7.27,3.58,9-5.54,5.65-1.86,6.21-14.87-.14-.62.18-.8.6-.34,2.11,1.5,4.29,2.89,6.45,4.29.32.21.55.36.55-.26C47.25,74.09,47.25,68.89,47.22,63.69Z"/><path class="cls-18" d="M47.27,68a.28.28,0,0,0,0,.09"/><path class="cls-19" d="M32.91,54.09c-.07-.11-.22-.12-.35-.12a4.64,4.64,0,0,0,.42.25A.42.42,0,0,0,32.91,54.09Z"/><path class="cls-18" d="M34.65,55h0"/><path class="cls-3" d="M61.28,47.09c.1-.61-.18-.88-.68-.38q-2.51,1.86-5,3.76c-.67.64-2.4-1.16-3.07-1.56-1.67-1.15-3.37-2.27-5-3.46-.62-.45-1.13-.54-1.7,0-3,2-5.77,4.29-8.87,6.2a26,26,0,0,1-2.24,1.56c-.47.39-1.22,1.28-1.87.81.61,1,.15,2.24.21,3.32-.09,2.82.2,5.77-.11,8.52,2.05-1.63,4.43-2.95,6.48-4.6,2.59-1.45,4.94-3.81,7.63-5,.44,3.3,0,7.06.21,10.51,0,1.17-.16,1.23,1.09.81,4.06-1.34,8.1-2.75,12.16-4.09a1,1,0,0,0,.81-1.18C61.29,57.2,61.3,52.15,61.28,47.09Z"/><path class="cls-12" d="M22.42,47.11l-.11-.1Z"/><path class="cls-12" d="M21.49,46.57a.31.31,0,0,1,0-.08l.1.09Z"/><path d="M73.54,55.79l14.84,26.1,14.87-26.1a2.36,2.36,0,0,1,2.13-1.36c1.41,0,2.33.7,2.33,1.92a2.8,2.8,0,0,1-.5,1.51L90.71,86.17a2.63,2.63,0,0,1-4.5,0L69.62,57.81a2.52,2.52,0,0,1-.45-1.46c0-1.22.87-1.92,2.29-1.92A2.39,2.39,0,0,1,73.54,55.79Z"/><path d="M116.22,60.77c-1.63,0-2.42-.75-2.42-2.25s.79-2.26,2.42-2.26,2.42.75,2.42,2.26S117.8,60.77,116.22,60.77ZM114,66.09c0-1.27.75-2,2.21-2s2.21.71,2.21,2V85.46c0,1.32-.75,2-2.21,2s-2.21-.66-2.21-2Z"/><path d="M153.23,81.94c0,3.52-3.17,5.26-9.51,5.26H127.47c-1.33,0-2.08-.61-2.08-1.83s.75-1.83,2.08-1.83h16.25c3.42,0,5.13-.57,5.13-1.6V79.3c0-1.08-1.71-1.6-5.13-1.6h-8.58c-6.38,0-9.5-1.69-9.5-5.12V70.37c0-4,3.25-6,9.79-6h5.71c1.38,0,2.13.66,2.13,1.88s-.8,1.83-2.13,1.83h-5.71c-3.62,0-5.46.76-5.46,2.31v2.07c0,1.27,1.84,1.93,5.42,1.93H144q9.25,0,9.26,4.79Z"/><path d="M162.73,60.77c-1.62,0-2.42-.75-2.42-2.25s.8-2.26,2.42-2.26,2.42.75,2.42,2.26S164.31,60.77,162.73,60.77Zm-2.21,5.32c0-1.27.75-2,2.21-2s2.21.71,2.21,2V85.46c0,1.32-.75,2-2.21,2s-2.21-.66-2.21-2Z"/><path d="M183.53,87.2c-7.21,0-10.8-2.49-10.8-7.43V71.83q0-7.48,10.8-7.48h8c7.21,0,10.79,2.49,10.79,7.48v7.94c0,4.94-3.58,7.43-10.79,7.43ZM197.9,71.78c0-2.4-2.08-3.58-6.21-3.58h-8.33c-4.08,0-6.17,1.18-6.17,3.58v8c0,2.35,2.09,3.57,6.17,3.57h8.33c4.13,0,6.21-1.22,6.21-3.57Z"/><path d="M235.2,71.83c0-2.45-2.08-3.63-6.21-3.63h-8.33c-4.08,0-6.17,1.18-6.17,3.63V85.46c0,1.32-.75,2-2.21,2s-2.2-.66-2.2-2V71.83q0-7.48,10.75-7.48h8q10.75,0,10.75,7.48V85.46c0,1.32-.75,2-2.21,2s-2.21-.66-2.21-2Z"/><path d="M274.67,58.52H263.3c-1.38,0-2.09-.61-2.09-1.93s.71-1.93,2.09-1.93h27.21c1.42,0,2.12.66,2.12,1.88s-.7,2-2.12,2H279.17V85.46c0,1.32-.75,2-2.2,2s-2.3-.66-2.3-2Z"/><path d="M299.39,77.33V80.2c0,2.21,1.92,3.34,5.79,3.34h6.17c1.37,0,2.08.61,2.08,1.83s-.71,1.83-2.08,1.83h-6.17c-6.75,0-10.17-2.3-10.17-7V71c0-4.42,3.05-6.68,9.09-6.68h12c5.92,0,8.88,2,8.88,6v5.27c0,1.12-.67,1.69-1.92,1.69Zm0-3.25h20.92a.29.29,0,0,0,.33-.33V71.31c0-2.16-1.58-3.25-4.83-3.25H304.35c-3.34,0-5,1.09-5,3.25Z"/><path d="M342.57,87.2c-7.21,0-10.8-2.49-10.8-7.43V71.83q0-7.48,10.8-7.48H357c1.41,0,2.16.66,2.16,1.93S358.4,68.2,357,68.2H342.4c-4.08,0-6.17,1.18-6.17,3.58v8c0,2.35,2.09,3.57,6.17,3.57H357c1.41,0,2.16.62,2.16,1.89S358.4,87.2,357,87.2Z"/><path d="M391.66,71.73c0-2.35-2-3.53-5.88-3.53H370.66V85.46c0,1.32-.75,2-2.21,2s-2.21-.66-2.21-2V55.74c0-1.27.75-2,2.21-2s2.21.7,2.21,2v8.61h14.71q10.74,0,10.75,7.48V85.46c0,1.32-.75,2-2.21,2s-2.25-.66-2.25-2Z"/></svg>