<svg id="Layer_1" data-name="Layer 1" xmlns="http://www.w3.org/2000/svg" viewBox="0 0 400 120"><defs><style>.cls-1,.cls-16{fill:#e92965;}.cls-1,.cls-10,.cls-11,.cls-12,.cls-13,.cls-14,.cls-15,.cls-16,.cls-17,.cls-18,.cls-19,.cls-2,.cls-3,.cls-4,.cls-5,.cls-6,.cls-7,.cls-8,.cls-9{stroke:#f2f2f3;stroke-miterlimit:10;}.cls-1,.cls-10,.cls-11,.cls-12,.cls-14,.cls-15,.cls-17,.cls-18,.cls-19,.cls-2,.cls-3,.cls-4,.cls-5,.cls-6,.cls-7,.cls-8,.cls-9{stroke-width:0.5px;}.cls-2{fill:none;}.cls-3{fill:#e92a47;}.cls-4{fill:#098db9;}.cls-13,.cls-5{fill:#6b111a;}.cls-6{fill:#2c303f;}.cls-7{fill:#11a3d7;}.cls-8{fill:#00a1d6;}.cls-9{fill:#9f9ea4;}.cls-10{fill:#191919;}.cls-11{fill:#d9d9d7;}.cls-12{fill:#e3e3e3;}.cls-13,.cls-16{stroke-width:0.25px;}.cls-14{fill:#ab1f24;}.cls-15{fill:#e0e0df;}.cls-17{fill:#e5e5e5;}.cls-18{fill:#eae9ea;}.cls-19{fill:#7e141f;}.cls-20{fill:#fff;}</style></defs><path class="cls-1" d="M25.68,37.44c0-.5,0-1.93-.07-2.66,0-.07.43.36.75.72-.42-4.1,0-8.35-.15-12.49,0-.47.14-1.2-.35-1.48-3.22,2.27-6.47,4.66-9.76,6.89-.36.23-.7.43-1.11.13-.83-.58-1.74-1.12-2.59-1.63-2.1-1.25-3.44-2.35-5-3.18-.2-.13-.38-.44-.67-.29-.27,7-.25,13.67,0,20.75v.7c4.33,2,9,3.53,13.47,5.21,1.63.63,3.33,1.09,4.94,1.77C27.6,53.1,25.21,39.33,25.68,37.44Z"/><path class="cls-2" d="M45.63,95.19s0,0,0,0l0,0,0,0s0,0,0,0,0,0-.06,0a39.31,39.31,0,0,0,0,5.15l.16-5.18Z"/><path class="cls-2" d="M45.56,95.05h0v0S45.57,95,45.56,95.05Z"/><path class="cls-2" d="M45.44,103.53v-.31c-.07.28-.19.32-.38,0l-.8-.72-.25-.19c.21.22.41.45.62.68s.47.5.63.54v0A.26.26,0,0,1,45.44,103.53Z"/><path class="cls-2" d="M30.11,78.46c-.28.17,1.71,2,1.85,2.36l2.36,2.37c-1.47-1.61-2.89-3.2-4.2-4.72Z"/><path class="cls-2" d="M64.9,76c.93-.5,2-1.08,3-1.68h0l-1.69.92Z"/><path class="cls-2" d="M63.47,76.79h-.1l0,0h0s-.13.15,0,.15l0,0,.06,0Z"/><path class="cls-2" d="M63.11,77v0Z"/><path class="cls-3" d="M45.35,94.87s0,0,0,.06S45.35,94.85,45.35,94.87Z"/><path class="cls-3" d="M40.82,90.13c-2.13-2.24-4.36-4.6-6.5-6.94L32,80.82c-.14-.34-2.13-2.19-1.85-2.36-.1-.12-.17-.42-.29-.33s0,0,0,0-.51-.28-.4-.4a.88.88,0,0,1-.45-.46A31.73,31.73,0,0,0,23,73.85c-.06,2-.06,4,.67,5.07,6.63,7.72,13.14,15.54,20,23.07a1.83,1.83,0,0,0-.13-.16l.79.73-.1,0,.8.72c.19.3.31.26.38,0l.08-2.89c-.05-2,0-4.33,0-5.15m-14.15-15a.89.89,0,0,1-.24-.3Q31.25,80,31.37,80.16Z"/><path class="cls-4" d="M44.37,102.56l-.79-.73a1.83,1.83,0,0,1,.13.16c.1.11.21.22.31.34l.25.19Z"/><path class="cls-5" d="M45.58,95.22s0,0,0,0"/><path class="cls-5" d="M45.63,95.19h0l0,0S45.65,95.21,45.63,95.19Z"/><path class="cls-5" d="M45.58,94.74c0-.28,0-.74,0-1.7-.12-3.07-.08-6.14-.07-9.22,0-.61.09-.84.38-1h0c-1.68,0-3.29-1.07-4.92-1.5-4.24-1.53-8.51-3-12.63-4.85-.08.31.32.35.5.46s.09.19.14.27a.88.88,0,0,0,.45.46c-.11.12.31.29.4.4s-.11.14,0,0,.19.21.29.33h0c1.31,1.52,2.73,3.11,4.2,4.72,2.14,2.34,4.37,4.7,6.5,6.94,1.63,1.51,3,3.3,4.6,4.86a1.09,1.09,0,0,0,.1.19"/><path class="cls-6" d="M63.15,76.92l0,0h0Z"/><path class="cls-6" d="M63.17,76.89c-.42,0-.77.29-1.19.33a.58.58,0,0,0,.18,0l1-.37Z"/><path class="cls-6" d="M63.33,76.74l0,0Z"/><path class="cls-6" d="M63.39,76.77h0Z"/><path class="cls-6" d="M63.45,76.79h0Z"/><path class="cls-6" d="M66.71,74.92l.6-.33Z"/><path class="cls-6" d="M66.5,75.07l-.1,0Z"/><path class="cls-6" d="M67.93,74.35v0l-1.69,1Z"/><path class="cls-7" d="M63.31,76.72h0l0,0h.1L64.9,76l1.34-.77,1.69-1v-.06l-.62.33-.6.33-.54.26.23-.08.1,0c-1.13.42-2.07,1.25-3.22,1.63h0Z"/><path class="cls-1" d="M45.59,95.21l0,0h0l.06,0V95c2.33-2.36,4.75-4.75,7.16-7.19l0,0,.29-.29a0,0,0,0,1,0,0l.07-.06a0,0,0,0,1,0,0c.35-.36.69-.75,1-1.09l-.39.43c3.07-3.1,6.12-6.26,9-9.46.07-.12.17-.26.25-.39v0l0,0v0l-1,.37C57,79.18,51.89,81.43,46.48,82.69a4.51,4.51,0,0,0-.64.16c-.29.13-.38.36-.38,1,0,3.08-.05,6.15.07,9.22,0,1,0,1.42,0,1.7v.32"/><path class="cls-8" d="M31.37,80.16q-.12-.14-.24-.3A.89.89,0,0,0,31.37,80.16Z"/><path class="cls-9" d="M53.12,87.57l-.29.29,0,0,.27-.27Z"/><path class="cls-9" d="M53.84,86.84l.39-.43c-.36.34-.7.73-1,1.09h0Z"/><path class="cls-9" d="M63.15,76.92l0,0v0c-.08.13-.18.27-.25.39l.42-.47h0l0,0c-.12,0,0-.11,0-.15h0l-.11.18h0Z"/><path class="cls-5" d="M63.47,76.79l-.13.07-.06,0h0l-.42.47c-2.89,3.2-5.94,6.36-9,9.46l-.65.66s0,.09-.07.07l-.27.27C50.44,90.28,48,92.67,45.69,95v.12l-.16,5.18-.08,2.89v.31a.26.26,0,0,0-.18,0v0c.2,0,.37-.13.73-.51,1.21-1.31,2.39-2.64,3.58-4q8.88-9.83,17.54-19.83a2.68,2.68,0,0,0,.77-1.93c0-1,0-2,0-3-1,.6-2.1,1.18-3,1.68Zm-7.84,8.33a.09.09,0,0,1,.08-.07A.08.08,0,0,1,55.63,85.12Z"/><path class="cls-4" d="M53.19,87.5h0a0,0,0,0,0,0,0l-.07.06a0,0,0,0,0,0,0h0S53.22,87.54,53.19,87.5Z"/><path class="cls-6" d="M55.63,85.12a.08.08,0,0,0,.08-.07A.09.09,0,0,0,55.63,85.12Z"/><path class="cls-10" d="M83.71,87.47c-.19-9.78.22-19.9-.25-29.53-.35-.17-.71.25-1,.47-2,1.42-3.87,2.88-5.82,4.29-1,.84-1.51.72-2.29-.39-1.67-1.26-3.41-2.41-5.09-3.65-.34-.23-.66-.66-1.12-.44-.63,5.08-.22,10.66-.2,16v.09h0c0,1,0,2,0,3a2.68,2.68,0,0,1-.77,1.93q-8.64,10-17.54,19.83c-1.19,1.32-2.37,2.65-3.58,4-.36.38-.53.55-.73.51s-.33-.22-.63-.54-.41-.46-.62-.68-.21-.23-.31-.34c-6.86-7.53-13.37-15.35-20-23.07-.73-1-.73-3.06-.67-5.07a26.62,26.62,0,0,0,0-4c-.09-3.59,0-7.17,0-10.76,0-.94-.3-1.1-1.1-.61-2.23,1.4-4.16,3.22-6.36,4.66-.7.35-1.38-.65-1.93-1s-1.18-.65-1.73-1h0a9.6,9.6,0,0,0-1.7-1.26,1.65,1.65,0,0,0-.56-.42A2,2,0,0,0,9,59a.21.21,0,0,0-.16-.13c-.09-.15-.26-.2-.4-.29C8,58,6.82,57.43,7,58.7,7,62.65,7,66.61,7,70.56c-.06,5.26,0,10.52,0,15.78,0,1.77,0,1.77,1.71,2.37.79.4,1.58.79,2.4,1.11s1.57.82,2.4,1.13c10.27,4.86,20.5,10,30.86,14.68a2.36,2.36,0,0,0,2.25,0c5.4-2.6,10.78-5.26,16.28-7.65a26.35,26.35,0,0,0,2.41-1.12A18.88,18.88,0,0,0,67.06,96a25.16,25.16,0,0,0,2.41-1.12,46.34,46.34,0,0,0,4.23-2,49.11,49.11,0,0,0,5.09-2.38h0C79.69,89.8,84,88.57,83.71,87.47Z"/><path class="cls-10" d="M45.7,37.65c-.16-1.36.74-3.56-.5-4.47a2.57,2.57,0,0,1-.74-.65C39.12,29,33.81,25.29,28.25,22.07c-.71-.23-1.29-1-2.1-.87h0c-1.7.46-.35,10.63-.76,12.9,0,.86-.11,1.71.86,2.15C32.7,40.44,39,44.9,45.49,48.94c.57-.57.18-1.42.2-2.11C45.71,43.77,45.7,40.71,45.7,37.65Z"/><path class="cls-11" d="M21,24.93a.75.75,0,0,1-.56.42"/><path class="cls-12" d="M15.24,48.26,15,48.12Z"/><path class="cls-13" d="M45.31,10.15,45.25,10c-3.16,2.13-6.38,4.29-9.47,6.51a12.68,12.68,0,0,0-1.86,1.22,1,1,0,1,0,1.29,1.62c3.2-2.46,6.61-4.72,9.95-7C45.53,12.12,45.5,10.7,45.31,10.15Z"/><path class="cls-11" d="M36,16.42l-.17.13Z"/><path class="cls-14" d="M48.36,34.71l-.57-.14,0,0s0,0,0,0C48,34.41,48.18,34.62,48.36,34.71Z"/><path class="cls-15" d="M64.14,36.52h-.27C64,36.4,64.05,36.38,64.14,36.52Z"/><path class="cls-15" d="M64.42,51.62l-.12-.14Z"/><path class="cls-15" d="M63.72,36.57a.24.24,0,0,1-.11.09Z"/><path class="cls-15" d="M64.44,51.76s0-.09,0-.13l.16.12S64.48,51.82,64.44,51.76Z"/><path class="cls-16" d="M45.16,12.42c.14-.68,0-1.69.09-2.38,2.67,1.56,5.44,3.79,8,5.5.93.9,4.88,2.43,3.53,4a.91.91,0,0,1-1.16-.12C52.19,17,48.72,14.45,45.16,12.42Z"/><path class="cls-13" d="M45.36,15.3a.44.44,0,0,1,0-.09c-2.55,1.7-5.1,3.49-7.62,5.22-1.93.72-1.23,2.65.08,1.81,2.41-1.85,5-3.55,7.48-5.23C45.52,16.78,45.5,15.71,45.36,15.3Z"/><path class="cls-16" d="M44.24,16.05c.14-.72-.06-1.77.09-2.49,2.79,1.63,5.68,4,8.36,5.75,1,1,5,2.38,3.68,4.13a1,1,0,0,1-1.21-.13C51.58,20.86,48,18.17,44.24,16.05Z"/><path class="cls-17" d="M9.64,46.17l.14.14Z"/><path class="cls-17" d="M8.24,45.62l.14.13Z"/><path class="cls-5" d="M64.5,46.07c.18-1.3-.52-2-1.57-.91-5.87,3.92-11.42,8.45-17.47,12C39.14,53.71,33.4,48.88,27.25,45c-.34-.23-1.08-1-1.42-.77.44,7.17.14,14.95.25,22.31,0,1.24,0,1.25,1.05.68,2.75-1.71,5.4-3.57,8.07-5.42.66-.67,1-.44.85.46q0,6.76,0,13.52a1.08,1.08,0,0,0,.54,1.07c2,.74,8.3,5.93,9.66,4.76,11.86-7.35,7.49-2.47,8.23-19.74-.18-.82.24-1.06.8-.44,2.8,2,5.69,3.82,8.56,5.69.41.27.72.48.72-.35C64.54,59.88,64.53,53,64.5,46.07Z"/><path class="cls-18" d="M64.56,51.77a.53.53,0,0,1,0,.13"/><path class="cls-19" d="M45.51,33.34a.52.52,0,0,0-.46-.16,4.45,4.45,0,0,0,.55.33A.91.91,0,0,0,45.51,33.34Z"/><path class="cls-18" d="M47.82,34.59l0,0"/><path class="cls-3" d="M83.16,24.06c.12-.82-.24-1.18-.91-.51-2.21,1.65-4.43,3.3-6.63,5-.9.85-3.19-1.54-4.07-2.06-2.23-1.53-4.48-3-6.66-4.6-.82-.59-1.5-.72-2.25,0-4,2.67-7.65,5.69-11.77,8.23a31.64,31.64,0,0,1-3,2.06c-.63.53-1.62,1.7-2.48,1.09.81,1.3.19,3,.28,4.41-.13,3.73.26,7.65-.15,11.3,2.72-2.17,5.88-3.92,8.59-6.11,3.45-1.93,6.56-5.06,10.13-6.7.58,4.38,0,9.37.28,13.94,0,1.56-.22,1.63,1.45,1.08,5.39-1.78,10.74-3.65,16.13-5.43a1.36,1.36,0,0,0,1.08-1.56C83.17,37.47,83.17,30.76,83.16,24.06Z"/><path class="cls-12" d="M31.59,24.08,31.45,24Z"/><path class="cls-12" d="M30.36,23.36a.23.23,0,0,1,0-.11l.14.12Z"/><path class="cls-20" d="M103.65,36.75,117,69.6l13.41-32.85c.45-1.12,1.09-1.71,1.92-1.71,1.28,0,2.1.89,2.1,2.42a4.57,4.57,0,0,1-.45,1.9L119.13,75a2.09,2.09,0,0,1-4.06,0l-15-35.68a4.17,4.17,0,0,1-.41-1.84c0-1.53.79-2.42,2.07-2.42C102.52,35,103.2,35.63,103.65,36.75Z"/><path class="cls-20" d="M142.13,43c-1.47,0-2.18-1-2.18-2.84s.71-2.84,2.18-2.84,2.18.94,2.18,2.84S143.56,43,142.13,43Zm-2,6.68c0-1.6.68-2.48,2-2.48s2,.88,2,2.48V74.09c0,1.66-.67,2.49-2,2.49s-2-.83-2-2.49Z"/><path class="cls-20" d="M175.5,69.65c0,4.44-2.85,6.63-8.56,6.63H152.28c-1.21,0-1.88-.77-1.88-2.31s.67-2.3,1.88-2.3h14.66c3.08,0,4.62-.71,4.62-2V66.34c0-1.36-1.54-2-4.62-2h-7.75c-5.75,0-8.57-2.13-8.57-6.45V55.1c0-5,2.94-7.58,8.84-7.58h5.14c1.24,0,1.92.83,1.92,2.37s-.71,2.31-1.92,2.31h-5.14c-3.27,0-4.93.95-4.93,2.9v2.6c0,1.6,1.66,2.43,4.89,2.43h7.74q8.34,0,8.34,6Z"/><path class="cls-20" d="M184.07,43c-1.46,0-2.18-1-2.18-2.84s.72-2.84,2.18-2.84,2.18.94,2.18,2.84S185.5,43,184.07,43Zm-2,6.68c0-1.6.68-2.48,2-2.48s2,.88,2,2.48V74.09c0,1.66-.67,2.49-2,2.49s-2-.83-2-2.49Z"/><path class="cls-20" d="M202.83,76.28c-6.51,0-9.74-3.13-9.74-9.35v-10c0-6.27,3.23-9.41,9.74-9.41h7.25c6.5,0,9.73,3.14,9.73,9.41v10c0,6.22-3.23,9.35-9.73,9.35Zm13-19.41c0-3-1.88-4.49-5.6-4.49h-7.51c-3.69,0-5.57,1.48-5.57,4.49V67c0,3,1.88,4.5,5.57,4.5h7.51c3.72,0,5.6-1.54,5.6-4.5Z"/><path class="cls-20" d="M249.43,56.93c0-3.07-1.88-4.55-5.6-4.55h-7.52c-3.68,0-5.56,1.48-5.56,4.55V74.09c0,1.66-.68,2.49-2,2.49s-2-.83-2-2.49V56.93q0-9.41,9.69-9.41h7.25q9.71,0,9.7,9.41V74.09c0,1.66-.68,2.49-2,2.49s-2-.83-2-2.49Z"/><path class="cls-20" d="M285,40.19H274.76c-1.24,0-1.88-.77-1.88-2.43s.64-2.43,1.88-2.43H299.3c1.28,0,1.91.83,1.91,2.37s-.63,2.49-1.91,2.49H289.07v33.9c0,1.66-.67,2.49-2,2.49S285,75.75,285,74.09Z"/><path class="cls-20" d="M307.3,63.86v3.61c0,2.78,1.73,4.2,5.23,4.2h5.56c1.24,0,1.88.77,1.88,2.3s-.64,2.31-1.88,2.31h-5.56c-6.09,0-9.17-2.9-9.17-8.76V55.93c0-5.57,2.74-8.41,8.19-8.41h10.86c5.34,0,8,2.55,8,7.58v6.63c0,1.42-.6,2.13-1.73,2.13Zm0-4.09h18.87c.23,0,.3-.17.3-.41V56.28c0-2.72-1.43-4.08-4.36-4.08H311.78c-3,0-4.48,1.36-4.48,4.08Z"/><path class="cls-20" d="M346.24,76.28c-6.5,0-9.74-3.13-9.74-9.35v-10q0-9.41,9.74-9.41h13c1.28,0,2,.83,2,2.43s-.68,2.43-2,2.43H346.09c-3.68,0-5.56,1.48-5.56,4.49V67c0,3,1.88,4.5,5.56,4.5h13.15c1.28,0,2,.77,2,2.37s-.68,2.42-2,2.42Z"/><path class="cls-20" d="M390.51,56.81c0-3-1.8-4.43-5.3-4.43H371.57V74.09c0,1.66-.68,2.49-2,2.49s-2-.83-2-2.49V36.7c0-1.6.67-2.49,2-2.49s2,.89,2,2.49V47.52h13.27q9.69,0,9.69,9.41V74.09c0,1.66-.67,2.49-2,2.49s-2-.83-2-2.49Z"/></svg>