<svg id="Layer_1" data-name="Layer 1" xmlns="http://www.w3.org/2000/svg" viewBox="0 0 1280 1280"><defs><style>.cls-1{fill:#e92965;}.cls-2{fill:none;}.cls-3{fill:#e92a47;}.cls-4{fill:#098db9;}.cls-5{fill:#6b111a;}.cls-6{fill:#2c303f;}.cls-7{fill:#11a3d7;}.cls-8{fill:#00a1d6;}.cls-9{fill:#9f9ea4;}.cls-10{fill:#191919;}.cls-11{fill:#d9d9d7;}.cls-12{fill:#e3e3e3;}.cls-13{fill:#ab1f24;}.cls-14{fill:#e0e0df;}.cls-15{fill:#e5e5e5;}.cls-16{fill:#eae9ea;}.cls-17{fill:#7e141f;}</style></defs><path class="cls-1" d="M446,435.2c0-5,.15-19.29-.74-26.56.15-.7,4.31,3.62,7.54,7.17-4.18-40.86-.19-83.3-1.54-124.64-.36-4.71,1.46-12-3.47-14.72-32.11,22.57-64.55,46.43-97.42,68.73-3.55,2.29-7,4.24-11,1.28-8.27-5.82-17.36-11.16-25.87-16.22-21-12.5-34.36-23.46-50.07-31.82-2.07-1.23-3.82-4.36-6.74-2.81-2.64,69.65-2.5,136.38-.06,207.05l.13,7c43.19,20.08,89.4,35.25,134.34,52,16.3,6.29,33.26,10.86,49.36,17.62C465.17,591.48,441.34,454,446,435.2Z"/><path class="cls-2" d="M645.09,1011.42c.18.2.27.33.23.34l-.3-.29-.28.19a.34.34,0,0,1-.12.09c-.18.06-.38-.1-.6-.38-1.74,7.51-.43,31.27.13,51.38l1.51-51.75Z"/><path class="cls-2" d="M644.44,1010l.17-.08v-.26A2.69,2.69,0,0,0,644.44,1010Z"/><path class="cls-2" d="M643.21,1094.65l.09-3.1c-.74,2.78-1.93,3.21-3.78.24q-3.94-3.57-7.94-7.25a13.87,13.87,0,0,1-2.54-1.87q3.11,3.4,6.2,6.8c3,3.24,4.72,5,6.32,5.4a2.91,2.91,0,0,1-.17-.3A3,3,0,0,1,643.21,1094.65Z"/><path class="cls-2" d="M490.25,844.45c-2.81,1.74,17.08,20.18,18.43,23.56l23.54,23.68c-14.64-16-28.83-31.9-41.89-47.14Z"/><path class="cls-2" d="M837.44,820.31c9.26-4.95,19.82-10.73,30.19-16.71v-.08c-5.62,3-11.26,6.05-16.87,9.13Q844.07,816.45,837.44,820.31Z"/><path class="cls-2" d="M823.1,827.84H823l-.08,0a2.79,2.79,0,0,1-.39-.1l-.28-.1-.21-.1a2.38,2.38,0,0,1-.31-.17,1.64,1.64,0,0,1-.22-.14c-.31.47-1.32,1.51-.13,1.51l-.19.23a2.58,2.58,0,0,1,.6-.44Z"/><path class="cls-2" d="M819.54,829.62l-.11.22.14-.23Z"/><path class="cls-3" d="M642.28,1008.21c-.06,0,.12.28.41.63C642.46,1008.33,642.3,1008,642.28,1008.21Z"/><path class="cls-3" d="M597.11,960.92c-21.26-22.29-43.56-45.9-64.89-69.23L508.68,868c-1.35-3.38-21.24-21.82-18.43-23.56-1-1.18-1.74-4.11-3-3.28-1.44,1-.27-.33-.4-.5-.84-1.06-5.05-2.71-4-4a9.16,9.16,0,0,1-4.48-4.57c-17.18-13.77-38.19-23.52-58.75-33.62-.59,20-.55,40.19,6.72,50.55,66.12,77.08,131.11,155.12,199.53,230.2l-1.24-1.52c2.61,2.43,5.23,4.87,7.82,7.3a10.18,10.18,0,0,1-.92-.5q4,3.68,7.94,7.25c1.85,3,3,2.54,3.78-.24l.85-28.8c-.56-20.11.26-43.24-.13-51.38M502.81,861.49a9.55,9.55,0,0,1-2.41-3C501.18,859.53,502,860.53,502.81,861.49Z"/><path class="cls-4" d="M632.5,1085c-2.59-2.43-5.21-4.87-7.82-7.3l1.24,1.52,3.12,3.41a13.87,13.87,0,0,0,2.54,1.87A10.18,10.18,0,0,0,632.5,1085Z"/><path class="cls-5" d="M644.62,1011.75a.34.34,0,0,0,.12-.09"/><path class="cls-5" d="M645.09,1011.42l-.07.05.3.29S645.27,1011.62,645.09,1011.42Z"/><path class="cls-5" d="M644.57,1007c0-2.78-.13-7.37-.49-17-1.14-30.69-.75-61.32-.63-92,0-6.11.81-8.33,3.78-9.62v-.16c-16.78-.33-32.84-10.67-49.14-15-42.32-15.22-84.92-30.1-126-48.32-.78,3.07,3.14,3.5,4.93,4.59.51.93.94,1.83,1.4,2.67a9.16,9.16,0,0,0,4.48,4.57c-1.06,1.26,3.15,2.91,4,4,.13.17-1,1.48.4.5,1.22-.83,2,2.1,3,3.28l.08.1c13.06,15.24,27.25,31.12,41.89,47.14,21.33,23.33,43.63,46.94,64.89,69.23,16.26,15.11,30.31,32.93,45.85,48.5a11.31,11.31,0,0,0,1.06,2"/><path class="cls-6" d="M819.88,829.14c-.11.15-.23.31-.34.48h0Z"/><path class="cls-6" d="M820.11,828.79c-4.14.47-7.67,2.92-11.88,3.33a6,6,0,0,0,1.87.4q5-1.85,9.95-3.64Z"/><path class="cls-6" d="M821.77,827.34a2.38,2.38,0,0,0,.31.17Z"/><path class="cls-6" d="M822.29,827.61l.28.1Z"/><path class="cls-6" d="M823,827.81l.08,0Z"/><path class="cls-6" d="M855.47,809.15c2-1,4-2.15,6-3.25C859.49,807,857.49,808.07,855.47,809.15Z"/><path class="cls-6" d="M853.37,810.65c-.25.07-.6.19-1,.32C852.8,810.83,853.18,810.7,853.37,810.65Z"/><path class="cls-6" d="M867.63,803.52v-.34q-8.46,4.71-16.87,9.47C856.37,809.57,862,806.55,867.63,803.52Z"/><path class="cls-7" d="M821.57,827.17l0,0a1.64,1.64,0,0,0,.22.14l.31.17.21.1.28.1a2.79,2.79,0,0,0,.39.1l.08,0h.06c4.17-2.16,9-4.7,14.34-7.53q6.63-3.87,13.32-7.66,8.41-4.77,16.87-9.47c0-.19,0-.38,0-.56-2.07,1-4.1,2.17-6.13,3.28s-4,2.2-6,3.25c-1.77.91-3.57,1.8-5.43,2.6.67-.17,1.58-.51,2.34-.78.39-.13.74-.25,1-.32-11.26,4.23-20.67,12.48-32.15,16.32a.1.1,0,0,1,0,0h0Z"/><path class="cls-1" d="M644.74,1011.66l.28-.19.07-.05.57-.42,0-1.13c23.3-23.53,47.37-47.46,71.46-71.73-.09.06-.17.14-.25.2,1-.94,1.94-1.92,2.9-2.91a.54.54,0,0,1-.21-.19l.72-.65a.63.63,0,0,1,.17.13c3.48-3.64,6.87-7.48,10.45-10.87-1.3,1.36-2.59,2.82-3.89,4.3,30.62-31,61.07-62.49,89.86-94.43l2.52-3.88.11-.22c.11-.17.23-.33.34-.48l.17-.26q-5,1.8-9.95,3.64c-51.66,19.15-102.51,41.62-156.56,54.2a32.82,32.82,0,0,0-6.31,1.63c-3,1.29-3.8,3.51-3.78,9.62-.12,30.73-.51,61.36.63,92,.36,9.59.45,14.18.49,17,0,1.13,0,2,0,2.7v.49"/><path class="cls-8" d="M502.81,861.49c-.84-1-1.63-2-2.41-3A9.55,9.55,0,0,0,502.81,861.49Z"/><path class="cls-9" d="M719.81,935.43c-1,1-1.92,2-2.9,2.91.08-.06.16-.14.25-.2.89-.9,1.79-1.8,2.68-2.71Z"/><path class="cls-9" d="M727.05,928.15c1.3-1.48,2.59-2.94,3.89-4.3-3.58,3.39-7,7.23-10.45,10.87l0,0Z"/><path class="cls-9" d="M819.88,829.14l-.31.47-.14.23-2.52,3.88,4.2-4.66.12-.12.19-.23c-1.19,0-.18-1,.13-1.51l0,0-.29-.17h0l-1.16,1.78-.06.09Z"/><path class="cls-5" d="M823.1,827.84l-1.27.66a2.58,2.58,0,0,0-.6.44l-.12.12-4.2,4.66c-28.79,31.94-59.24,63.45-89.86,94.43l-6.53,6.6c.27.35-.26.85-.68.68-.89.91-1.79,1.81-2.68,2.71-24.09,24.27-48.16,48.2-71.46,71.73l0,1.13-1.51,51.75-.85,28.8-.09,3.1a3,3,0,0,0-1.82-.08,2.91,2.91,0,0,0,.17.3c2,.44,3.69-1.26,7.27-5.13,12-13,23.82-26.27,35.68-39.45q88.56-98,175-197.88c5.06-5.59,7.68-11.43,7.64-19.32.34-9.73.45-19.58.43-29.49-10.37,6-20.93,11.76-30.19,16.71C832.14,823.14,827.27,825.68,823.1,827.84ZM744.9,911a.75.75,0,0,1,.78-.64A.76.76,0,0,1,744.9,911Z"/><path class="cls-4" d="M720.52,934.75l0,0a.63.63,0,0,0-.17-.13l-.72.65a.54.54,0,0,0,.21.19h0C720.26,935.6,720.79,935.1,720.52,934.75Z"/><path class="cls-6" d="M744.9,911a.76.76,0,0,0,.78-.64A.75.75,0,0,0,744.9,911Z"/><path class="cls-10" d="M1025.13,934.45c-1.93-97.65,2.21-198.58-2.48-294.67-3.59-1.77-7.11,2.43-10.16,4.66-19.44,14.18-38.62,28.69-58.09,42.82-10.36,8.37-15,7.21-22.77-3.94-16.68-12.54-34-24-50.83-36.44-3.35-2.28-6.62-6.52-11.13-4.35-6.33,50.73-2.22,106.42-2,160.09,0,.18,0,.37,0,.56v.42c0,9.91-.09,19.76-.43,29.49,0,7.89-2.58,13.73-7.64,19.32q-86.26,100-175,197.88c-11.86,13.18-23.63,26.44-35.68,39.45-3.58,3.87-5.32,5.57-7.27,5.13-1.6-.37-3.33-2.16-6.32-5.4q-3.11-3.39-6.2-6.8l-3.12-3.41c-68.42-75.08-133.41-153.12-199.53-230.2-7.27-10.36-7.31-30.55-6.72-50.55.45-15,1.25-29.9-.36-40.46-.9-35.76-.13-71.56-.29-107.34,0-9.42-3.08-11-11.06-6.09-22.19,14-41.49,32.17-63.42,46.51-7,3.52-13.72-6.48-19.27-9.79-5.55-3.74-11.76-6.47-17.26-10.34l.1.09a91.24,91.24,0,0,0-16.93-12.55,16.89,16.89,0,0,0-5.63-4.28,20.43,20.43,0,0,0-5.57-4.2,2,2,0,0,0-1.61-1.31c-.9-1.54-2.58-2.06-4-2.91-5.07-5.9-16.57-11.19-14.66,1.46-.22,39.46-.12,78.92-.59,118.39-.61,52.48-.15,105-.15,157.45,0,17.64,0,17.66,17,23.62,7.82,4,15.74,7.87,23.92,11.13,8.05,3.63,15.68,8.11,24,11.21,102.49,48.49,204.52,99.39,307.92,146.53,8,3.66,14.59,3.48,22.42-.4,53.9-26,107.58-52.5,162.47-76.36a243.72,243.72,0,0,0,24.09-11.2c6.33-2.25,12.15-5.57,18.16-8.47,8.4-2.9,16-7.42,24-11.12,14.22-6.18,28.59-12,42.16-19.57,17.55-6.65,34.22-15.15,50.84-23.77h0C985,957.61,1027.58,945.43,1025.13,934.45Z"/><path class="cls-10" d="M645.78,437.22c-1.6-13.57,7.39-35.47-5-44.56-2.69-1.84-5.59-3.81-7.38-6.5-53.29-35.7-106.3-72.21-161.7-104.41-7.17-2.23-12.94-9.62-21-8.62l.18,0c-16.95,4.62-3.46,106.13-7.6,128.77,0,8.52-1.14,17,8.61,21.43,64.14,41.84,126.87,86.33,191.81,126.61,5.63-5.69,1.8-14.12,2-21C645.89,498.36,645.78,467.78,645.78,437.22Z"/><path class="cls-11" d="M399,310.33c-1.26,2.2-2.92,3.87-5.59,4.21"/><path class="cls-12" d="M341.86,543.14,339,541.76Z"/><path class="cls-5" d="M641.91,162.82c-.3-.52-.48-.84-.64-1.08-31.45,21.29-63.65,42.81-94.45,65-6.13,4.05-13.22,7.11-18.58,12.23-11.77,9.57,2.52,25.89,12.84,16.13,32-24.57,66-47.07,99.37-69.52C644.08,182.52,643.81,168.3,641.91,162.82Z"/><path class="cls-11" d="M548.47,225.44l-1.61,1.23Z"/><path class="cls-13" d="M672.3,407.93c-1.88-.46-3.76-.91-5.63-1.38l.28.21c-.14-.09-.42-.06-.38-.28C668.71,404.89,670.59,407,672.3,407.93Z"/><path class="cls-14" d="M829.82,426l-2.72,0C828,424.84,828.94,424.6,829.82,426Z"/><path class="cls-14" d="M832.6,576.71l-1.19-1.48Z"/><path class="cls-14" d="M825.57,426.51a1.94,1.94,0,0,1-1,.85Z"/><path class="cls-14" d="M832.76,578.08c0-.44-.08-.87-.12-1.31L834.2,578C833.81,578.47,833.2,578.65,832.76,578.08Z"/><path class="cls-1" d="M640.45,185.54c1.4-6.86-.54-16.9.86-23.76,26.67,15.56,54.28,37.84,80,54.89,9.28,9,48.69,24.25,35.17,39.49-3.84,2.77-7.94,1.6-11.57-1.19C710.61,231.54,676,205.8,640.45,185.54Z"/><path class="cls-5" d="M642.38,214.19c-.22-.38-.36-.63-.48-.81-25.43,16.94-50.84,34.8-76,52-19.24,7.27-12.3,26.46.8,18.06,24-18.46,49.51-35.34,74.6-52.2C644,229,643.8,218.31,642.38,214.19Z"/><path class="cls-1" d="M641.39,234.11c1.21-6-.48-14.74.74-20.73,23.26,13.58,47.34,33,69.73,47.88,8.47,8.54,41.86,19.89,30.67,34.44-3.34,2.41-6.92,1.39-10.09-1C702.57,274.23,672.36,251.78,641.39,234.11Z"/><path class="cls-15" d="M286,522.33l1.43,1.35Z"/><path class="cls-15" d="M272,516.76l1.43,1.34Z"/><path class="cls-5" d="M833.41,521.3c1.81-12.94-5.21-20.32-15.68-9.09-58.53,39.11-114,84.32-174.31,119.61-63.06-34.3-120.34-82.53-181.69-121.14-3.38-2.25-10.79-9.72-14.22-7.67,4.43,71.56,1.38,149.16,2.54,222.67,0,12.35.06,12.48,10.44,6.74,27.42-17,53.92-35.61,80.5-54.09,6.61-6.65,10.26-4.34,8.56,4.66q.18,67.43.1,134.84c0,4.94,1.17,8.23,5.37,10.69C575,836,637.8,887.74,651.34,876c118.41-73.33,74.81-24.58,82.13-196.91-1.79-8.21,2.43-10.57,8.06-4.46,27.93,19.82,56.72,38.17,85.35,56.79,4.18,2.71,7.26,4.78,7.22-3.44C833.79,659.08,833.71,590.19,833.41,521.3Z"/><path class="cls-16" d="M834,578.17c0,.42.09.83.1,1.25"/><path class="cls-17" d="M643.9,394.26c-1-1.49-3-1.61-4.62-1.57,1.51,1.33,3.89,2.18,5.47,3.28A4.82,4.82,0,0,0,643.9,394.26Z"/><path class="cls-16" d="M667,406.76l-.28-.21"/><path class="cls-3" d="M1019.6,301.62c1.22-8.17-2.38-11.73-9-5.1-22.15,16.49-44.27,33-66.22,49.74-8.94,8.48-31.81-15.33-40.65-20.57-22.15-15.23-44.61-30.06-66.37-45.86-8.21-5.95-15-7.18-22.53-.14C775,306.3,738.47,336.51,697.42,361.83c-5.48,5.46-21.47,14.85-29.68,20.58-6.31,5.28-16.14,17-24.77,10.83,8.11,13,2,29.59,2.81,44-1.29,37.29,2.6,76.35-1.46,112.8,27.14-21.68,58.63-39.08,85.74-60.92,34.36-19.31,65.42-50.53,101-66.91,5.84,43.71.36,93.46,2.77,139.13.17,15.59-2.11,16.29,14.54,10.78,53.74-17.8,107.19-36.42,160.93-54.21,8.49-2.8,10.84-7.08,10.79-15.53C1019.72,435.44,1019.76,368.52,1019.6,301.62Z"/><path class="cls-12" d="M505,301.85c-.46-.44-.92-.88-1.39-1.31C504,301,504.5,301.41,505,301.85Z"/><path class="cls-12" d="M492.7,294.65a3.41,3.41,0,0,1-.26-1.09l1.34,1.18A3.59,3.59,0,0,1,492.7,294.65Z"/></svg>