<svg id="Layer_1" data-name="Layer 1" xmlns="http://www.w3.org/2000/svg" viewBox="0 0 1280 1280"><defs><style>.cls-1,.cls-2{fill:#191919;stroke:#f2f2f3;stroke-miterlimit:10;}.cls-1{stroke-width:4px;}.cls-2{stroke-width:2px;}.cls-3{fill:#231f20;}</style></defs><path class="cls-1" d="M541.91,688.71q-10.47-12.45-21-24.83-7.41-8.7-14.94-17.3c-2.18-2.49-3.74-5.13-3.73-8.62,0-7.69,0-15.38-.17-23.07-.7-.39-1.39-.8-2.07-1.2a5.32,5.32,0,0,0-2.27-1l-.47-.39,0,0a1,1,0,0,1-.91-.4h0l-.46-.4h0a1,1,0,0,1-.92-.42h0c-.16-.14-.31-.28-.46-.4h0a1.06,1.06,0,0,1-.92-.41h0l-.47-.39-.46,0h0l-.46-.38v0h0l-.46-.39-.46,0a2.89,2.89,0,0,1-2.33-1.22h0a1.46,1.46,0,0,1-1.4-.83,1,1,0,0,1-.93-.41h0a1.43,1.43,0,0,1-1.39-.82v0c-.16-.12-.31-.25-.47-.39l-.46,0-.47-.4h0l-.47-.41-.45,0-.24-.2-.24-.2-.48-.41-.46-.4-.92,0c-.16-.13-.34-.26-.48-.4s-.31-.27-.47-.4l-.46,0-.48-.4h0a1,1,0,0,1-.91-.42h0c-.49,0-.86.09-1.14.15a21.46,21.46,0,0,1,2.94,4,8.94,8.94,0,0,1,2.73,3.8,9.18,9.18,0,0,1,.84,1.91c.34.39.67.79,1,1.2a28.6,28.6,0,0,1,3.69,6.8c1.46,1.92,2.63,4,4,6a9.83,9.83,0,0,1,1.33,1.68c.27.47.64.88.91,1.34a13.35,13.35,0,0,1,.71,1.26,12.25,12.25,0,0,1,1.93,3.43c.18.27.34.54.49.81a15.55,15.55,0,0,1,2.21,3.39,1.94,1.94,0,0,1,.33.92,45.68,45.68,0,0,1,2.88,5.45,12.45,12.45,0,0,1,2.56,4.12,38.8,38.8,0,0,1,5,6.86l.54,1c.18.26.35.53.52.81.94,1.53,1.78,3.11,2.71,4.64.31.51.66,1,1,1.51a11.63,11.63,0,0,1,1.92,2.27l.09.11.17.19.72.77c1.73,1.83,3.45,3.66,5.12,5.53.18.19.36.38.53.58s.36.4.53.59.2.25.31.37l.35.39a36,36,0,0,1,2.26,2.93,47.35,47.35,0,0,1,6.25,6.73,13.55,13.55,0,0,1,1.8,3.09,12.66,12.66,0,0,1,2.24,3.3c4.91,5.9,9.83,11.79,14.53,17.81,3.91,5,7.85,10,12.12,14.82a46.1,46.1,0,0,1,4.28,5.38c.17.26.33.53.49.8a8.64,8.64,0,0,1,1.25,2.1,12.91,12.91,0,0,1,4.29,5.41l1.4,1.49c.7.74,1.43,1.49,2.14,2.23a0,0,0,0,1,0,0A5.26,5.26,0,0,1,579.9,742h0a1.8,1.8,0,0,0,.2.19c.21.22.42.45.64.66s.15.15.22.22c4.51,4.51,9.19,8.9,14.16,13a19,19,0,0,1,3.15,3.34,13.77,13.77,0,0,1,2.18,1.56l2.13,2.44a8.6,8.6,0,0,1,.86,1.46l2.1,1.92c4.45,4,8.54,8.39,13.16,12.29a2,2,0,0,1,.69,1,57.68,57.68,0,0,1,6,5.24c.41.3.81.61,1.22.94.64.53,1.26,1.08,1.85,1.66.76.72,1.47,1.49,2.16,2.27a.16.16,0,0,0,.07.07l4.92,4.59h0c.31.21.6.42.89.65ZM528.75,677c-.52-.63-1-1.26-1.52-1.89.93.93,1.8,1.91,2.65,2.9A4.64,4.64,0,0,1,528.75,677Zm17.16-32.78c-.15-.2-.17-.32-.12-.41-.2.1,0,.34.17.55C545.94,644.28,545.93,644.23,545.91,644.18Zm1.06-.54c-.55-.25-3.54-3.7-3.6-4.3-.14-1.6-2.79-2.37-4.12-3.37a5,5,0,0,1-1.14-1.29c.15.35.3.83.37,1,1.09,1.76,1.26,2.23,3,3.17-.67.79,2,1.83,2.51,2.5.08.1-.66.93.25.31s1.22,1.3,1.84,2C546.77,643.65,548,644.11,547,643.64Zm-.76.13.21.46c0,.1-.14.14-.38.16a2.85,2.85,0,0,0,.29.25c2.39,2.57,4.77,4.2,6.61,7.13A55.4,55.4,0,0,0,546.21,643.77Zm126.47,74.94,0,0a7,7,0,0,0-2.52,1.63c-.07.08-.15.16-.22.25l-.12.14-.27.36-.08.12a7.87,7.87,0,0,1-1.07,1.24h0l-.43.4-.38.33-.83.7-.41.36-.31.27-.18.17-.3.29c-.13.14-.26.27-.38.42-1.57,1.85-3.44,3.51-5.2,5.25a1.3,1.3,0,0,1-.08.17.91.91,0,0,1-.11.16h0a.83.83,0,0,1-.11.15l0,0a.74.74,0,0,1-.12.13,2.77,2.77,0,0,1-.36.31h0a4.35,4.35,0,0,1-.52.29l-.06.1h0l-.18.28h0a1.88,1.88,0,0,1-.22.26,5.33,5.33,0,0,1-.49.46l-.31.22-.19.12a.6.6,0,0,1-.15.09l-.53.29c-.15.07-.3.15-.46.21-.36.16-.74.31-1.11.46.31.19.38.38.25.56,0,0,0,0,0,0a.3.3,0,0,1-.08.08l-.16.12c0,.14,0,.28-.07.42s-.28.26-.4.38l0,0-.42.38,0,0h0c-.13.12-.28.24-.41.38-.33.15-.66.3-1,.47a.89.89,0,0,1-.88.35,2,2,0,0,0-1,.89l-.39.35-.07.07c-.14.12-.27.22-.41.35a9.89,9.89,0,0,1-.64.81,0,0,0,0,1,0,0c-.14.17-.29.33-.45.49l-.06.05-.05.06-.44.42-.49.42c-.88.75-1.84,1.44-2.77,2.16l-.75.6a.65.65,0,0,1-.11.12.47.47,0,0,1-.33.16h-.09l-.1,0-.06,0a.74.74,0,0,1-.19-.2c0-.1,0-.2,0-.29v-.15a6,6,0,0,1-.48-.4,1.7,1.7,0,0,1-1.52-1l-.09-.12a.64.64,0,0,0-.1-.13l-.08-.07a.58.58,0,0,0-.6-.12c-.52.18-.37.65-.42,1a1.83,1.83,0,0,1-.44.19c-.73.18-1.16-.4-1.64-.81.47.47,2.83,3.62,4.43,5.36,0,15.14,0,37-.06,52.27v.85s0,0,0,0c.83-.55.41-1.29.41-1.9q0-24.6,0-49.2c0-.45,0-.89.06-1.34,0-.07,0-.12,0-.19s0-.2,0-.31h0a.43.43,0,0,1,0,0,.65.65,0,0,1,.15-.36h0a.9.9,0,0,1,.72-.33h.06a33.77,33.77,0,0,1,4-3.58,1.88,1.88,0,0,1,.23-.16c.72-.83,1.48-1.64,2.26-2.42l.59-.59c.39-.4.8-.78,1.19-1.16,1.82-1.71,3.69-3.39,5.47-5.14q3.72-3.69,7.48-7.36c2.5-2.44,5-4.88,7.5-7.33l0-.07a1.75,1.75,0,0,0,.16-.25.11.11,0,0,0,0-.05l.06-.13a1.42,1.42,0,0,1,.08-.18Z"/><path class="cls-1" d="M637.78,742.34c-30.81-32-63.58-66.07-91.66-98.68-.62-.75-1.08-2.57-1.84-2s-.17-.21-.25-.31c-.53-.67-3.18-1.71-2.51-2.5-2.13-1-2.6-2.5-3.7-4.55-1.15-.7-3.5-.91-3.12-2.86-22-5-36.55-32.95-32.44,6.57,23.57,39.7,107.13,124.2,137.84,161.33l-.28-.39c.7.51,2.6,3,2.37,1.11C639.82,783.42,647.8,755.68,637.78,742.34ZM552.4,652.25a14.74,14.74,0,0,0,1.63,2.14,18.46,18.46,0,0,1-2.35-3A3.14,3.14,0,0,1,552.4,652.25Z"/><path class="cls-1" d="M579.9,742c-.8-.8-1.58-1.61-2.36-2.42A5.31,5.31,0,0,1,579.9,742Z"/><path class="cls-1" d="M625.37,785.42l-1-.73-.7-.47-.59-.4-.67-.75a3.51,3.51,0,0,0-.33-.34c-.23-.25-.48-.49-.72-.73s-.62-.56-.94-.84l-.13-.1c-.24-.2-.46-.39-.7-.57a2.38,2.38,0,0,1-.18-.3A56.43,56.43,0,0,1,625.37,785.42Z"/><path class="cls-1" d="M630.67,790.37l4.92,4.58c-.34-.22-.67-.44-1-.64s-.77-.44-1.17-.65c-.51-.65-1-1.28-1.57-1.92C631.44,791.27,631.06,790.82,630.67,790.37Z"/><path class="cls-1" d="M639.9,743a1.83,1.83,0,0,1-.44.19s0-.05,0-.06a1.34,1.34,0,0,1,0-.2c0-.59,0-1.18.81-1.3,1.07-.18,1.6.69,2.29,1.21.12.09.23.17.34.27l.13.12.17.15.16.13,0,0,.19.14a.85.85,0,0,0,.69-.13c1.6-1.53,3.54-2.74,4.94-4.43a5.49,5.49,0,0,1,.43-.4l.2-.19a3.59,3.59,0,0,1,.39-.39,3.41,3.41,0,0,1,1.09-.81c.32-.13.65-.25,1-.39l.86-.47.4-.23.19-.13.33-.29.15-.18c.06-.12.15-.24.22-.36s.11-.28.15-.42a2.26,2.26,0,0,1,.24-1,13.61,13.61,0,0,0,3.42-2.28l.44-.37c.21-.19.43-.39.63-.61a4.58,4.58,0,0,0,.42-.46c3.13-3.74,7-6.93,10.32-10.52a2.64,2.64,0,0,1,2.58-1l0,.06a6.56,6.56,0,0,0-3.22,2.5c-1.09,1.64-3,2.65-4.27,4.18-1.58,1.85-3.45,3.51-5.21,5.25a2.47,2.47,0,0,1-1.33,1.23c-.79,1.36-2.28,1.92-3.72,2.5.43.28.41.54,0,.79,0,.15,0,.29-.07.44l-.4.37,0,0-.42.38-.05,0-.42.37c-.32.16-.65.31-1,.48a.9.9,0,0,1-.88.35,1.93,1.93,0,0,0-1,.89l-.39.35-.07.07-.41.35c-1.44,2.06-3.7,3.4-5.66,5-.3.39-.59.39-.89,0,0-.15,0-.29,0-.43-.17-.13-.33-.27-.48-.41a1.7,1.7,0,0,1-1.52-1c-.18-.29-.45-.6-.87-.45S640,742.63,639.9,743Z"/><path class="cls-1" d="M666.84,725.61c-.36.35-.71.69-1.05,1a4.26,4.26,0,0,1,.48-.57l.28-.26Z"/><path class="cls-1" d="M643.83,767.65v5.59a14.27,14.27,0,0,1,0-5.37Z"/><path class="cls-1" d="M643.86,788.77a13.82,13.82,0,0,1-.24-3.86c.23-2.45-.12-4.92.21-7.38Q643.83,783.16,643.86,788.77Z"/><path class="cls-1" d="M646.46,798.83a1.41,1.41,0,0,1-.18.61c-.18.16-.37.31-.55.48h0a1.84,1.84,0,0,1-.66.13A2.54,2.54,0,0,1,646.46,798.83Z"/><path class="cls-1" d="M712.88,735.13h0Z"/><path class="cls-1" d="M643.54,747.55a1.59,1.59,0,0,1,.05-.41s0,0,.06,0h0A.31.31,0,0,1,643.54,747.55Z"/><path class="cls-1" d="M644,671.39c-37-10.52-73.6-25.27-109.28-40,30.5,34.41,77.52,85.24,108.31,116.51C645.32,724.88,643.16,693.1,644,671.39Zm-2.27,75.25c0-.11.12.08.26.39C641.8,746.82,641.7,746.67,641.73,746.64Z"/><path class="cls-1" d="M527.23,675.07c.94.93,1.8,1.91,2.65,2.9a4.86,4.86,0,0,1-1.13-1C528.23,676.33,527.74,675.7,527.23,675.07Z"/><path class="cls-1" d="M477.64,601.59c.23.26.68.17.91.42A1,1,0,0,1,477.64,601.59Z"/><path class="cls-1" d="M485.12,605.72c.43.32.94.53,1.39.83A1.42,1.42,0,0,1,485.12,605.72Z"/><path class="cls-1" d="M486.52,606.55c.25.25.67.17.93.41A1,1,0,0,1,486.52,606.55Z"/><path class="cls-1" d="M487.45,607c.45.31.95.53,1.4.83A1.45,1.45,0,0,1,487.45,607Z"/><path class="cls-1" d="M488.86,607.79c.7.52,1.61.74,2.33,1.23A2.89,2.89,0,0,1,488.86,607.79Z"/><path class="cls-1" d="M493.54,610.27c.24.25.67.17.91.42A1,1,0,0,1,493.54,610.27Z"/><path class="cls-1" d="M494.94,611.1c.24.25.67.17.92.42A1.06,1.06,0,0,1,494.94,611.1Z"/><path class="cls-1" d="M497.26,612.34a1,1,0,0,1-.92-.41C496.59,612.18,497,612.09,497.26,612.34Z"/><path class="cls-1" d="M491.19,609a2.89,2.89,0,0,1-2.33-1.23A3,3,0,0,1,491.19,609Z"/><path class="cls-1" d="M486.51,606.55a1.42,1.42,0,0,1-1.39-.83A1.45,1.45,0,0,1,486.51,606.55Z"/><path class="cls-1" d="M488.85,607.79a1.45,1.45,0,0,1-1.4-.83A1.45,1.45,0,0,1,488.85,607.79Z"/><path class="cls-1" d="M497.26,612.34a1,1,0,0,1-.92-.41A1,1,0,0,1,497.26,612.34Z"/><path class="cls-1" d="M495.86,611.52a1.06,1.06,0,0,1-.92-.42A1,1,0,0,1,495.86,611.52Z"/><path class="cls-1" d="M494.45,610.69a1,1,0,0,1-.91-.42A1,1,0,0,1,494.45,610.69Z"/><path class="cls-1" d="M487.45,607a1,1,0,0,1-.93-.41A1.07,1.07,0,0,1,487.45,607Z"/><path class="cls-1" d="M478.55,602a1,1,0,0,1-.91-.42A1,1,0,0,1,478.55,602Z"/><path class="cls-1" d="M480.45,603.23l-.48-.4Z"/><path class="cls-1" d="M492.6,609.85l-.47-.39Z"/><path class="cls-1" d="M493.53,610.27l-.47-.4Z"/><path class="cls-1" d="M754.38,633.78l-.13.14,0,.06c-.27.32-.54.67-.8,1-.49.63-1,1.27-1.52,1.87-.2.25-.42.48-.65.72l-.09.1s0,0,0,0-.18.18-.27.27l0,0c-5.56,5.62-10.77,11.53-16.21,17.24q-12,12.74-24.13,25.42a6.63,6.63,0,0,1-1.8,1.6.65.65,0,0,1-.05.21.62.62,0,0,1-.07.19c0,.05-.05.09-.07.13l0,.05h0a3,3,0,0,1-.32.4c-.07.08-.16.16-.24.24h0l-.27.25,0,0-.16.15-.15.15a.65.65,0,0,0-.13.16,1,1,0,0,0-.13.17,1.57,1.57,0,0,0-.25.58v0a1.36,1.36,0,0,1-.13-.55,1.09,1.09,0,0,1,0-.18c.09-.6.67-1,1.14-1.47a2,2,0,0,0,.55-.73C723.28,666.54,738,650.8,753,634.65l.08-.08c.08-.08.15-.17.24-.25l-.12,0h0c-1.85.59-3.14,1.09-4.46,1.52-.33.11-.65.23-1,.32h0a1.83,1.83,0,0,1-1.65-.28l.46-.07a31,31,0,0,0,5-1.58,9.33,9.33,0,0,1,1.36-.36l.62-.1C753.82,633.79,754.09,633.78,754.38,633.78Z"/><path class="cls-1" d="M792.86,612.76a2.92,2.92,0,0,1-.47.23,6.3,6.3,0,0,1-.78.39c-.32.12-.64.26-1,.36a1,1,0,0,1-.24.09l0,0a.58.58,0,0,0-.14,0l0,0-.09,0a2.8,2.8,0,0,1-.41.13.07.07,0,0,1-.06,0l-1.53.91,0,0-.83.52a.75.75,0,0,0-.17.1.17.17,0,0,0-.08.07h0c-.41.23-.81.47-1.22.69a4.37,4.37,0,0,1-.49.23l-.59.28-.11.05-1.47.63h0l-.15,0a3.93,3.93,0,0,1-.54.2c-.26.11-.5.21-.73.29l-2,1c-.07.06-.17.12-.24.17-.34.25-.69.49-1.05.73s-.64.42-1,.61l-.13.08c-.34.2-.69.4-1,.58a26.46,26.46,0,0,1-2.94,1.4l-.31.18c.15,0,.29-.11.42-.14.49-.17.82-.27,1-.35h0s0,0,0,0l-.19.07-.27.09c-.15.06-.31.13-.47.18l-.91.37c-3.73,2.16-7.42,4.38-11.15,6.57a16.47,16.47,0,0,1-5.91,2.49l-1.26.49.18.11a2.07,2.07,0,0,1,.45.27c.61.44,1.33.11,2-.12A19.26,19.26,0,0,0,760,631.1q9-5.24,18.06-10.43c.43-.24.86-.49,1.29-.72s.75-.42,1.13-.61l2.64-1.41,1.27-.68a17.91,17.91,0,0,0,5.64-2.73c1-.67,2.1-1.31,3.19-1.92Z"/><path class="cls-1" d="M795,623.4a.75.75,0,0,1-.11.2,1,1,0,0,1-.14.24,1,1,0,0,0,0-.24h-.09a.28.28,0,0,1-.11-.35.87.87,0,0,1,.11-.18c0,.18.05.34.09.51A2,2,0,0,0,795,623.4Z"/><path class="cls-1" d="M803.19,609.49a2.17,2.17,0,0,1-.51,1.4,5.93,5.93,0,0,0-.38.54C802.59,610.78,802.88,610.14,803.19,609.49Z"/><path class="cls-1" d="M801.63,613.4c0,.09-.11.16-.15.25s0-.07,0-.11Z"/><path class="cls-1" d="M803.19,609.49a2.17,2.17,0,0,1-.51,1.4,5.93,5.93,0,0,0-.38.54C802.59,610.78,802.88,610.14,803.19,609.49Z"/><path class="cls-1" d="M805.45,607.19l-.16.42c-.2.36-.4.71-.51.87-.64,1-1.28,1.91-1.9,2.88A16.77,16.77,0,0,1,805.45,607.19Z"/><path class="cls-1" d="M798.15,620.46a.11.11,0,0,1,.06-.08.07.07,0,0,1,0,.06Z"/><path class="cls-1" d="M799.57,617.93c-.2.47-.4.93-.58,1.31a.35.35,0,0,0-.07.09,6.62,6.62,0,0,0-.47.65c.25-.45.58-1.12.76-1.49A5.86,5.86,0,0,1,799.57,617.93Z"/><path class="cls-1" d="M790.38,613.86c-2,1.16-4,2.29-6,3.39l-1.27.68-2.64,1.41c-.38.19-.76.4-1.13.61s-.86.48-1.29.72Q769,625.86,760,631.1a19.26,19.26,0,0,1-3.05,1.86c-.67.23-1.39.56-2,.12a2.07,2.07,0,0,0-.45-.27l-.18-.11s0,0,0,0a58.18,58.18,0,0,0,6.94-3.14c2.32-1.26,4.56-2.68,6.84-4,1.12-.65,2.27-1.31,3.45-1.91a12.15,12.15,0,0,1,1.13-.49l.91-.37c.16,0,.32-.12.47-.18l.27-.09.19-.07s0,0,0,0h0c-.18.08-.51.18-1,.35-.13,0-.27.09-.42.14a3.22,3.22,0,0,1-.64.2l1-.38a26.46,26.46,0,0,0,2.94-1.4c.35-.18.7-.38,1-.58l.13-.08c.33-.19.66-.39,1-.61s.71-.48,1.05-.73c.07-.05.17-.11.24-.17l.76-.59c.4-.13.8-.28,1.22-.43.23-.08.47-.18.73-.29a3.93,3.93,0,0,0,.54-.2l.15,0h0l1.47-.63.11-.05.59-.28a4.37,4.37,0,0,0,.49-.23c.41-.22.81-.46,1.22-.69h0a.17.17,0,0,1,.08-.07.75.75,0,0,1,.17-.1l.83-.52,0,0c.13-.11.26-.18.38-.28s.44-.29.66-.45a.45.45,0,0,1,.18-.07l.31-.11a.07.07,0,0,0,.06,0,2.8,2.8,0,0,0,.41-.13l.09,0,0,0A.58.58,0,0,1,790.38,613.86Z"/><path class="cls-1" d="M793.19,612.6c-1.09.61-2.15,1.25-3.19,1.92a18,18,0,0,1-5.64,2.73c.06-.11.15-.2.2-.29l.11-.05.58-.27c.19-.08.33-.15.5-.24.41-.22.81-.46,1.21-.69h0l.09-.08a1.4,1.4,0,0,1,.17-.09l.83-.52,0,0c.13-.11.26-.18.38-.28s.44-.29.66-.45a.67.67,0,0,1,.18-.07l.31-.11s0,0,.05,0a2.3,2.3,0,0,0,.42-.13l.09,0,0,0s.13,0,.18-.06a1,1,0,0,0,.24-.09c.31-.11.64-.23.94-.36s.55-.24.79-.38.32-.15.47-.24Z"/><path class="cls-1" d="M795,623.4a.75.75,0,0,1-.11.2h-.25a.28.28,0,0,1-.11-.35.87.87,0,0,1,.11-.18c0,.18.05.34.09.51A2,2,0,0,0,795,623.4Z"/><path class="cls-1" d="M801.63,613.4c0,.09-.11.16-.15.25s0-.07,0-.11Z"/><path class="cls-1" d="M803.19,609.49a2.17,2.17,0,0,1-.51,1.4,5.93,5.93,0,0,0-.38.54C802.59,610.78,802.88,610.14,803.19,609.49Z"/><path class="cls-1" d="M522.76,671.54c.17.19.35.38.51.58-.18-.2-.37-.4-.54-.6Z"/><path class="cls-1" d="M527.23,675.07c.94.93,1.8,1.91,2.65,2.9a4.86,4.86,0,0,1-1.13-1C528.23,676.33,527.74,675.7,527.23,675.07Z"/><path class="cls-1" d="M580.11,742.2l.86.87h0Z"/><path class="cls-1" d="M753.57,633.81c-.14.31-1,1-.13,1-35.82,38.82-71.28,77.35-110.3,110.5-.22-22.66-.75-45.31-.67-68-1.56-7.65,7.91-6.76,12-8.42C688.32,660.08,721,645.81,753.57,633.81Z"/><path class="cls-1" d="M643.83,767.65v5.59a14.27,14.27,0,0,1,0-5.37Z"/><path class="cls-1" d="M643.86,788.77a13.82,13.82,0,0,1-.24-3.86c.23-2.45-.12-4.92.21-7.38Q643.83,783.16,643.86,788.77Z"/><path class="cls-1" d="M644.07,776.27q-.15.63-.24,1.26v-4.29a2.62,2.62,0,0,0,.09.38A5.58,5.58,0,0,1,644.07,776.27Z"/><path class="cls-1" d="M666.84,725.61c-.36.35-.71.69-1.05,1a4.26,4.26,0,0,1,.48-.57l.28-.26Z"/><path class="cls-1" d="M712.88,735.13h0Z"/><path class="cls-1" d="M751.36,639.32a.17.17,0,0,0-.09.11,9.88,9.88,0,0,0-.73.72l-.35,0-.34-.08a2.7,2.7,0,0,0,.53-.22A4.34,4.34,0,0,0,751.36,639.32Z"/><path class="cls-1" d="M660,730.61a2.47,2.47,0,0,1-1.33,1.23,1.21,1.21,0,0,1,0-.58.77.77,0,0,1,.63-.61A1.74,1.74,0,0,1,660,730.61Z"/><path class="cls-1" d="M644.09,744.26c-.3.39-.59.39-.89,0Z"/><path class="cls-1" d="M652.51,737.24a.9.9,0,0,1-.88.35A.94.94,0,0,1,652.51,737.24Z"/><path class="cls-1" d="M654.89,735.13c0-.25,0-.52,0-.79C655.34,734.62,655.32,734.88,654.89,735.13Z"/><path class="cls-1" d="M783,643.76c-.25.37-.5.73-.74,1.1a10.86,10.86,0,0,0,.33-1.11A1.15,1.15,0,0,1,783,643.76Z"/><path class="cls-1" d="M795,623.4a.75.75,0,0,1-.11.2,1,1,0,0,1-.14.24,1,1,0,0,0,0-.24v0A2,2,0,0,0,795,623.4Z"/><path class="cls-1" d="M800.17,616.49l0,.15c-.06.12-.11.25-.16.38,0-.17.12-.31.18-.48C800.16,616.53,800.16,616.51,800.17,616.49Z"/><path class="cls-1" d="M801.63,613.4c0,.09-.11.16-.15.25s0-.07,0-.11Z"/><path class="cls-1" d="M725.58,721.11c-.34.46-.67.93-1,1.4.32-.46.64-.92,1-1.37Z"/><path class="cls-1" d="M712.88,735.13h0Z"/><path class="cls-1" d="M713.5,734.94q-.15.28-.3.6a.84.84,0,0,0-.32-.41A1.06,1.06,0,0,0,713.5,734.94Z"/><path class="cls-1" d="M783,643.76c-.25.37-.5.73-.74,1.1a10.86,10.86,0,0,0,.33-1.11A1.15,1.15,0,0,1,783,643.76Z"/><path class="cls-1" d="M646.46,798.83a1.41,1.41,0,0,1-.18.61,1,1,0,0,1-.55.48h0a1.84,1.84,0,0,1-.66.13A2.54,2.54,0,0,1,646.46,798.83Z"/><path class="cls-1" d="M647.39,798l-.45.41Z"/><path class="cls-1" d="M646.92,798.42l-.46.4Z"/><path class="cls-1" d="M645.05,800.07l-.45.41Z"/><path class="cls-1" d="M524.12,673.08l.35.39-.05,0C524.33,673.32,524.22,673.2,524.12,673.08Z"/><path class="cls-1" d="M527.23,675.07c.94.93,1.8,1.91,2.65,2.9a4.86,4.86,0,0,1-1.13-1C528.23,676.33,527.74,675.7,527.23,675.07Z"/><path class="cls-1" d="M554,654.39a6.3,6.3,0,0,1-1.51-1.88C553,653.16,553.51,653.78,554,654.39Z"/><path class="cls-1" d="M696.8,694.26h0l-.12.12c-1.95,1.92-3.84,4-5.76,6.05l-.42.44c-.61.63-1.21,1.24-1.83,1.84l.69-.44a14.56,14.56,0,0,0,1.13-.95l.12-.11h0l0,0a6.57,6.57,0,0,0,.62-.68l.13-.15c.14-.19.29-.36.43-.54s.39-.47.58-.7.3-.36.46-.54h0l.46-.54c.12-.14.24-.28.37-.41l.49-.54.63-.65c.52-.53,1.06-1,1.63-1.53l.4-.33a1.64,1.64,0,0,1,.25-.22s0,0,0,0l.09-.07.07-.06a.08.08,0,0,1,0-.07,2.76,2.76,0,0,1,.16-.51Zm53.05-54.21.34.08.19-.3A2.7,2.7,0,0,1,749.85,640.05Zm.53-.22a2.7,2.7,0,0,1-.53.22l.34.08.35,0a9.88,9.88,0,0,1,.73-.72.17.17,0,0,1,.09-.11A4.34,4.34,0,0,1,750.38,639.83Zm4.09-7-.18-.11-.72,1.11h0l-.09.14-.06.09-.2.3-.09.14-.11.16L750.87,638c.09-.09.18-.19.27-.27s0,0,0,0l.09-.1c.23-.24.45-.47.65-.72.52-.6,1-1.24,1.52-1.87.26-.33.53-.68.8-1l0-.06.13-.14C753.62,633.78,754.29,633.1,754.47,632.81ZM648.65,796.49l-.18.18c-.86.86-1.47,1.57-1.08,1.33h0a6.82,6.82,0,0,1,2.34-2.08l.47-.41c.14-.15.31-.28.45-.42l.93-.82a.18.18,0,0,0,0-.1C651.6,793.74,649.91,795.24,648.65,796.49Zm-.47,1.29a5.66,5.66,0,0,1-.79.22c-.07.31.46,0,.29.22l.14-.11a3.48,3.48,0,0,0,.28-.24,1.58,1.58,0,0,1,.15-.12S648.19,797.76,648.18,797.78Z"/><path class="cls-1" d="M805,604.44v0c-2.18,1.44-4.2,3.11-6.74,4.08A18.4,18.4,0,0,1,796.7,610s0,0,0,0a18.31,18.31,0,0,1-3.17,2.37l-.09.05a1.3,1.3,0,0,0-.23.15c-1.09.61-2.15,1.25-3.19,1.92a17.91,17.91,0,0,1-5.64,2.73l-1.27.68q0,9.3.07,18.6a16.83,16.83,0,0,1-4.8,12.15c-8.45,9.33-16.29,19.18-24.71,28.54-11.25,12.51-22,25.49-33.5,37.78-3.32,4.12-7,7.92-10.47,11.89-13.65,15.54-27.56,30.84-41.4,46.21-7.45,8.29-14.85,16.63-22.43,24.81a15.31,15.31,0,0,1-3.22,3,2.67,2.67,0,0,1-.39.18.38.38,0,0,0,0-.1v-.15c.83-.55.41-1.29.41-1.9q0-24.6,0-49.2c0-.45,0-.89.06-1.34.19.32.39.54.55.48a.23.23,0,0,0,.11-.11.44.44,0,0,0,.33.12s-.07-.13-.24-.32a6.33,6.33,0,0,0,.13-1,.31.31,0,0,0,.11-.42h0a33.77,33.77,0,0,1,4-3.58,31.09,31.09,0,0,0-3.44,1.92,2.28,2.28,0,0,1-1.06.82c-.46.22-.86.44-.86.9v.55c0,15.14,0,37-.06,52.27v1a1.81,1.81,0,0,1-1,0h-.06l.12.19c.12.21.22.42.34.62a3.56,3.56,0,0,0,.6.34c0,.44,0,.89,0,1.25s.36-.61.5-1.47c.66-.41,1.07-1.1,1.85-1.39a1,1,0,0,1,.25,0c.18-.05,2.27,1.74,2.42,1.65l-1-2.7.2-.17c.06,0,1.69,1.28,1.75,1.22s-1.29-1.62-1.16-1.72a.73.73,0,0,1,.2-.19c.12-.11.27-.22.39-.34s-.36.09-.29-.22h0c-.39.24.22-.47,1.08-1.33l.18-.18c1.26-1.25,3-2.75,3-2.32a.18.18,0,0,1,0,.1l-.93.82c-.14.14-.31.27-.45.42l-.47.41a6.82,6.82,0,0,0-2.34,2.08,5.66,5.66,0,0,0,.79-.22c1.51-1.42,6-5.62,6.2-5.81,9.61-9.09,19.11-18.28,29.15-27,3-2.54,5.84-5.15,8.64-7.8,4.64-4.42,9.37-8.73,14.45-12.74.18-.36.38-.7.58-1a12.19,12.19,0,0,1,1.6-2,13.43,13.43,0,0,1,1.84-1.93c.56-.41,1.16-.83,1.76-1.25,0,0,0,0,0,0a1.69,1.69,0,0,1,.55-.61c.62-.7,1.23-1.39,1.87-2.08A69.92,69.92,0,0,1,720,729.4c.37-.63.76-1.23,1.1-1.76.64-.93,1.28-1.87,1.91-2.82l0-.05c.25-.37.53-.75.76-1.13l.79-1.13L725,722a.61.61,0,0,0,.07-.1l.07-.09.45-.64,0,0c.2-.27.39-.55.6-.82.74-1,1.5-2,2.29-2.91,1.22-1.46,2.47-2.87,3.71-4.29-.86.78,1.64-1.79,2-2.26,1-1.29,2-2.61,3-3.91,3.27-4.34,7.33-8.32,10.61-12.61,2.47-3.22,3.84-6.13,6.85-9.79a13,13,0,0,1,2.17-1.86c.09-.16.2-.3.31-.47a10,10,0,0,1,1.75-2.07,5.54,5.54,0,0,1,.33-.51,17,17,0,0,1,3.32-4.32h0c.13-.24.26-.46.4-.68l1.26-1.85c.2-.33.42-.66.64-1l3-4.66c4.32-6.72,8.49-13.5,12.93-20.14l.23-.33.87-1.28c.11-.16.24-.32.35-.49h0c.12-.37.24-.73.33-1.12a1.58,1.58,0,0,1,.42,0c.2-.27.39-.56.61-.85.57-.82,1.13-1.64,1.71-2.44,1-1.34,2-2.68,3-4a27.09,27.09,0,0,1,2-2.35,15.92,15.92,0,0,1,1.36-2.22c.29-.6.57-1.22.88-1.82.49-1,1-2,1.54-2.91l.82-1.44.8-1.42q1.43-2.51,2.88-5c.11-.2.2-.35.29-.49v0c.09-.13.14-.23.2-.33a.41.41,0,0,0,.07-.11l.09-.1h0l0,0a.19.19,0,0,1,0,.09.25.25,0,0,1,0,.11,5.86,5.86,0,0,1,.36-.56s0,0,0,0l.11-.27c.09-.2.18-.4.26-.6s.12-.31.18-.47l0,0a0,0,0,0,1,0,0c.08-.2.16-.4.24-.58.29-.75.57-1.37.71-1.66s.24-.4.37-.6c0,0,0-.07,0-.11a.57.57,0,0,1,.13-.14c.2-.35.41-.71.64-1.06s.4-.65.62-1a16.44,16.44,0,0,1,2.56-4.17l0,0c.13-.34.25-.69.4-1l0,0c.08-.27.2-.54.3-.82a.44.44,0,0,0,.08-.15c.31-.74.64-1.49,1-2.22A21,21,0,0,0,805,604.44ZM646.44,799a1.4,1.4,0,0,1-.09.31l-.06.11-.15-.42a.6.6,0,0,1,.13-.09h0l.12,0,.06,0h0Zm66.76-63.46a.61.61,0,0,0-.09-.18l0-.05-.08-.09-.11-.09h0a2.35,2.35,0,0,0,.37,0l.12-.05h0l.07,0,0,0h0c0,.09-.09.19-.14.29ZM794.93,623.6a.63.63,0,0,1-.14.24,1,1,0,0,0,0-.24l-.09,0a.27.27,0,0,1-.11-.34.26.26,0,0,1,.11-.18c0,.18.05.34.09.51a2,2,0,0,0,.27-.17A.75.75,0,0,1,794.93,623.6Zm7.76-12.71a4.56,4.56,0,0,0-.39.54c.29-.66.59-1.29.9-1.94A2.28,2.28,0,0,1,802.69,610.89Zm-93.14,70.84q12.09-12.69,24.13-25.42c5.44-5.71,10.64-11.62,16.21-17.25l0,0a14.87,14.87,0,0,0,1-1.11l.2-.23c-.09.08-.18.18-.27.27l0,0c-5.56,5.62-10.77,11.53-16.21,17.24q-12,12.74-24.13,25.42a6.63,6.63,0,0,1-1.8,1.6.8.8,0,0,1-.05.21.62.62,0,0,1-.07.19c0,.05-.05.09-.07.13l0,.05C708.87,682.5,709.19,682.1,709.55,681.73Zm-3.29,3.76h0a.49.49,0,0,0,.48-.4h0A.47.47,0,0,0,706.26,685.49Zm-6.3,6.3a42.21,42.21,0,0,1,5.74-6.46c.3-.3.62-.59.93-.89a1.36,1.36,0,0,0,.13.55,1.4,1.4,0,0,0,0-.65c0-.05-.05-.08-.09-.08-3.5,1.3-3.15,3.8-5.33,5.24.08.45-2.26,2.64-2.59,2.94s-.83.74-1.24,1.16a2.76,2.76,0,0,0-.16.51.08.08,0,0,0,0,.07l-.07.06a1.76,1.76,0,0,0,.68-.14A8.25,8.25,0,0,0,700,691.79Zm-4.05,3.84a1.64,1.64,0,0,1,.25-.22s0,0,0,0l.17-.13a.08.08,0,0,1,0-.07c0-.1,0-.19.07-.29-.57.49-1.11,1-1.63,1.53l-.63.65-.49.54-.37.41-.46.54A27.23,27.23,0,0,1,695.91,695.63Zm-7.5,7.72a14.56,14.56,0,0,0,1.13-1l.16-.15a6.57,6.57,0,0,0,.62-.68,1.83,1.83,0,0,0,.13-.16l.15-.19-.12.11a14.56,14.56,0,0,1-1.13.95l-.69.44c-.44.42-.88.82-1.32,1.22l.38-.15Zm-15.73,15.36-.07.18a1.42,1.42,0,0,1,.08-.18Zm-.3.61-.06.06-7.49,7.34c2.5-2.44,5-4.88,7.5-7.33Zm-28.46,54.3a2.62,2.62,0,0,1-.09-.38v4.29q.09-.63.24-1.26A5.58,5.58,0,0,0,643.92,773.62Zm-.3,11.29a13.82,13.82,0,0,0,.24,3.86q0-5.61,0-11.24C643.5,780,643.85,782.46,643.62,784.91Zm.18-17a14.27,14.27,0,0,0,0,5.37v-5.59Z"/><path class="cls-1" d="M783.09,617.93c-38.66,17.09-61.76,55-90.24,80.64-46.19,52-52.83,28-50.62,102.26,26.54-26.2,52.24-57.52,77.92-85.83C741.68,683.71,787.89,659.64,783.09,617.93ZM666.86,725.59c-.37.35-.72.71-1.07,1.06A4.15,4.15,0,0,1,666.86,725.59Zm84.41-86.16c-.43.39-.76.93-1.42.62C750.24,640,751.36,639.27,751.27,639.43Z"/><path class="cls-1" d="M718.48,727.28h0Z"/><path class="cls-1" d="M783,643.76c-.25.37-.5.73-.74,1.1a10.86,10.86,0,0,0,.33-1.11A1.15,1.15,0,0,1,783,643.76Z"/><path class="cls-1" d="M794.77,623.57v0h-.09a.28.28,0,0,1-.11-.35.87.87,0,0,1,.11-.18C794.72,623.24,794.73,623.4,794.77,623.57Z"/><path class="cls-1" d="M690.35,700.76l.46-.41.18.15c0,.27-.16.41-.45.42Z"/><path class="cls-1" d="M706.75,685.09a.49.49,0,0,1-.48.4h0a.47.47,0,0,1,.49-.4Z"/><path class="cls-1" d="M506,648.11l3.23,3.64C508.06,650.56,507,649.34,506,648.11Z"/><path class="cls-1" d="M520.93,663.88q10.55,12.38,21,24.83l-32.7-37c1.78,1.85,3.62,3.6,5,5.16Q517.58,660.48,520.93,663.88Z"/><path class="cls-1" d="M642.25,802.11h0v0l-.82-.91-.18-.21-4.74-5.35a18,18,0,0,1,3.61,3.68l-.28-.39,1.6,1.5a4.75,4.75,0,0,0,.77.46V800c0,.27,0,.55,0,.82V801a.38.38,0,0,1,0,.1C642.24,801.42,642.25,801.76,642.25,802.11Z"/><path class="cls-1" d="M484.16,617.59c.68,1.18,1.38,2.36,2.09,3.53Z"/><path class="cls-1" d="M518.33,386.34c0-3.17.1-12.13-.46-16.7.09-.44,2.71,2.28,4.74,4.51-9.46-105.18,28-106.85-64.41-44.41-7.39,5.13-16.24-6.75-23.19-9.4-3.07-.46-23.47-15.28-31.49-20-2.64-3.08-6.27-2.4-5,2.26.67,43.48-1.42,87.18.91,130.54h-.07c27.16,12.63,56.21,22.17,84.47,32.69,7.49.74,39.19,19.62,37.79,5.65C522.09,443,518.4,414.85,518.33,386.34Z"/><path class="cls-1" d="M664,227.75l-.63-.54A1.19,1.19,0,0,1,664,227.75Z"/><path class="cls-1" d="M666.66,229.55l-.63-.61Z"/><path class="cls-1" d="M672.83,234l-.66-.63Z"/><path class="cls-1" d="M676.32,236.55l-.63-.6Z"/><path class="cls-1" d="M398.37,432.33l-.84-.88Z"/><path class="cls-1" d="M399.3,433.14a3.25,3.25,0,0,1,2.61.95Z"/><path class="cls-1" d="M882.47,700.26c0,3-1,4.36-3.66,5.6-9.16,4.33-18.17,8.95-27.24,13.46h0c-10.44,5.41-20.92,10.77-32,14.94-8.54,4.76-17.6,8.44-26.56,12.33-5,2.33-9.81,5.16-15.08,7-3.79,1.83-7.45,3.93-11.44,5.34a150.22,150.22,0,0,1-15.12,7c-17.43,7.15-34.2,15.67-51.24,23.63s-34.06,16-50.92,24.39c-4.93,2.44-9.09,2.55-14.1.25q-46.93-21.51-93.42-44Q497.86,749,454,727.74a8.45,8.45,0,0,0-1.68-.43c-3.68-1.59-7.55-2.79-10.79-5.26-5.2-1.95-10-4.75-15-7a165.78,165.78,0,0,1-15.05-7h0c-10.72-3.74-10.72-3.75-10.72-14.84,0-33-.29-66,.1-99,.29-24.82.23-49.63.37-74.44,0-1.68-.62-3.75,1.35-4.74s3.64.49,5.18,1.56c1,.66,1.75,1.55,2.68,2.25.9.54,2,.86,2.53,1.84a1.23,1.23,0,0,1,1,.82,13.16,13.16,0,0,1,3.51,2.64,10.51,10.51,0,0,1,3.52,2.68,57.1,57.1,0,0,1,10.6,7.86c3.17,2.13,6.54,3.9,9.85,5.79a6.9,6.9,0,0,1,1,.7c2.38,2.17,5.14,3.87,7.68,5.84a3.47,3.47,0,0,0,4.44.32,5.85,5.85,0,0,1,1-.64,10.37,10.37,0,0,0,2.84-2.07,7.75,7.75,0,0,1,1-.71c6.25-4.58,12.7-8.9,18.5-14.08,5.46-4,10.76-8.21,16.55-11.75,5-3.07,6.92-2.09,7,3.83.1,22.5-.38,45,.18,67.5q.33,12.78.56,25.54c.13,7.69.2,15.38.17,23.07,0,3.49,1.55,6.13,3.73,8.62q7.54,8.59,14.94,17.3,10.55,12.38,21,24.83c11.63,13.82,23.28,27.65,35.22,41.22,17.06,19.4,34,38.93,51.31,58.09,1.18,1.31,2.37,2.61,3.55,3.91l0,0,1.71,1.88h0q1.78,2,3.58,3.91c1.88,2,3,3.18,4,3.4l.12,0a1.61,1.61,0,0,0,.78-.08h0a2.67,2.67,0,0,0,.39-.18,15.31,15.31,0,0,0,3.22-3c7.58-8.18,15-16.52,22.43-24.81,13.84-15.37,27.75-30.67,41.4-46.21,3.48-4,7.15-7.77,10.47-11.89,11.52-12.29,22.25-25.27,33.5-37.78,8.42-9.36,16.26-19.21,24.71-28.54a16.83,16.83,0,0,0,4.8-12.15q0-9.3-.07-18.6a1.82,1.82,0,0,1,0-.33h0c-.11-31.36-.05-62.73,0-94.09,0-2.35-1.12-5.46,1.63-6.79s4.89,1.31,7,2.73c3.4,2.31,6.51,5,10,7.18.39.22.8.44,1.21.63A7.46,7.46,0,0,1,804,528l.5.41a7.33,7.33,0,0,0,1.93,1.52,9.25,9.25,0,0,1,1,.7,26.43,26.43,0,0,0,5.24,3.71,6.59,6.59,0,0,1,1,.68c3,2.91,7.06,4.4,10,7.35a2.47,2.47,0,0,1,.39,1.12c6.42,6.16,7,6.35,13.92,1.36,12.24-8.89,24.31-18,36.52-26.93,1.93-1.4,4.14-4,6.4-2.93s.93,4.29.93,6.53Q882.19,610.88,882.47,700.26Z"/><path class="cls-1" d="M829,455.09l1.67-.75Z"/><path class="cls-1" d="M864.93,442.77l1.66-.63Z"/><path class="cls-1" d="M867.65,441.91l1.57-.62Z"/><path class="cls-1" d="M870.25,441l1.63-.65Z"/><path class="cls-1" d="M815.06,459.48l1.56-.61Z"/><path class="cls-1" d="M836,452.42l1.67-.6Z"/><path class="cls-1" d="M821.16,457.68l1.55-.59Z"/><path class="cls-1" d="M830.87,454.24l1.54-.66Z"/><path class="cls-1" d="M834.29,453.31l.76-.6Z"/><path class="cls-1" d="M838.74,451.55l.66-.45A1.1,1.1,0,0,1,838.74,451.55Z"/><path class="cls-1" d="M823.76,456.75l.7-.4A.87.87,0,0,1,823.76,456.75Z"/><path class="cls-1" d="M643.94,387.61c0-3.63.23-7.25.53-10.87.42-5.05.62-10.18-1.18-15.07l-.31-.78a2.26,2.26,0,0,0-.23-.29c-.18-.23-.38-.44-.58-.65a11.05,11.05,0,0,1-1.37-.36,2.78,2.78,0,0,1-1.63-1.36,2.47,2.47,0,0,1-.49-.36,2.42,2.42,0,0,1-1.39-1.1,2.46,2.46,0,0,1-1.13-1.27c-3.7-2.53-7.44-5-11.13-7.54-22.1-15.21-44.9-29.34-67.19-44.25a79,79,0,0,1-9.51-5.91l-1.75-1.13a67.54,67.54,0,0,1-6.13-3.35c-2-1.14-3.89-2.52-6-3.46l-.57-.26-.56-.11h0l-.24-.24a15.66,15.66,0,0,1-4.36-2.52,1.79,1.79,0,0,1-.25-.22,2.33,2.33,0,0,1-.82-.49c-1.49-.64-2.95-1.53-4.53-1.53a2.68,2.68,0,0,1-.83-.13l-.24,0a3.26,3.26,0,0,1-.45-.05,3.18,3.18,0,0,1-.33.09h.12a4.36,4.36,0,0,0-.81.2,7.25,7.25,0,0,0-1,.57c-.53.46-1,1-1.51,1.48a6.92,6.92,0,0,1-1.31,1c-.09,2.31-.21,4.63-.21,6.94,0,23.58.13,47.17,0,70.75,0,5.36-.72,10.71,5.41,13.47,27.26,18.18,54.63,36.25,81.77,54.61,9.27,6.27,18.91,12,27.92,18.66a12.45,12.45,0,0,1,1.21.44,20.46,20.46,0,0,1,2.47,1.37c1.69,1.06,3.23,2.3,5,3.31.74.43,1.51.84,2.29,1.23a12.38,12.38,0,0,0,1.3-1.78.76.76,0,0,1,.11-.16c1.26-3.77-.21-7.5-.19-11.27C644,426.06,643.94,406.83,643.94,387.61Z"/><path class="cls-1" d="M452.83,454.21l-1.79-.86Z"/><path class="cls-2" d="M641.5,215.07c-5.71.83-12.73,8.75-19.08,11.6-10.55,8.85-22.72,15.18-33.61,23.44-6,4.61-12.85,8.07-18.78,12.82-7.46,6.08,1.7,16.34,8.17,10.07,20.11-15.42,41.41-29.55,62.39-43.64C642.86,227.46,642.69,218.52,641.5,215.07Z"/><path class="cls-1" d="M837.53,323.58a2.39,2.39,0,0,1-2.34,1.72A2.66,2.66,0,0,1,837.53,323.58Z"/><path class="cls-1" d="M702.62,254.14l-1.51-.67Z"/><path class="cls-1" d="M582.74,254.44l-1,.78Z"/><path class="cls-1" d="M703.5,255l-.6-.59A1.27,1.27,0,0,1,703.5,255Z"/><path class="cls-1" d="M705.26,255.89l-.7-.63Z"/><path class="cls-1" d="M706.14,256.74l-.61-.59A1.25,1.25,0,0,1,706.14,256.74Z"/><path class="cls-1" d="M707,257.55a.58.58,0,0,1-.56-.52A1.18,1.18,0,0,1,707,257.55Z"/><path class="cls-1" d="M838.52,322.77l-.7.62Z"/><path class="cls-1" d="M839.43,321.89l-.73.71Z"/><path class="cls-1" d="M774.59,292.79l-.76-.74Z"/><path class="cls-1" d="M660.61,369.19l-3.54-.86.18.13-.23-.09a.43.43,0,0,1,0-.05v0a0,0,0,0,1,0,0C658.51,367.36,659.48,368.59,660.61,369.19Z"/><path class="cls-1" d="M729,400.75l-1.51.88Z"/><path class="cls-1" d="M741.26,392l-1.61.91Z"/><path class="cls-1" d="M743.89,390.24l-1.68.85Z"/><path class="cls-1" d="M746.51,388.49l-1.64.86Z"/><path class="cls-1" d="M750,385.89l-1.5.87Z"/><path class="cls-1" d="M759.66,380.54l-1.71,0C758.53,379.82,759.1,379.68,759.66,380.54Z"/><path class="cls-1" d="M721.08,406.05l-1.57.89Z"/><path class="cls-1" d="M761.41,475.32l-.75-.93Z"/><path class="cls-1" d="M748.29,386.92l-.77.65Z"/><path class="cls-1" d="M750.87,385.16l-.76.64Z"/><path class="cls-1" d="M752.66,384.24l-.87.67Z"/><path class="cls-1" d="M753.49,383.46l-.65.6Z"/><path class="cls-1" d="M755.27,382.42l-.86.72Z"/><path class="cls-1" d="M756.14,381.59l-.74.69Z"/><path class="cls-1" d="M757,380.88a1.23,1.23,0,0,1-.64.53C756.56,381.23,756.77,381.05,757,380.88Z"/><path class="cls-1" d="M761.5,476.18c0-.27,0-.55-.07-.82l1,.74-.13.14A.49.49,0,0,1,761.5,476.18Z"/><path class="cls-1" d="M718.46,407.77l-1,.81Z"/><path class="cls-1" d="M719.37,407l-.88.72Z"/><path class="cls-1" d="M722,405.33l-.8.65Z"/><path class="cls-1" d="M722.75,404.65a1.44,1.44,0,0,1-.54.47A.49.49,0,0,1,722.75,404.65Z"/><path class="cls-1" d="M747.4,387.68l-.83.75Z"/><path class="cls-1" d="M724.51,403.72a1.08,1.08,0,0,1-.59.48A.57.57,0,0,1,724.51,403.72Z"/><path class="cls-1" d="M727.25,401.79c0,.23,0,.46,0,.7l-.09.06a6.49,6.49,0,0,1-.77-.11Z"/><path class="cls-1" d="M729.88,400l-.86.73Z"/><path class="cls-1" d="M730.77,399.19l-.76.68Z"/><path class="cls-1" d="M731.58,398.41a1.67,1.67,0,0,1-.62.59Z"/><path class="cls-1" d="M733.4,397.31l-.92.77Z"/><path class="cls-1" d="M734.23,396.52l-.77.72Z"/><path class="cls-1" d="M736,395.58l-.93.72Z"/><path class="cls-1" d="M736.84,394.8l-.72.65Z"/><path class="cls-1" d="M738.62,393.74l-.93.8Z"/><path class="cls-1" d="M739.53,393l-.86.74Z"/><path class="cls-1" d="M742.14,391.15l-.84.8Z"/><path class="cls-1" d="M744.78,389.43l-.84.78Z"/><path class="cls-2" d="M640.59,229.36c.87-4.32-.34-10.63.53-14.94,16.77,9.78,34.14,23.79,50.28,34.51,6.24,6.41,30,13.92,22.11,24.83-2.41,1.74-5,1-7.27-.74C684.7,258.28,662.92,242.1,640.59,229.36Z"/><path class="cls-1" d="M658.71,256.89l-.48-.4A.9.9,0,0,1,658.71,256.89Z"/><path class="cls-1" d="M660.69,258.24l-.48-.45Z"/><path class="cls-1" d="M665.32,261.57l-.5-.48Z"/><path class="cls-1" d="M667.93,263.5l-.47-.45Z"/><path class="cls-2" d="M641.8,247.37c-16.34,8.67-33.45,23.17-50.12,33.42-10,3.46-4.44,17,3.83,9.09,14.8-11.14,30.26-21.52,45.6-31.78C642.82,256.67,642.69,250,641.8,247.37Z"/><path class="cls-2" d="M641.11,258.1c.66-3.24-.26-8,.4-11.22,12.59,7.35,25.63,17.87,37.74,25.92,4.83,5,22.28,10.06,16.61,18.64-1.82,1.3-3.75.75-5.46-.56C674.23,279.82,657.88,267.66,641.11,258.1Z"/><path class="cls-1" d="M407.37,441.46l-.09.26a.79.79,0,0,1-.28-.12s.05-.16.08-.25Z"/><path class="cls-1" d="M417.68,441.13l.9.85Z"/><path class="cls-1" d="M408.91,437.63l.9.84Z"/><path class="cls-1" d="M761.92,440.48c1.29-8-3.63-12.74-9.86-5.71-34,23.65-67.67,48.11-101.88,71.12-6.89,6.6-11.68,3.05-18.27-1.64C593.59,481.3,557.73,450.32,519.27,429c2.78,45,.86,93.79,1.59,140,0,7.76,0,7.84,6.57,4.23,17.24-10.72,33.9-22.39,50.61-34,4-4.16,6.55-2.58,5.39,2.93,2.88,29.31-5.53,64.81,3.43,91.51,14.86,5.47,48,35.74,60.57,29.85,11.4-10,49.7-24.18,51.94-36.72.42-30.39-1.51-62,.32-91.85,19.32,10.34,38.5,26.13,58.12,37.65,2.63,1.71,4.56,3,4.54-2.16C762.16,527.12,762.1,483.8,761.92,440.48Z"/><path class="cls-1" d="M761.5,476.18q.4,0,.78.06a6.82,6.82,0,0,1,.07.79Z"/><path class="cls-1" d="M642.75,360.6c-.18-.23-.38-.44-.58-.65a12,12,0,0,1-1.34-.35h-1l1.44,1a8.42,8.42,0,0,1,2,1l-.31-.78A2.26,2.26,0,0,0,642.75,360.6Z"/><path class="cls-1" d="M657.25,368.46l-.18-.13"/><path class="cls-1" d="M879,302.35c.83-5-1.69-7.36-5.68-3.21-13.92,10.37-27.84,20.75-41.64,31.28-7.63,4.66-18.72-9.17-25.55-12.94-12.47-5.12-46.21-40.59-55.9-28.93-25,16.74-48,35.73-73.81,51.65-3.45,3.44-13.5,9.34-18.67,12.95-4,3.32-10.15,10.67-15.57,6.8,5.1,8.18,1.24,18.61,1.77,27.66-.81,23.45,1.63,48-.92,70.93,17.06-13.64,36.86-24.57,53.91-38.3,19.69-12.18,38.38-27.11,58.09-39.91,3.9-3.56,8.05-2.94,6.65,2.93.21,27.46.21,54.92.53,82.39.11,9.8-1.33,10.24,9.14,6.77C922.75,420.6,870.45,461.72,879,302.35Z"/><path class="cls-1" d="M555.39,302.49l-.87-.82Z"/><path class="cls-1" d="M547.68,298a2.19,2.19,0,0,1-.17-.68l.85.74H548Z"/><path class="cls-1" d="M746.59,288.42l.75-.75Z"/><polygon class="cls-1" points="528.75 1009.33 528.75 1009.34 528.74 1009.34 528.75 1009.33"/><path class="cls-1" d="M534,1010.84c-1.83,2-3.52,5.57-6.38,4.16s.69-3.69,1.18-5.66C530.39,1009.67,532.2,1009.28,534,1010.84Z"/><polygon class="cls-1" points="528.75 1009.33 528.75 1009.34 528.74 1009.34 528.75 1009.33"/><path class="cls-3" d="M165.72,888.38l42.87,66.84,43-66.84a6.92,6.92,0,0,1,6.14-3.49c4.1,0,6.75,1.81,6.75,4.94a6.72,6.72,0,0,1-1.45,3.85l-47.69,72.5a8.13,8.13,0,0,1-13,0L154.4,893.56a5.88,5.88,0,0,1-1.32-3.73c0-3.13,2.52-4.94,6.62-4.94A7,7,0,0,1,165.72,888.38Z"/><path class="cls-3" d="M289,901.15c-4.7,0-7-1.93-7-5.78s2.29-5.78,7-5.78,7,1.92,7,5.78S293.61,901.15,289,901.15Zm-6.38,13.61c0-3.26,2.16-5.06,6.38-5.06s6.38,1.8,6.38,5.06v49.61c0,3.37-2.17,5.06-6.38,5.06s-6.38-1.69-6.38-5.06Z"/><path class="cls-3" d="M396,955.34c0,9-9.15,13.49-27.45,13.49h-47c-3.85,0-6-1.57-6-4.7s2.17-4.7,6-4.7h47c9.87,0,14.81-1.44,14.81-4.09v-6.75c0-2.77-4.94-4.09-14.81-4.09H343.71c-18.43,0-27.46-4.33-27.46-13.13v-5.66c0-10.23,9.4-15.41,28.3-15.41h16.5c4,0,6.14,1.69,6.14,4.82s-2.29,4.69-6.14,4.69h-16.5c-10.47,0-15.77,1.93-15.77,5.9V931c0,3.25,5.3,4.94,15.65,4.94h24.81Q396,936,396,948.23Z"/><path class="cls-3" d="M423.43,901.15c-4.69,0-7-1.93-7-5.78s2.29-5.78,7-5.78,7,1.92,7,5.78S428,901.15,423.43,901.15Zm-6.38,13.61c0-3.26,2.17-5.06,6.38-5.06s6.39,1.8,6.39,5.06v49.61c0,3.37-2.17,5.06-6.39,5.06s-6.38-1.69-6.38-5.06Z"/><path class="cls-3" d="M483.52,968.83c-20.83,0-31.19-6.39-31.19-19V929.45c0-12.77,10.36-19.15,31.19-19.15h23.25c20.83,0,31.18,6.38,31.18,19.15V949.8c0,12.64-10.35,19-31.18,19Zm41.55-39.5c0-6.14-6-9.16-17.94-9.16H483c-11.8,0-17.82,3-17.82,9.16v20.59c0,6,6,9.15,17.82,9.15h24.09c11.92,0,17.94-3.13,17.94-9.15Z"/><path class="cls-3" d="M632.85,929.45c0-6.26-6-9.28-17.94-9.28H590.83c-11.81,0-17.83,3-17.83,9.28v34.92c0,3.37-2.17,5.06-6.38,5.06s-6.38-1.69-6.38-5.06V929.45q0-19.16,31.07-19.15h23.24q31.07,0,31.07,19.15v34.92c0,3.37-2.17,5.06-6.39,5.06s-6.38-1.69-6.38-5.06Z"/><path class="cls-3" d="M746.9,895.37H714c-4,0-6-1.57-6-4.94s2-4.94,6-4.94h78.64c4.09,0,6.14,1.69,6.14,4.82q0,5.06-6.14,5.06H759.9v69c0,3.37-2.16,5.06-6.38,5.06-4.45,0-6.62-1.69-6.62-5.06Z"/><path class="cls-3" d="M818.31,943.54v7.34c0,5.66,5.54,8.55,16.74,8.55h17.82c4,0,6,1.57,6,4.7s-2,4.7-6,4.7H835.05c-19.51,0-29.38-5.91-29.38-17.83V927.4c0-11.32,8.79-17.1,26.25-17.1h34.8c17.1,0,25.65,5.18,25.65,15.41V939.2c0,2.89-1.93,4.34-5.54,4.34Zm0-8.31h60.45c.73,0,1-.36,1-.85v-6.26c0-5.54-4.58-8.31-14-8.31H832.64c-9.63,0-14.33,2.77-14.33,8.31Z"/><path class="cls-3" d="M943.07,968.83c-20.83,0-31.19-6.39-31.19-19V929.45c0-12.77,10.36-19.15,31.19-19.15h41.67c4.09,0,6.26,1.69,6.26,4.94s-2.17,4.93-6.26,4.93H942.59c-11.8,0-17.82,3-17.82,9.16v20.59c0,6,6,9.15,17.82,9.15h42.15c4.09,0,6.26,1.57,6.26,4.82s-2.17,4.94-6.26,4.94Z"/><path class="cls-3" d="M1084.93,929.21c0-6-5.78-9-17-9h-43.71v44.2c0,3.37-2.17,5.06-6.38,5.06s-6.38-1.69-6.38-5.06V888.26c0-3.25,2.16-5,6.38-5s6.38,1.8,6.38,5v22h42.51q31.07,0,31.07,19.15v34.92c0,3.37-2.17,5.06-6.38,5.06s-6.51-1.69-6.51-5.06Z"/></svg>