<svg id="Layer_1" data-name="Layer 1" xmlns="http://www.w3.org/2000/svg" viewBox="0 0 1280 1280"><defs><style>.cls-1,.cls-11{fill:#191919;}.cls-17,.cls-2{fill:#e92965;}.cls-10,.cls-11,.cls-12,.cls-13,.cls-14,.cls-15,.cls-16,.cls-17,.cls-18,.cls-19,.cls-2,.cls-20,.cls-21,.cls-3,.cls-4,.cls-5,.cls-6,.cls-7,.cls-8,.cls-9{stroke:#f2f2f3;stroke-miterlimit:10;}.cls-10,.cls-11,.cls-13,.cls-15,.cls-16,.cls-18,.cls-19,.cls-2,.cls-20,.cls-3,.cls-4,.cls-5,.cls-6,.cls-7,.cls-8,.cls-9{stroke-width:7px;}.cls-3{fill:none;}.cls-4{fill:#e92a47;}.cls-5{fill:#098db9;}.cls-14,.cls-6{fill:#6b111a;}.cls-7{fill:#2c303f;}.cls-8{fill:#11a3d7;}.cls-9{fill:#00a1d6;}.cls-10{fill:#9f9ea4;}.cls-12{fill:#d9d9d7;}.cls-12,.cls-21{stroke-width:4px;}.cls-13,.cls-21{fill:#e3e3e3;}.cls-14,.cls-17{stroke-width:5px;}.cls-15{fill:#ab1f24;}.cls-16{fill:#e0e0df;}.cls-18{fill:#e5e5e5;}.cls-19{fill:#eae9ea;}.cls-20{fill:#7e141f;}</style></defs><rect class="cls-1" x="3.45" y="-1.42" width="1280" height="1280"/><path class="cls-2" d="M456.39,434.43c0-5.05.15-19.29-.74-26.56.16-.7,4.32,3.62,7.54,7.17-4.18-40.87-.19-83.3-1.54-124.64-.36-4.71,1.47-12-3.47-14.73-32.1,22.57-64.55,46.44-97.42,68.73-3.54,2.29-6.95,4.25-11,1.28-8.26-5.81-17.36-11.15-25.87-16.22-21-12.49-34.35-23.45-50.07-31.81-2.06-1.24-3.82-4.36-6.74-2.82-2.63,69.66-2.5,136.39-.05,207.06l.12,7c43.19,20.09,89.4,35.26,134.35,52,16.29,6.29,33.25,10.85,49.36,17.62C475.54,590.7,451.7,453.22,456.39,434.43Z"/><path class="cls-3" d="M655.46,1010.64c.17.21.27.34.23.35l-.3-.3-.28.2a.38.38,0,0,1-.13.09c-.17.06-.38-.11-.6-.38-1.73,7.51-.43,31.27.13,51.38l1.52-51.75Z"/><path class="cls-3" d="M654.8,1009.25l.18-.08c0-.09,0-.17,0-.26A3.58,3.58,0,0,0,654.8,1009.25Z"/><path class="cls-3" d="M653.57,1093.88l.09-3.11c-.73,2.78-1.93,3.22-3.78.25q-3.93-3.57-7.93-7.25a14.12,14.12,0,0,1-2.54-1.87q3.09,3.39,6.2,6.79c3,3.25,4.72,5,6.31,5.4-.06-.09-.11-.19-.17-.3A3,3,0,0,1,653.57,1093.88Z"/><path class="cls-3" d="M500.61,843.68c-2.8,1.73,17.09,20.18,18.43,23.56l23.54,23.67c-14.64-16-28.83-31.9-41.88-47.13Z"/><path class="cls-3" d="M847.8,819.54c9.26-4.95,19.82-10.74,30.19-16.71v-.08c-5.62,3-11.26,6-16.86,9.12Q854.44,815.67,847.8,819.54Z"/><path class="cls-3" d="M833.46,827.07h-.06l-.08,0-.39-.1-.28-.11a1.21,1.21,0,0,1-.2-.09l-.32-.17c-.07,0-.14-.1-.22-.14-.31.47-1.32,1.5-.12,1.5l-.19.24a2.42,2.42,0,0,1,.6-.45Z"/><path class="cls-3" d="M829.91,828.85a1.13,1.13,0,0,0-.12.21l.15-.22Z"/><path class="cls-4" d="M652.64,1007.44c-.06,0,.12.28.42.62C652.83,1007.56,652.67,1007.25,652.64,1007.44Z"/><path class="cls-4" d="M607.47,960.15c-21.25-22.3-43.56-45.91-64.89-69.24L519,867.24c-1.34-3.38-21.23-21.83-18.43-23.56-1-1.18-1.74-4.11-2.95-3.29-1.45,1-.28-.32-.4-.49-.84-1.07-5.06-2.72-4-4a9.11,9.11,0,0,1-4.49-4.57c-17.18-13.76-38.19-23.52-58.74-33.61-.6,20-.55,40.19,6.72,50.55,66.12,77.08,131.11,155.11,199.53,230.2L635,1077l7.83,7.29a9.94,9.94,0,0,1-.92-.49q4,3.68,7.93,7.25c1.85,3,3,2.53,3.78-.25l.85-28.79c-.56-20.11.26-43.25-.13-51.38M513.17,860.71a9.41,9.41,0,0,1-2.4-3C511.54,858.75,512.33,859.75,513.17,860.71Z"/><path class="cls-5" d="M642.87,1084.26,635,1077l1.25,1.52,3.12,3.41a14.12,14.12,0,0,0,2.54,1.87A9.94,9.94,0,0,0,642.87,1084.26Z"/><path class="cls-6" d="M655,1011a.38.38,0,0,0,.13-.09"/><path class="cls-6" d="M655.46,1010.64l-.07.05.3.3S655.63,1010.85,655.46,1010.64Z"/><path class="cls-6" d="M654.94,1006.2c0-2.77-.14-7.36-.49-17-1.14-30.68-.76-61.31-.64-92,0-6.12.82-8.34,3.78-9.63v-.15c-16.78-.34-32.83-10.68-49.13-15-42.32-15.22-84.92-30.11-126-48.33-.78,3.08,3.14,3.51,4.93,4.6.5.93.94,1.82,1.39,2.66a9.11,9.11,0,0,0,4.49,4.57c-1.07,1.26,3.15,2.91,4,4,.12.17-1.05,1.48.4.49,1.21-.82,2,2.11,2.95,3.29l.09.1c13.05,15.23,27.24,31.12,41.88,47.13,21.33,23.33,43.64,46.94,64.89,69.24,16.27,15.1,30.31,32.93,45.85,48.49a11.82,11.82,0,0,0,1.06,2"/><path class="cls-7" d="M830.25,828.36a4.26,4.26,0,0,0-.34.49h0Z"/><path class="cls-7" d="M830.47,828c-4.13.47-7.67,2.92-11.88,3.33a6,6,0,0,0,1.87.4q5-1.85,9.95-3.64Z"/><path class="cls-7" d="M832.13,826.57l.32.17Z"/><path class="cls-7" d="M832.65,826.83l.28.11Z"/><path class="cls-7" d="M833.32,827l.08,0Z"/><path class="cls-7" d="M865.84,808.37c2-1,4-2.14,6-3.24C869.85,806.21,867.85,807.3,865.84,808.37Z"/><path class="cls-7" d="M863.73,809.88c-.25.06-.6.18-1,.32C863.16,810.06,863.54,809.93,863.73,809.88Z"/><path class="cls-7" d="M878,802.75v-.35q-8.44,4.71-16.86,9.47C866.73,808.79,872.37,805.78,878,802.75Z"/><path class="cls-8" d="M831.93,826.4l0,0c.08,0,.15.1.22.14l.32.17a1.21,1.21,0,0,0,.2.09l.28.11.39.1.08,0h.06c4.18-2.16,9-4.71,14.34-7.53q6.63-3.88,13.33-7.67,8.4-4.77,16.86-9.47v-.56c-2.07,1.06-4.1,2.17-6.13,3.29s-4,2.19-6,3.24c-1.78.92-3.58,1.8-5.43,2.61.66-.18,1.57-.51,2.33-.78.39-.14.74-.26,1-.32-11.26,4.23-20.67,12.47-32.14,16.32l0,0h0A2.75,2.75,0,0,1,831.93,826.4Z"/><path class="cls-2" d="M655.11,1010.89l.28-.2.07-.05.57-.41,0-1.13c23.3-23.53,47.37-47.46,71.46-71.73-.08.06-.16.14-.25.2,1-.94,2-1.92,2.9-2.92a.46.46,0,0,1-.21-.19l.73-.64a.42.42,0,0,1,.16.13c3.48-3.64,6.87-7.49,10.46-10.88-1.31,1.37-2.59,2.82-3.89,4.3,30.61-31,61.07-62.49,89.85-94.43l2.52-3.88a1.13,1.13,0,0,1,.12-.21,4.26,4.26,0,0,1,.34-.49l.16-.25q-5,1.78-9.95,3.64C768.8,850.9,718,873.36,663.9,885.94a34.38,34.38,0,0,0-6.31,1.63c-3,1.29-3.79,3.51-3.78,9.63-.12,30.73-.5,61.36.64,92,.35,9.6.45,14.19.49,17,0,1.13,0,2,0,2.71,0,.09,0,.17,0,.26v.23"/><path class="cls-9" d="M513.17,860.71c-.84-1-1.63-2-2.4-3A9.41,9.41,0,0,0,513.17,860.71Z"/><path class="cls-10" d="M730.17,934.65c-.95,1-1.92,2-2.9,2.92.09-.06.17-.14.25-.2l2.69-2.71Z"/><path class="cls-10" d="M737.42,927.37c1.3-1.48,2.58-2.93,3.89-4.3-3.59,3.39-7,7.24-10.46,10.88l0,0Z"/><path class="cls-10" d="M830.25,828.36l-.31.48-.15.22-2.52,3.88c1.4-1.55,2.81-3.1,4.21-4.66a1.31,1.31,0,0,1,.12-.11l.19-.24c-1.2,0-.19-1,.12-1.5l0,0a2.75,2.75,0,0,0-.29-.17h0L830.47,828l-.06.09Z"/><path class="cls-6" d="M833.46,827.07l-1.26.65a2.42,2.42,0,0,0-.6.45,1.31,1.31,0,0,0-.12.11c-1.4,1.56-2.81,3.11-4.21,4.66-28.78,31.94-59.24,63.46-89.85,94.43l-6.53,6.6c.27.36-.27.85-.68.69l-2.69,2.71c-24.09,24.27-48.16,48.2-71.46,71.73l0,1.13L654.51,1062l-.85,28.79-.09,3.11a3,3,0,0,0-1.82-.09c.06.11.11.21.17.3,2,.44,3.7-1.25,7.28-5.12,12-13,23.81-26.27,35.67-39.45q88.57-98.06,175.06-197.88c5.06-5.59,7.67-11.43,7.63-19.32.34-9.73.46-19.58.43-29.49-10.37,6-20.93,11.76-30.19,16.71C842.5,822.36,837.64,824.91,833.46,827.07Zm-78.19,83.11a.74.74,0,0,1,.77-.65A.75.75,0,0,1,755.27,910.18Z"/><path class="cls-5" d="M730.89,934l0,0a.42.42,0,0,0-.16-.13l-.73.64a.46.46,0,0,0,.21.19h0C730.62,934.82,731.16,934.33,730.89,934Z"/><path class="cls-7" d="M755.27,910.18a.75.75,0,0,0,.77-.65A.74.74,0,0,0,755.27,910.18Z"/><path class="cls-11" d="M1035.5,933.67C1033.56,836,1037.7,735.1,1033,639c-3.58-1.77-7.11,2.43-10.16,4.66-19.43,14.18-38.62,28.69-58.09,42.82-10.35,8.37-15,7.2-22.76-3.94-16.69-12.54-34-24-50.84-36.45-3.35-2.27-6.62-6.52-11.13-4.34-6.33,50.73-2.22,106.42-2,160.08v1c0,9.91-.09,19.76-.43,29.49,0,7.89-2.57,13.73-7.63,19.32q-86.26,100-175.06,197.88C683,1062.7,671.24,1076,659.2,1089c-3.58,3.87-5.33,5.56-7.28,5.12-1.59-.36-3.32-2.15-6.31-5.4q-3.12-3.39-6.2-6.79l-3.12-3.41c-68.42-75.09-133.41-153.12-199.53-230.2-7.27-10.36-7.32-30.55-6.72-50.55.44-15,1.25-29.9-.37-40.46-.9-35.76-.12-71.56-.29-107.35,0-9.41-3.07-11-11.05-6.08-22.2,14-41.49,32.16-63.42,46.5-7,3.52-13.73-6.47-19.28-9.79-5.55-3.74-11.76-6.47-17.25-10.34l.09.09a92.08,92.08,0,0,0-16.92-12.55,17.06,17.06,0,0,0-5.64-4.28,20.44,20.44,0,0,0-5.57-4.19,2,2,0,0,0-1.6-1.32c-.91-1.53-2.58-2.05-4-2.9-5.07-5.9-16.57-11.19-14.66,1.46-.21,39.46-.12,78.92-.58,118.38-.62,52.48-.16,105-.16,157.46,0,17.64,0,17.65,17.06,23.61,7.81,4,15.73,7.87,23.92,11.14,8,3.63,15.68,8.11,24,11.2,102.5,48.5,204.52,99.4,307.92,146.54,8,3.65,14.6,3.48,22.43-.4,53.9-26,107.58-52.51,162.46-76.36a243.72,243.72,0,0,0,24.09-11.2c6.33-2.25,12.15-5.58,18.17-8.48,8.4-2.89,16-7.41,24-11.12,14.22-6.17,28.59-12,42.17-19.57,17.55-6.65,34.22-15.15,50.83-23.77h0C995.36,956.84,1037.94,944.66,1035.5,933.67Z"/><path class="cls-11" d="M656.15,436.45c-1.6-13.57,7.38-35.47-5-44.56-2.69-1.84-5.59-3.81-7.39-6.5-53.29-35.7-106.3-72.21-161.69-104.41-7.17-2.23-12.94-9.63-21-8.62l.18,0c-17,4.63-3.47,106.13-7.6,128.77,0,8.53-1.15,17,8.6,21.43,64.14,41.85,126.88,86.34,191.82,126.62,5.62-5.69,1.79-14.12,1.94-21C656.25,497.59,656.15,467,656.15,436.45Z"/><path class="cls-12" d="M409.35,309.55c-1.26,2.21-2.92,3.88-5.59,4.21"/><path class="cls-13" d="M352.22,542.37,349.36,541Z"/><path class="cls-14" d="M652.28,162c-.3-.51-.49-.84-.64-1.08-31.45,21.3-63.65,42.81-94.46,65C551.05,230,544,233,538.6,238.15c-11.77,9.58,2.53,25.9,12.85,16.14,32-24.58,66-47.07,99.37-69.52C654.44,181.74,654.17,167.53,652.28,162Z"/><path class="cls-12" d="M558.83,224.66l-1.6,1.23Z"/><path class="cls-15" d="M682.67,407.15c-1.89-.45-3.77-.9-5.64-1.37.09.07.2.14.28.21-.14-.09-.41-.06-.38-.28C679.08,404.12,681,406.24,682.67,407.15Z"/><path class="cls-16" d="M840.18,425.21l-2.72,0C838.39,424.06,839.3,423.83,840.18,425.21Z"/><path class="cls-16" d="M843,575.94l-1.2-1.49Z"/><path class="cls-16" d="M835.94,425.74a1.92,1.92,0,0,1-1,.84Z"/><path class="cls-16" d="M843.12,577.3c0-.43-.08-.87-.11-1.3l1.55,1.18C844.17,577.69,843.56,577.87,843.12,577.3Z"/><path class="cls-17" d="M650.82,184.77c1.39-6.87-.54-16.9.85-23.77,26.67,15.57,54.29,37.84,80,54.9,9.29,9,48.69,24.24,35.17,39.48-3.83,2.78-7.94,1.61-11.56-1.18C721,230.77,686.34,205,650.82,184.77Z"/><path class="cls-14" d="M652.75,213.42l-.48-.81c-25.44,16.94-50.85,34.79-76,52-19.24,7.28-12.29,26.47.8,18.06,24-18.45,49.52-35.34,74.6-52.19C654.37,228.21,654.17,217.54,652.75,213.42Z"/><path class="cls-17" d="M651.75,233.34c1.22-6-.47-14.74.74-20.73,23.26,13.57,47.35,33,69.73,47.88,8.47,8.54,41.86,19.89,30.68,34.43-3.35,2.42-6.93,1.4-10.09-1C712.93,273.46,682.73,251,651.75,233.34Z"/><path class="cls-18" d="M296.32,521.56l1.43,1.35Z"/><path class="cls-18" d="M282.37,516l1.43,1.34Z"/><path class="cls-6" d="M843.77,520.53c1.81-12.95-5.21-20.32-15.68-9.09-58.52,39.11-114,84.32-174.31,119.61C590.72,596.74,533.44,548.52,472.1,509.9c-3.39-2.24-10.79-9.71-14.22-7.66,4.42,71.56,1.38,149.15,2.53,222.67,0,12.34.07,12.48,10.44,6.73,27.42-17,53.93-35.61,80.5-54.08,6.61-6.65,10.26-4.34,8.57,4.65q.17,67.42.1,134.85c0,4.94,1.16,8.22,5.36,10.69,20,7.43,82.78,59.22,96.32,47.47,118.42-73.33,74.82-24.59,82.14-196.92-1.8-8.21,2.43-10.56,8-4.46,27.93,19.83,56.72,38.17,85.36,56.79,4.17,2.72,7.25,4.79,7.22-3.44C844.16,658.31,844.07,589.42,843.77,520.53Z"/><path class="cls-19" d="M844.36,577.4c.06.41.09.83.11,1.25"/><path class="cls-20" d="M654.26,393.48c-1-1.49-3-1.6-4.62-1.56,1.51,1.32,3.89,2.17,5.48,3.27A5,5,0,0,0,654.26,393.48Z"/><path class="cls-19" d="M677.31,406c-.08-.07-.19-.14-.28-.21"/><path class="cls-4" d="M1030,300.85c1.22-8.17-2.38-11.73-9-5.11-22.14,16.5-44.27,33-66.22,49.74-8.93,8.49-31.8-15.33-40.64-20.57-22.16-15.22-44.62-30.06-66.38-45.85-8.21-5.95-15-7.19-22.52-.14-39.8,26.6-76.33,56.81-117.38,82.13-5.48,5.46-21.47,14.85-29.68,20.58-6.32,5.28-16.15,17-24.78,10.83,8.11,13,2,29.6,2.82,44-1.29,37.29,2.59,76.34-1.46,112.8,27.13-21.69,58.62-39.08,85.74-60.92,34.35-19.31,65.41-50.53,101-66.92,5.85,43.72.37,93.47,2.78,139.14.17,15.59-2.12,16.29,14.53,10.78,53.74-17.81,107.2-36.43,160.93-54.21,8.49-2.81,10.85-7.08,10.8-15.54C1030.08,434.67,1030.12,367.75,1030,300.85Z"/><path class="cls-21" d="M515.33,301.08l-1.39-1.32Z"/><path class="cls-21" d="M503.06,293.88a3.69,3.69,0,0,1-.26-1.09l1.35,1.18A3.63,3.63,0,0,1,503.06,293.88Z"/></svg>